G04*
G04 #@! TF.GenerationSoftware,Altium Limited,Altium Designer,22.2.1 (43)*
G04*
G04 Layer_Color=8388736*
%FSLAX44Y44*%
%MOMM*%
G71*
G04*
G04 #@! TF.SameCoordinates,759879DA-5FB0-46B3-BA1E-0A648CFA67EC*
G04*
G04*
G04 #@! TF.FilePolarity,Positive*
G04*
G01*
G75*
%ADD10C,0.2540*%
%ADD12C,0.1000*%
D10*
X202500Y917500D02*
Y1040000D01*
X37500Y917500D02*
Y1040000D01*
Y917500D02*
X202500D01*
X37500Y1040000D02*
X202500D01*
X562500Y917500D02*
Y1040000D01*
X397500Y917500D02*
Y1040000D01*
Y917500D02*
X562500D01*
X397500Y1040000D02*
X562500D01*
X403330Y733330D02*
X456670D01*
X403330Y786670D02*
X456670D01*
Y733330D02*
Y786670D01*
X403330Y733330D02*
Y786670D01*
X143330Y733330D02*
X196670D01*
X143330Y786670D02*
X196670D01*
Y733330D02*
Y786670D01*
X143330Y733330D02*
Y786670D01*
X240000Y915000D02*
Y1025000D01*
X360000Y915000D02*
Y1025000D01*
X240000D02*
X360000D01*
X270000Y915000D02*
X330000D01*
X360000D01*
X240000D02*
X270000D01*
D12*
X485000Y640000D02*
Y670000D01*
X455000Y640000D02*
Y670000D01*
Y640000D02*
X485000D01*
X455000Y670000D02*
X485000D01*
X355000Y417500D02*
X400000D01*
X355000Y382500D02*
X400000D01*
Y417500D01*
X355000Y382500D02*
Y417500D01*
X202500Y805000D02*
Y885000D01*
X142500D02*
X202500D01*
X142500Y805000D02*
X202500D01*
X142500D02*
Y885000D01*
X379500Y673500D02*
Y708500D01*
X334500Y673500D02*
X379500D01*
X334500D02*
Y708500D01*
X379500D01*
X519500Y874000D02*
Y906000D01*
Y874000D02*
X545500D01*
Y906000D01*
X519500D02*
X545500D01*
X419300Y832950D02*
X444700D01*
Y871050D01*
X419300D02*
X444700D01*
X419300Y832950D02*
Y871050D01*
X435000Y383000D02*
Y398000D01*
X405000Y383000D02*
Y398000D01*
Y383000D02*
X435000D01*
X405000Y398000D02*
X435000D01*
Y402000D02*
Y417000D01*
X405000Y402000D02*
Y417000D01*
Y402000D02*
X435000D01*
X405000Y417000D02*
X435000D01*
X82500Y885000D02*
X97500D01*
X82500Y915000D02*
X97500D01*
X82500Y885000D02*
Y915000D01*
X97500Y885000D02*
Y915000D01*
X112500Y885000D02*
X127500D01*
X112500Y915000D02*
X127500D01*
X112500Y885000D02*
Y915000D01*
X127500Y885000D02*
Y915000D01*
X173000Y788500D02*
Y803500D01*
X143000Y788500D02*
Y803500D01*
Y788500D02*
X173000D01*
X143000Y803500D02*
X173000D01*
X382000Y706000D02*
X397000D01*
X382000Y676000D02*
X397000D01*
Y706000D01*
X382000Y676000D02*
Y706000D01*
X282000Y676000D02*
X297000D01*
X282000Y706000D02*
X297000D01*
X282000Y676000D02*
Y706000D01*
X297000Y676000D02*
Y706000D01*
X347000Y711000D02*
Y726000D01*
X377000Y711000D02*
Y726000D01*
X347000D02*
X377000D01*
X347000Y711000D02*
X377000D01*
X317000Y706000D02*
X332000D01*
X317000Y676000D02*
X332000D01*
Y706000D01*
X317000Y676000D02*
Y706000D01*
X399500D02*
X414500D01*
X399500Y676000D02*
X414500D01*
Y706000D01*
X399500Y676000D02*
Y706000D01*
X447500Y862300D02*
X462500D01*
X447500Y832300D02*
X462500D01*
Y862300D01*
X447500Y832300D02*
Y862300D01*
X452460Y873500D02*
Y888500D01*
X422460Y873500D02*
Y888500D01*
Y873500D02*
X452460D01*
X422460Y888500D02*
X452460D01*
X416880Y799000D02*
X431880D01*
X416880Y829000D02*
X431880D01*
X416880Y799000D02*
Y829000D01*
X431880Y799000D02*
Y829000D01*
X385000Y814500D02*
Y829500D01*
X415000Y814500D02*
Y829500D01*
X385000D02*
X415000D01*
X385000Y814500D02*
X415000D01*
X230000Y870000D02*
X370000D01*
Y730000D02*
Y870000D01*
X230000Y730000D02*
X370000D01*
X230000D02*
Y870000D01*
X137500Y747500D02*
Y777500D01*
X107500Y747500D02*
Y777500D01*
Y747500D02*
X137500D01*
X107500Y777500D02*
X137500D01*
X324750Y605000D02*
Y635000D01*
X274750D02*
X324750D01*
X274750Y605000D02*
Y635000D01*
Y605000D02*
X324750D01*
Y385000D02*
Y415000D01*
X274750D02*
X324750D01*
X274750Y385000D02*
Y415000D01*
Y385000D02*
X324750D01*
Y165000D02*
Y195000D01*
X274750D02*
X324750D01*
X274750Y165000D02*
Y195000D01*
Y165000D02*
X324750D01*
X446000Y754000D02*
Y757000D01*
Y763000D02*
Y766000D01*
Y757000D02*
Y763000D01*
X416000Y766000D02*
X446000D01*
X416000Y754000D02*
Y766000D01*
Y754000D02*
X446000D01*
X186000Y754000D02*
Y757000D01*
Y763000D02*
Y766000D01*
Y757000D02*
Y763000D01*
X156000Y766000D02*
X186000D01*
X156000Y754000D02*
Y766000D01*
Y754000D02*
X186000D01*
X285000Y892500D02*
Y907500D01*
X315000Y892500D02*
Y907500D01*
X285000D02*
X315000D01*
X285000Y892500D02*
X315000D01*
X383500Y710500D02*
X386500D01*
X392500D02*
X395500D01*
X386500D02*
X392500D01*
X395500D02*
Y740500D01*
X383500D02*
X395500D01*
X383500Y710500D02*
Y740500D01*
X440000Y386500D02*
X455000D01*
X440000Y416500D02*
X455000D01*
X440000Y386500D02*
Y416500D01*
X455000Y386500D02*
Y416500D01*
X125000Y849000D02*
X140000D01*
X125000Y879000D02*
X140000D01*
X125000Y849000D02*
Y879000D01*
X140000Y849000D02*
Y879000D01*
X202000Y886500D02*
Y901500D01*
X172000Y886500D02*
Y901500D01*
Y886500D02*
X202000D01*
X172000Y901500D02*
X202000D01*
X207500Y849000D02*
X222500D01*
X207500Y879000D02*
X222500D01*
X207500Y849000D02*
Y879000D01*
X222500Y849000D02*
Y879000D01*
X347000Y728500D02*
Y743500D01*
X377000Y728500D02*
Y743500D01*
X347000D02*
X377000D01*
X347000Y728500D02*
X377000D01*
X299500Y676000D02*
X314500D01*
X299500Y706000D02*
X314500D01*
X299500Y676000D02*
Y706000D01*
X314500Y676000D02*
Y706000D01*
X577500Y872000D02*
Y887000D01*
X547500Y872000D02*
Y887000D01*
Y872000D02*
X577500D01*
X547500Y887000D02*
X577500D01*
X487500Y872000D02*
Y887000D01*
X517500Y872000D02*
Y887000D01*
X487500D02*
X517500D01*
X487500Y872000D02*
X517500D01*
X320500Y877000D02*
X335500D01*
X320500Y907000D02*
X335500D01*
X320500Y877000D02*
Y907000D01*
X335500Y877000D02*
Y907000D01*
X264500Y877000D02*
X279500D01*
X264500Y907000D02*
X279500D01*
X264500Y877000D02*
Y907000D01*
X279500Y877000D02*
Y907000D01*
X386000Y857200D02*
Y872200D01*
X416000Y857200D02*
Y872200D01*
X386000D02*
X416000D01*
X386000Y857200D02*
X416000D01*
X385000Y831800D02*
Y846800D01*
X415000Y831800D02*
Y846800D01*
X385000D02*
X415000D01*
X385000Y831800D02*
X415000D01*
X573270Y356730D02*
Y386730D01*
X543270Y356730D02*
Y386730D01*
Y356730D02*
X573270D01*
X543270Y386730D02*
X573270D01*
X572500Y412500D02*
Y442500D01*
X542500Y412500D02*
Y442500D01*
Y412500D02*
X572500D01*
X542500Y442500D02*
X572500D01*
M02*
