G04*
G04 #@! TF.GenerationSoftware,Altium Limited,Altium Designer,22.2.1 (43)*
G04*
G04 Layer_Color=32896*
%FSLAX44Y44*%
%MOMM*%
G71*
G04*
G04 #@! TF.SameCoordinates,51408D7C-6C8F-4155-A7B7-9BEF84A0B881*
G04*
G04*
G04 #@! TF.FilePolarity,Positive*
G04*
G01*
G75*
%ADD10C,0.2540*%
G36*
X465418Y981000D02*
X434582D01*
Y996000D01*
X465418D01*
Y981000D01*
D02*
G37*
G36*
X167418D02*
X132582D01*
Y996000D01*
X167418D01*
Y981000D01*
D02*
G37*
G36*
X527418D02*
X492582D01*
Y996000D01*
X527418D01*
Y981000D01*
D02*
G37*
G36*
X105418D02*
X74582D01*
Y996000D01*
X105418D01*
Y981000D01*
D02*
G37*
G36*
X250875Y750440D02*
X186250D01*
Y815250D01*
X250875D01*
Y750440D01*
D02*
G37*
%LPC*%
G36*
X448398Y991777D02*
X446526D01*
X442560Y985314D01*
Y991777D01*
X440771D01*
Y982180D01*
X442712D01*
X446609Y988504D01*
Y982180D01*
X448398D01*
Y991777D01*
D02*
G37*
G36*
X454597Y991957D02*
X454500D01*
X454389Y991944D01*
X454251D01*
X454070Y991916D01*
X453862Y991888D01*
X453627Y991847D01*
X453377Y991791D01*
X453113Y991722D01*
X452836Y991638D01*
X452559Y991528D01*
X452267Y991403D01*
X451990Y991250D01*
X451713Y991070D01*
X451449Y990862D01*
X451200Y990626D01*
X451186Y990612D01*
X451144Y990571D01*
X451075Y990488D01*
X451005Y990390D01*
X450908Y990252D01*
X450797Y990085D01*
X450686Y989891D01*
X450562Y989669D01*
X450437Y989434D01*
X450326Y989156D01*
X450215Y988851D01*
X450118Y988532D01*
X450035Y988171D01*
X449979Y987797D01*
X449938Y987395D01*
X449924Y986965D01*
Y986868D01*
X449938Y986743D01*
Y986577D01*
X449965Y986382D01*
X449993Y986161D01*
X450035Y985897D01*
X450076Y985633D01*
X450146Y985342D01*
X450229Y985037D01*
X450340Y984732D01*
X450465Y984427D01*
X450603Y984136D01*
X450784Y983845D01*
X450978Y983567D01*
X451200Y983304D01*
X451213Y983290D01*
X451255Y983248D01*
X451324Y983179D01*
X451435Y983096D01*
X451560Y982999D01*
X451713Y982888D01*
X451893Y982777D01*
X452087Y982652D01*
X452323Y982527D01*
X452573Y982416D01*
X452850Y982305D01*
X453155Y982208D01*
X453474Y982125D01*
X453821Y982056D01*
X454181Y982014D01*
X454570Y982000D01*
X454667D01*
X454778Y982014D01*
X454916Y982028D01*
X455097Y982042D01*
X455305Y982069D01*
X455540Y982111D01*
X455790Y982166D01*
X456067Y982236D01*
X456331Y982319D01*
X456622Y982430D01*
X456899Y982555D01*
X457191Y982693D01*
X457454Y982874D01*
X457718Y983068D01*
X457967Y983304D01*
X457981Y983317D01*
X458023Y983359D01*
X458078Y983442D01*
X458162Y983539D01*
X458259Y983678D01*
X458370Y983845D01*
X458480Y984025D01*
X458591Y984247D01*
X458716Y984482D01*
X458827Y984760D01*
X458938Y985051D01*
X459035Y985370D01*
X459118Y985717D01*
X459174Y986091D01*
X459216Y986493D01*
X459229Y986909D01*
Y987048D01*
X459216Y987159D01*
Y987284D01*
X459202Y987422D01*
X459188Y987589D01*
X459174Y987769D01*
X459118Y988158D01*
X459049Y988574D01*
X458938Y988990D01*
X458800Y989378D01*
Y989392D01*
X458786Y989406D01*
X458758Y989447D01*
X458744Y989503D01*
X458661Y989641D01*
X458564Y989822D01*
X458439Y990030D01*
X458286Y990238D01*
X458106Y990474D01*
X457912Y990695D01*
X457898Y990709D01*
X457884Y990723D01*
X457815Y990793D01*
X457690Y990903D01*
X457537Y991028D01*
X457357Y991167D01*
X457149Y991320D01*
X456913Y991458D01*
X456664Y991569D01*
X456650D01*
X456622Y991583D01*
X456567Y991611D01*
X456497Y991625D01*
X456414Y991666D01*
X456317Y991694D01*
X456192Y991722D01*
X456067Y991763D01*
X455762Y991833D01*
X455416Y991902D01*
X455013Y991944D01*
X454597Y991957D01*
D02*
G37*
%LPD*%
G36*
X454764Y990293D02*
X454875Y990279D01*
X454986Y990266D01*
X455263Y990210D01*
X455568Y990099D01*
X455735Y990044D01*
X455901Y989960D01*
X456054Y989863D01*
X456220Y989752D01*
X456372Y989628D01*
X456511Y989475D01*
X456525Y989461D01*
X456539Y989434D01*
X456581Y989392D01*
X456622Y989323D01*
X456678Y989225D01*
X456733Y989128D01*
X456802Y989004D01*
X456872Y988851D01*
X456941Y988685D01*
X457010Y988504D01*
X457066Y988296D01*
X457121Y988074D01*
X457163Y987825D01*
X457205Y987561D01*
X457219Y987284D01*
X457232Y986979D01*
Y986965D01*
Y986909D01*
Y986826D01*
X457219Y986715D01*
X457205Y986577D01*
X457191Y986410D01*
X457163Y986244D01*
X457135Y986050D01*
X457052Y985647D01*
X456913Y985245D01*
X456830Y985037D01*
X456733Y984843D01*
X456608Y984663D01*
X456483Y984496D01*
X456470Y984482D01*
X456442Y984455D01*
X456400Y984413D01*
X456345Y984371D01*
X456275Y984302D01*
X456178Y984233D01*
X456081Y984150D01*
X455956Y984080D01*
X455693Y983914D01*
X455360Y983789D01*
X455180Y983734D01*
X454986Y983692D01*
X454778Y983664D01*
X454570Y983650D01*
X454459D01*
X454375Y983664D01*
X454278Y983678D01*
X454167Y983692D01*
X453904Y983761D01*
X453599Y983858D01*
X453446Y983928D01*
X453280Y983997D01*
X453127Y984094D01*
X452961Y984205D01*
X452808Y984330D01*
X452670Y984482D01*
X452656Y984496D01*
X452642Y984524D01*
X452600Y984566D01*
X452559Y984635D01*
X452489Y984732D01*
X452434Y984843D01*
X452365Y984968D01*
X452295Y985120D01*
X452226Y985287D01*
X452156Y985467D01*
X452087Y985675D01*
X452032Y985911D01*
X451990Y986147D01*
X451949Y986410D01*
X451935Y986701D01*
X451921Y987007D01*
Y987020D01*
Y987076D01*
Y987159D01*
X451935Y987284D01*
X451949Y987422D01*
X451962Y987575D01*
X451976Y987755D01*
X452018Y987936D01*
X452101Y988338D01*
X452226Y988754D01*
X452309Y988962D01*
X452406Y989142D01*
X452531Y989323D01*
X452656Y989489D01*
X452670Y989503D01*
X452683Y989530D01*
X452725Y989558D01*
X452781Y989614D01*
X452864Y989683D01*
X452947Y989752D01*
X453044Y989822D01*
X453169Y989905D01*
X453294Y989974D01*
X453446Y990044D01*
X453765Y990182D01*
X453946Y990238D01*
X454140Y990266D01*
X454348Y990293D01*
X454570Y990307D01*
X454681D01*
X454764Y990293D01*
D02*
G37*
%LPC*%
G36*
X157621Y991805D02*
X156123D01*
Y982152D01*
X157967D01*
Y989101D01*
X157981Y989087D01*
X158009Y989059D01*
X158064Y989017D01*
X158148Y988948D01*
X158245Y988865D01*
X158356Y988782D01*
X158494Y988685D01*
X158647Y988574D01*
X158813Y988463D01*
X158994Y988352D01*
X159188Y988227D01*
X159396Y988116D01*
X159840Y987908D01*
X160339Y987714D01*
Y989378D01*
X160325D01*
X160311Y989392D01*
X160270Y989406D01*
X160214Y989420D01*
X160075Y989489D01*
X159881Y989572D01*
X159646Y989683D01*
X159382Y989836D01*
X159091Y990030D01*
X158786Y990252D01*
X158772Y990266D01*
X158744Y990279D01*
X158702Y990321D01*
X158647Y990377D01*
X158494Y990515D01*
X158328Y990695D01*
X158134Y990917D01*
X157940Y991195D01*
X157759Y991486D01*
X157621Y991805D01*
D02*
G37*
G36*
X150160D02*
X148662D01*
Y982152D01*
X150506D01*
Y989101D01*
X150520Y989087D01*
X150548Y989059D01*
X150603Y989017D01*
X150687Y988948D01*
X150784Y988865D01*
X150894Y988782D01*
X151033Y988685D01*
X151186Y988574D01*
X151352Y988463D01*
X151532Y988352D01*
X151727Y988227D01*
X151935Y988116D01*
X152378Y987908D01*
X152878Y987714D01*
Y989378D01*
X152864D01*
X152850Y989392D01*
X152808Y989406D01*
X152753Y989420D01*
X152614Y989489D01*
X152420Y989572D01*
X152184Y989683D01*
X151921Y989836D01*
X151629Y990030D01*
X151324Y990252D01*
X151311Y990266D01*
X151283Y990279D01*
X151241Y990321D01*
X151186Y990377D01*
X151033Y990515D01*
X150867Y990695D01*
X150673Y990917D01*
X150478Y991195D01*
X150298Y991486D01*
X150160Y991805D01*
D02*
G37*
G36*
X143253Y989267D02*
X142740D01*
X142629Y989253D01*
X142490Y989239D01*
X142338Y989225D01*
X142171Y989212D01*
X141825Y989156D01*
X141478Y989073D01*
X141145Y988948D01*
X140992Y988879D01*
X140854Y988795D01*
X140840D01*
X140826Y988768D01*
X140743Y988712D01*
X140618Y988601D01*
X140479Y988449D01*
X140313Y988269D01*
X140160Y988033D01*
X140008Y987755D01*
X139897Y987436D01*
X141630Y987117D01*
Y987131D01*
X141658Y987187D01*
X141686Y987256D01*
X141728Y987339D01*
X141783Y987450D01*
X141866Y987547D01*
X141949Y987644D01*
X142060Y987728D01*
X142074Y987741D01*
X142116Y987769D01*
X142185Y987797D01*
X142282Y987839D01*
X142407Y987880D01*
X142560Y987922D01*
X142740Y987936D01*
X142948Y987950D01*
X143073D01*
X143198Y987936D01*
X143350Y987922D01*
X143530Y987894D01*
X143697Y987866D01*
X143849Y987811D01*
X143988Y987741D01*
X144002D01*
X144016Y987714D01*
X144085Y987644D01*
X144168Y987520D01*
X144182Y987450D01*
X144196Y987367D01*
Y987353D01*
Y987339D01*
X144168Y987256D01*
X144113Y987145D01*
X144071Y987090D01*
X144016Y987034D01*
X144002Y987020D01*
X143946Y987007D01*
X143919Y986979D01*
X143863Y986965D01*
X143794Y986937D01*
X143711Y986896D01*
X143600Y986868D01*
X143489Y986826D01*
X143350Y986785D01*
X143184Y986743D01*
X143003Y986687D01*
X142795Y986632D01*
X142560Y986577D01*
X142296Y986507D01*
X142282D01*
X142227Y986493D01*
X142157Y986479D01*
X142060Y986452D01*
X141936Y986410D01*
X141797Y986382D01*
X141492Y986285D01*
X141145Y986161D01*
X140812Y986022D01*
X140646Y985939D01*
X140493Y985869D01*
X140368Y985772D01*
X140244Y985689D01*
X140216Y985661D01*
X140147Y985606D01*
X140063Y985495D01*
X139952Y985342D01*
X139841Y985148D01*
X139758Y984912D01*
X139689Y984635D01*
X139661Y984330D01*
Y984233D01*
X139675Y984164D01*
X139689Y984094D01*
X139703Y983997D01*
X139758Y983761D01*
X139855Y983512D01*
X139925Y983373D01*
X139994Y983234D01*
X140091Y983096D01*
X140202Y982957D01*
X140327Y982818D01*
X140465Y982680D01*
X140479Y982666D01*
X140507Y982652D01*
X140549Y982624D01*
X140618Y982569D01*
X140701Y982527D01*
X140798Y982471D01*
X140923Y982402D01*
X141062Y982347D01*
X141214Y982277D01*
X141395Y982222D01*
X141589Y982152D01*
X141797Y982111D01*
X142033Y982069D01*
X142282Y982028D01*
X142546Y982014D01*
X142823Y982000D01*
X142962D01*
X143059Y982014D01*
X143184D01*
X143322Y982028D01*
X143475Y982042D01*
X143641Y982069D01*
X144002Y982139D01*
X144376Y982236D01*
X144751Y982374D01*
X144917Y982471D01*
X145084Y982569D01*
X145098Y982582D01*
X145125Y982596D01*
X145167Y982624D01*
X145209Y982680D01*
X145361Y982804D01*
X145527Y982985D01*
X145708Y983206D01*
X145874Y983470D01*
X146027Y983789D01*
X146152Y984136D01*
X144307Y984413D01*
Y984385D01*
X144279Y984330D01*
X144252Y984233D01*
X144210Y984108D01*
X144141Y983969D01*
X144057Y983845D01*
X143960Y983706D01*
X143835Y983595D01*
X143822Y983581D01*
X143766Y983553D01*
X143683Y983512D01*
X143572Y983470D01*
X143433Y983415D01*
X143253Y983373D01*
X143059Y983345D01*
X142823Y983331D01*
X142712D01*
X142573Y983345D01*
X142421Y983359D01*
X142254Y983387D01*
X142074Y983442D01*
X141908Y983498D01*
X141755Y983581D01*
X141741Y983595D01*
X141714Y983623D01*
X141672Y983664D01*
X141630Y983720D01*
X141589Y983789D01*
X141547Y983872D01*
X141519Y983969D01*
X141506Y984080D01*
Y984094D01*
Y984122D01*
X141519Y984205D01*
X141561Y984316D01*
X141644Y984427D01*
X141672Y984455D01*
X141714Y984469D01*
X141769Y984510D01*
X141852Y984538D01*
X141963Y984579D01*
X142088Y984621D01*
X142254Y984663D01*
X142282D01*
X142352Y984690D01*
X142463Y984718D01*
X142615Y984746D01*
X142795Y984788D01*
X142990Y984843D01*
X143211Y984899D01*
X143447Y984968D01*
X143933Y985107D01*
X144168Y985176D01*
X144390Y985259D01*
X144598Y985328D01*
X144792Y985412D01*
X144959Y985495D01*
X145084Y985564D01*
X145098Y985578D01*
X145125Y985592D01*
X145153Y985620D01*
X145209Y985675D01*
X145347Y985800D01*
X145486Y985980D01*
X145638Y986202D01*
X145777Y986466D01*
X145833Y986618D01*
X145860Y986785D01*
X145888Y986951D01*
X145902Y987131D01*
Y987145D01*
Y987173D01*
Y987215D01*
X145888Y987284D01*
X145874Y987353D01*
X145860Y987450D01*
X145819Y987658D01*
X145736Y987894D01*
X145597Y988144D01*
X145527Y988282D01*
X145430Y988407D01*
X145319Y988532D01*
X145195Y988643D01*
X145181Y988657D01*
X145167Y988671D01*
X145125Y988698D01*
X145056Y988740D01*
X144987Y988782D01*
X144889Y988837D01*
X144779Y988893D01*
X144654Y988962D01*
X144501Y989017D01*
X144335Y989073D01*
X144155Y989128D01*
X143960Y989170D01*
X143738Y989212D01*
X143503Y989239D01*
X143253Y989267D01*
D02*
G37*
G36*
X511976Y991777D02*
X505389D01*
Y990155D01*
X510035D01*
Y987880D01*
X506027D01*
Y986258D01*
X510035D01*
Y982180D01*
X511976D01*
Y991777D01*
D02*
G37*
G36*
X503780D02*
X497192D01*
Y990155D01*
X501838D01*
Y987880D01*
X497831D01*
Y986258D01*
X501838D01*
Y982180D01*
X503780D01*
Y991777D01*
D02*
G37*
G36*
X518175Y991957D02*
X518078D01*
X517967Y991944D01*
X517829D01*
X517648Y991916D01*
X517440Y991888D01*
X517205Y991847D01*
X516955Y991791D01*
X516692Y991722D01*
X516414Y991638D01*
X516137Y991528D01*
X515845Y991403D01*
X515568Y991250D01*
X515291Y991070D01*
X515027Y990862D01*
X514778Y990626D01*
X514764Y990612D01*
X514722Y990571D01*
X514653Y990488D01*
X514584Y990390D01*
X514486Y990252D01*
X514375Y990085D01*
X514264Y989891D01*
X514140Y989669D01*
X514015Y989434D01*
X513904Y989156D01*
X513793Y988851D01*
X513696Y988532D01*
X513613Y988171D01*
X513557Y987797D01*
X513516Y987395D01*
X513502Y986965D01*
Y986868D01*
X513516Y986743D01*
Y986577D01*
X513543Y986382D01*
X513571Y986161D01*
X513613Y985897D01*
X513654Y985633D01*
X513724Y985342D01*
X513807Y985037D01*
X513918Y984732D01*
X514043Y984427D01*
X514181Y984136D01*
X514362Y983845D01*
X514556Y983567D01*
X514778Y983304D01*
X514791Y983290D01*
X514833Y983248D01*
X514902Y983179D01*
X515013Y983096D01*
X515138Y982999D01*
X515291Y982888D01*
X515471Y982777D01*
X515665Y982652D01*
X515901Y982527D01*
X516151Y982416D01*
X516428Y982305D01*
X516733Y982208D01*
X517052Y982125D01*
X517399Y982056D01*
X517759Y982014D01*
X518148Y982000D01*
X518245D01*
X518356Y982014D01*
X518494Y982028D01*
X518675Y982042D01*
X518883Y982069D01*
X519118Y982111D01*
X519368Y982166D01*
X519646Y982236D01*
X519909Y982319D01*
X520200Y982430D01*
X520478Y982555D01*
X520769Y982693D01*
X521032Y982874D01*
X521296Y983068D01*
X521545Y983304D01*
X521559Y983317D01*
X521601Y983359D01*
X521656Y983442D01*
X521740Y983539D01*
X521837Y983678D01*
X521948Y983845D01*
X522059Y984025D01*
X522169Y984247D01*
X522294Y984482D01*
X522405Y984760D01*
X522516Y985051D01*
X522613Y985370D01*
X522696Y985717D01*
X522752Y986091D01*
X522794Y986493D01*
X522808Y986909D01*
Y987048D01*
X522794Y987159D01*
Y987284D01*
X522780Y987422D01*
X522766Y987589D01*
X522752Y987769D01*
X522696Y988158D01*
X522627Y988574D01*
X522516Y988990D01*
X522378Y989378D01*
Y989392D01*
X522364Y989406D01*
X522336Y989447D01*
X522322Y989503D01*
X522239Y989641D01*
X522142Y989822D01*
X522017Y990030D01*
X521864Y990238D01*
X521684Y990474D01*
X521490Y990695D01*
X521476Y990709D01*
X521462Y990723D01*
X521393Y990793D01*
X521268Y990903D01*
X521115Y991028D01*
X520935Y991167D01*
X520727Y991320D01*
X520491Y991458D01*
X520242Y991569D01*
X520228D01*
X520200Y991583D01*
X520145Y991611D01*
X520075Y991625D01*
X519992Y991666D01*
X519895Y991694D01*
X519770Y991722D01*
X519646Y991763D01*
X519340Y991833D01*
X518994Y991902D01*
X518591Y991944D01*
X518175Y991957D01*
D02*
G37*
%LPD*%
G36*
X518342Y990293D02*
X518453Y990279D01*
X518564Y990266D01*
X518841Y990210D01*
X519146Y990099D01*
X519313Y990044D01*
X519479Y989960D01*
X519632Y989863D01*
X519798Y989752D01*
X519951Y989628D01*
X520089Y989475D01*
X520103Y989461D01*
X520117Y989434D01*
X520159Y989392D01*
X520200Y989323D01*
X520256Y989225D01*
X520311Y989128D01*
X520381Y989004D01*
X520450Y988851D01*
X520519Y988685D01*
X520588Y988504D01*
X520644Y988296D01*
X520700Y988074D01*
X520741Y987825D01*
X520783Y987561D01*
X520797Y987284D01*
X520810Y986979D01*
Y986965D01*
Y986909D01*
Y986826D01*
X520797Y986715D01*
X520783Y986577D01*
X520769Y986410D01*
X520741Y986244D01*
X520713Y986050D01*
X520630Y985647D01*
X520491Y985245D01*
X520408Y985037D01*
X520311Y984843D01*
X520186Y984663D01*
X520061Y984496D01*
X520048Y984482D01*
X520020Y984455D01*
X519978Y984413D01*
X519923Y984371D01*
X519854Y984302D01*
X519756Y984233D01*
X519659Y984150D01*
X519534Y984080D01*
X519271Y983914D01*
X518938Y983789D01*
X518758Y983734D01*
X518564Y983692D01*
X518356Y983664D01*
X518148Y983650D01*
X518037D01*
X517953Y983664D01*
X517856Y983678D01*
X517746Y983692D01*
X517482Y983761D01*
X517177Y983858D01*
X517024Y983928D01*
X516858Y983997D01*
X516705Y984094D01*
X516539Y984205D01*
X516386Y984330D01*
X516248Y984482D01*
X516234Y984496D01*
X516220Y984524D01*
X516178Y984566D01*
X516137Y984635D01*
X516067Y984732D01*
X516012Y984843D01*
X515943Y984968D01*
X515873Y985120D01*
X515804Y985287D01*
X515735Y985467D01*
X515665Y985675D01*
X515610Y985911D01*
X515568Y986147D01*
X515527Y986410D01*
X515513Y986701D01*
X515499Y987007D01*
Y987020D01*
Y987076D01*
Y987159D01*
X515513Y987284D01*
X515527Y987422D01*
X515540Y987575D01*
X515554Y987755D01*
X515596Y987936D01*
X515679Y988338D01*
X515804Y988754D01*
X515887Y988962D01*
X515984Y989142D01*
X516109Y989323D01*
X516234Y989489D01*
X516248Y989503D01*
X516262Y989530D01*
X516303Y989558D01*
X516359Y989614D01*
X516442Y989683D01*
X516525Y989752D01*
X516622Y989822D01*
X516747Y989905D01*
X516872Y989974D01*
X517024Y990044D01*
X517343Y990182D01*
X517524Y990238D01*
X517718Y990266D01*
X517926Y990293D01*
X518148Y990307D01*
X518259D01*
X518342Y990293D01*
D02*
G37*
%LPC*%
G36*
X93793Y991833D02*
X93668D01*
X93571Y991819D01*
X93446Y991805D01*
X93322Y991791D01*
X93169Y991763D01*
X93016Y991722D01*
X92670Y991625D01*
X92489Y991555D01*
X92295Y991458D01*
X92115Y991361D01*
X91948Y991250D01*
X91768Y991112D01*
X91616Y990959D01*
X91602Y990945D01*
X91588Y990931D01*
X91546Y990890D01*
X91505Y990834D01*
X91394Y990695D01*
X91269Y990501D01*
X91144Y990266D01*
X91047Y989988D01*
X90964Y989683D01*
X90950Y989530D01*
X90936Y989364D01*
Y989350D01*
Y989309D01*
X90950Y989239D01*
X90964Y989156D01*
X90978Y989045D01*
X91005Y988920D01*
X91047Y988782D01*
X91103Y988629D01*
X91186Y988476D01*
X91269Y988310D01*
X91380Y988144D01*
X91519Y987977D01*
X91685Y987811D01*
X91865Y987644D01*
X92073Y987492D01*
X92323Y987339D01*
X92309D01*
X92281Y987326D01*
X92240D01*
X92184Y987298D01*
X92032Y987256D01*
X91851Y987173D01*
X91643Y987062D01*
X91421Y986923D01*
X91200Y986743D01*
X91005Y986535D01*
X90978Y986507D01*
X90922Y986424D01*
X90853Y986299D01*
X90756Y986119D01*
X90659Y985911D01*
X90589Y985647D01*
X90534Y985370D01*
X90506Y985051D01*
Y984926D01*
X90520Y984843D01*
X90534Y984732D01*
X90562Y984607D01*
X90589Y984455D01*
X90617Y984302D01*
X90728Y983969D01*
X90811Y983789D01*
X90894Y983595D01*
X91005Y983415D01*
X91130Y983234D01*
X91269Y983054D01*
X91435Y982888D01*
X91449Y982874D01*
X91477Y982846D01*
X91532Y982804D01*
X91602Y982749D01*
X91699Y982680D01*
X91796Y982610D01*
X91935Y982527D01*
X92073Y982444D01*
X92226Y982361D01*
X92406Y982277D01*
X92600Y982208D01*
X92795Y982139D01*
X93016Y982083D01*
X93238Y982042D01*
X93488Y982014D01*
X93737Y982000D01*
X93862D01*
X93959Y982014D01*
X94070Y982028D01*
X94195Y982042D01*
X94334Y982069D01*
X94500Y982097D01*
X94833Y982180D01*
X95194Y982319D01*
X95388Y982402D01*
X95554Y982499D01*
X95735Y982624D01*
X95901Y982749D01*
X95915Y982763D01*
X95943Y982791D01*
X95984Y982832D01*
X96040Y982888D01*
X96109Y982957D01*
X96178Y983054D01*
X96262Y983151D01*
X96345Y983276D01*
X96428Y983415D01*
X96525Y983553D01*
X96678Y983886D01*
X96802Y984274D01*
X96858Y984482D01*
X96886Y984704D01*
X95111Y984926D01*
Y984912D01*
Y984899D01*
X95097Y984815D01*
X95069Y984690D01*
X95027Y984538D01*
X94958Y984371D01*
X94889Y984191D01*
X94778Y984025D01*
X94653Y983872D01*
X94639Y983858D01*
X94584Y983817D01*
X94500Y983761D01*
X94403Y983706D01*
X94264Y983636D01*
X94112Y983581D01*
X93946Y983539D01*
X93751Y983525D01*
X93724D01*
X93654Y983539D01*
X93557Y983553D01*
X93419Y983581D01*
X93266Y983636D01*
X93113Y983706D01*
X92947Y983817D01*
X92795Y983955D01*
X92781Y983969D01*
X92725Y984039D01*
X92670Y984136D01*
X92586Y984260D01*
X92517Y984427D01*
X92448Y984635D01*
X92406Y984871D01*
X92392Y985134D01*
Y985148D01*
Y985162D01*
Y985245D01*
X92406Y985370D01*
X92434Y985536D01*
X92489Y985717D01*
X92559Y985897D01*
X92656Y986077D01*
X92781Y986244D01*
X92795Y986258D01*
X92850Y986313D01*
X92933Y986382D01*
X93030Y986452D01*
X93169Y986535D01*
X93322Y986590D01*
X93488Y986646D01*
X93682Y986660D01*
X93821D01*
X93918Y986646D01*
X94043Y986632D01*
X94195Y986604D01*
X94348Y986563D01*
X94528Y986521D01*
X94334Y988005D01*
X94209D01*
X94070Y988019D01*
X93904Y988033D01*
X93724Y988074D01*
X93530Y988130D01*
X93349Y988213D01*
X93183Y988324D01*
X93169Y988338D01*
X93113Y988393D01*
X93058Y988463D01*
X92975Y988574D01*
X92905Y988698D01*
X92836Y988851D01*
X92795Y989031D01*
X92781Y989239D01*
Y989267D01*
Y989323D01*
X92795Y989406D01*
X92822Y989517D01*
X92850Y989641D01*
X92905Y989766D01*
X92975Y989905D01*
X93072Y990016D01*
X93086Y990030D01*
X93127Y990058D01*
X93183Y990113D01*
X93280Y990169D01*
X93391Y990210D01*
X93516Y990266D01*
X93682Y990293D01*
X93848Y990307D01*
X93932D01*
X94015Y990293D01*
X94126Y990266D01*
X94251Y990224D01*
X94389Y990169D01*
X94528Y990085D01*
X94653Y989974D01*
X94667Y989960D01*
X94708Y989919D01*
X94764Y989836D01*
X94833Y989725D01*
X94902Y989600D01*
X94958Y989434D01*
X95013Y989239D01*
X95055Y989017D01*
X96747Y989295D01*
Y989309D01*
X96733Y989336D01*
Y989378D01*
X96719Y989447D01*
X96678Y989600D01*
X96622Y989808D01*
X96539Y990030D01*
X96456Y990266D01*
X96345Y990488D01*
X96220Y990695D01*
X96206Y990723D01*
X96151Y990779D01*
X96067Y990876D01*
X95956Y991001D01*
X95818Y991125D01*
X95651Y991264D01*
X95443Y991403D01*
X95222Y991528D01*
X95208D01*
X95194Y991542D01*
X95111Y991569D01*
X94972Y991625D01*
X94805Y991680D01*
X94597Y991736D01*
X94348Y991791D01*
X94084Y991819D01*
X93793Y991833D01*
D02*
G37*
G36*
X86706Y989295D02*
X86193D01*
X86082Y989281D01*
X85943Y989267D01*
X85791Y989253D01*
X85625Y989239D01*
X85278Y989184D01*
X84931Y989101D01*
X84598Y988976D01*
X84446Y988906D01*
X84307Y988823D01*
X84293D01*
X84279Y988795D01*
X84196Y988740D01*
X84071Y988629D01*
X83933Y988476D01*
X83766Y988296D01*
X83614Y988061D01*
X83461Y987783D01*
X83350Y987464D01*
X85084Y987145D01*
Y987159D01*
X85111Y987215D01*
X85139Y987284D01*
X85181Y987367D01*
X85236Y987478D01*
X85319Y987575D01*
X85403Y987672D01*
X85514Y987755D01*
X85527Y987769D01*
X85569Y987797D01*
X85638Y987825D01*
X85736Y987866D01*
X85860Y987908D01*
X86013Y987950D01*
X86193Y987963D01*
X86401Y987977D01*
X86526D01*
X86651Y987963D01*
X86803Y987950D01*
X86984Y987922D01*
X87150Y987894D01*
X87303Y987839D01*
X87441Y987769D01*
X87455D01*
X87469Y987741D01*
X87538Y987672D01*
X87622Y987547D01*
X87635Y987478D01*
X87649Y987395D01*
Y987381D01*
Y987367D01*
X87622Y987284D01*
X87566Y987173D01*
X87524Y987117D01*
X87469Y987062D01*
X87455Y987048D01*
X87400Y987034D01*
X87372Y987007D01*
X87317Y986993D01*
X87247Y986965D01*
X87164Y986923D01*
X87053Y986896D01*
X86942Y986854D01*
X86803Y986812D01*
X86637Y986771D01*
X86457Y986715D01*
X86249Y986660D01*
X86013Y986604D01*
X85749Y986535D01*
X85736D01*
X85680Y986521D01*
X85611Y986507D01*
X85514Y986479D01*
X85389Y986438D01*
X85250Y986410D01*
X84945Y986313D01*
X84598Y986188D01*
X84265Y986050D01*
X84099Y985966D01*
X83946Y985897D01*
X83822Y985800D01*
X83697Y985717D01*
X83669Y985689D01*
X83600Y985633D01*
X83517Y985523D01*
X83406Y985370D01*
X83295Y985176D01*
X83211Y984940D01*
X83142Y984663D01*
X83114Y984358D01*
Y984260D01*
X83128Y984191D01*
X83142Y984122D01*
X83156Y984025D01*
X83211Y983789D01*
X83308Y983539D01*
X83378Y983401D01*
X83447Y983262D01*
X83544Y983123D01*
X83655Y982985D01*
X83780Y982846D01*
X83919Y982707D01*
X83933Y982693D01*
X83960Y982680D01*
X84002Y982652D01*
X84071Y982596D01*
X84155Y982555D01*
X84251Y982499D01*
X84376Y982430D01*
X84515Y982374D01*
X84668Y982305D01*
X84848Y982250D01*
X85042Y982180D01*
X85250Y982139D01*
X85486Y982097D01*
X85736Y982056D01*
X85999Y982042D01*
X86276Y982028D01*
X86415D01*
X86512Y982042D01*
X86637D01*
X86776Y982056D01*
X86928Y982069D01*
X87095Y982097D01*
X87455Y982166D01*
X87830Y982263D01*
X88204Y982402D01*
X88371Y982499D01*
X88537Y982596D01*
X88551Y982610D01*
X88579Y982624D01*
X88620Y982652D01*
X88662Y982707D01*
X88814Y982832D01*
X88981Y983012D01*
X89161Y983234D01*
X89327Y983498D01*
X89480Y983817D01*
X89605Y984164D01*
X87760Y984441D01*
Y984413D01*
X87732Y984358D01*
X87705Y984260D01*
X87663Y984136D01*
X87594Y983997D01*
X87511Y983872D01*
X87414Y983734D01*
X87289Y983623D01*
X87275Y983609D01*
X87219Y983581D01*
X87136Y983539D01*
X87025Y983498D01*
X86887Y983442D01*
X86706Y983401D01*
X86512Y983373D01*
X86276Y983359D01*
X86165D01*
X86027Y983373D01*
X85874Y983387D01*
X85708Y983415D01*
X85527Y983470D01*
X85361Y983525D01*
X85209Y983609D01*
X85195Y983623D01*
X85167Y983650D01*
X85125Y983692D01*
X85084Y983747D01*
X85042Y983817D01*
X85000Y983900D01*
X84973Y983997D01*
X84959Y984108D01*
Y984122D01*
Y984150D01*
X84973Y984233D01*
X85014Y984344D01*
X85098Y984455D01*
X85125Y984482D01*
X85167Y984496D01*
X85222Y984538D01*
X85306Y984566D01*
X85416Y984607D01*
X85541Y984649D01*
X85708Y984690D01*
X85736D01*
X85805Y984718D01*
X85916Y984746D01*
X86068Y984774D01*
X86249Y984815D01*
X86443Y984871D01*
X86665Y984926D01*
X86900Y984996D01*
X87386Y985134D01*
X87622Y985204D01*
X87844Y985287D01*
X88052Y985356D01*
X88246Y985439D01*
X88412Y985523D01*
X88537Y985592D01*
X88551Y985606D01*
X88579Y985620D01*
X88606Y985647D01*
X88662Y985703D01*
X88800Y985828D01*
X88939Y986008D01*
X89092Y986230D01*
X89230Y986493D01*
X89286Y986646D01*
X89313Y986812D01*
X89341Y986979D01*
X89355Y987159D01*
Y987173D01*
Y987201D01*
Y987242D01*
X89341Y987312D01*
X89327Y987381D01*
X89313Y987478D01*
X89272Y987686D01*
X89189Y987922D01*
X89050Y988171D01*
X88981Y988310D01*
X88884Y988435D01*
X88773Y988560D01*
X88648Y988671D01*
X88634Y988685D01*
X88620Y988698D01*
X88579Y988726D01*
X88509Y988768D01*
X88440Y988809D01*
X88343Y988865D01*
X88232Y988920D01*
X88107Y988990D01*
X87954Y989045D01*
X87788Y989101D01*
X87608Y989156D01*
X87414Y989198D01*
X87192Y989239D01*
X86956Y989267D01*
X86706Y989295D01*
D02*
G37*
G36*
X224303Y805250D02*
X196250D01*
Y760440D01*
D01*
Y777290D01*
X212822D01*
Y760440D01*
X240875D01*
X224303D01*
Y777290D01*
X240875D01*
Y788492D01*
X224303D01*
Y805250D01*
D02*
G37*
%LPD*%
G36*
X212822Y788492D02*
X196250D01*
Y805250D01*
X212822D01*
Y788492D01*
D02*
G37*
D10*
X306415Y829666D02*
X308247Y831498D01*
X311913D01*
X313746Y829666D01*
Y822335D01*
X311913Y820502D01*
X308247D01*
X306415Y822335D01*
X302749Y820502D02*
X299084D01*
X300916D01*
Y831498D01*
X302749Y829666D01*
X288087Y820502D02*
Y831498D01*
X293585Y826000D01*
X286254D01*
X322502Y961836D02*
X333498D01*
Y967335D01*
X331665Y969167D01*
X328000D01*
X326167Y967335D01*
Y961836D01*
Y965502D02*
X322502Y969167D01*
X333498Y980164D02*
X331665Y976498D01*
X328000Y972833D01*
X324334D01*
X322502Y974665D01*
Y978331D01*
X324334Y980164D01*
X326167D01*
X328000Y978331D01*
Y972833D01*
X274498Y979164D02*
X263502D01*
Y973665D01*
X265334Y971833D01*
X269000D01*
X270833Y973665D01*
Y979164D01*
Y975498D02*
X274498Y971833D01*
X263502Y960836D02*
Y968167D01*
X269000D01*
X267167Y964502D01*
Y962669D01*
X269000Y960836D01*
X272666D01*
X274498Y962669D01*
Y966335D01*
X272666Y968167D01*
X101502Y634833D02*
Y638498D01*
Y636665D01*
X110666D01*
X112498Y638498D01*
Y640331D01*
X110666Y642164D01*
X112498Y623836D02*
Y631167D01*
X105167Y623836D01*
X103335D01*
X101502Y625669D01*
Y629334D01*
X103335Y631167D01*
X326833Y750666D02*
X328666Y752498D01*
X332331D01*
X334164Y750666D01*
Y743335D01*
X332331Y741502D01*
X328666D01*
X326833Y743335D01*
X323167D02*
X321334Y741502D01*
X317669D01*
X315836Y743335D01*
Y750666D01*
X317669Y752498D01*
X321334D01*
X323167Y750666D01*
Y748833D01*
X321334Y747000D01*
X315836D01*
M02*
