G04*
G04 #@! TF.GenerationSoftware,Altium Limited,Altium Designer,22.2.1 (43)*
G04*
G04 Layer_Color=8421504*
%FSLAX44Y44*%
%MOMM*%
G71*
G04*
G04 #@! TF.SameCoordinates,759879DA-5FB0-46B3-BA1E-0A648CFA67EC*
G04*
G04*
G04 #@! TF.FilePolarity,Positive*
G04*
G01*
G75*
%ADD13R,1.1000X0.6000*%
%ADD14R,0.6000X1.5500*%
%ADD15R,0.4000X0.7500*%
%ADD16R,0.3500X0.7500*%
%ADD17R,1.1938X0.7874*%
%ADD18R,0.3048X0.8636*%
%ADD19R,1.0000X1.0000*%
%ADD20R,1.0000X1.0000*%
%ADD21R,2.2500X1.8000*%
%ADD22R,1.1500X1.8000*%
%ADD23R,0.8000X0.8000*%
%ADD24R,0.2000X1.2500*%
%ADD25R,0.5000X1.2500*%
%ADD26R,0.8000X0.8000*%
D13*
X390500Y390500D02*
D03*
Y409500D02*
D03*
Y400000D02*
D03*
X364500Y409500D02*
D03*
Y390500D02*
D03*
Y400000D02*
D03*
X344000Y700500D02*
D03*
Y681500D02*
D03*
X370000Y700500D02*
D03*
Y681500D02*
D03*
Y691000D02*
D03*
D14*
X153450Y818000D02*
D03*
X166150D02*
D03*
X178850D02*
D03*
X191550D02*
D03*
Y872000D02*
D03*
X178850D02*
D03*
X166150D02*
D03*
X153450D02*
D03*
D15*
X526000Y879500D02*
D03*
X526000Y900500D02*
D03*
X539000D02*
D03*
Y879500D02*
D03*
D16*
X532500Y900500D02*
D03*
D17*
X432000Y852000D02*
D03*
D18*
X429500Y839300D02*
D03*
X434500D02*
D03*
X424500D02*
D03*
X439500D02*
D03*
X434500Y864700D02*
D03*
X429500D02*
D03*
X439500D02*
D03*
X424500D02*
D03*
D19*
X412000Y390500D02*
D03*
X428000D02*
D03*
X412000Y409500D02*
D03*
X428000D02*
D03*
X150000Y796000D02*
D03*
X166000D02*
D03*
X370000Y718500D02*
D03*
X354000D02*
D03*
X429460Y881000D02*
D03*
X445460D02*
D03*
X408000Y822000D02*
D03*
X392000D02*
D03*
X308000Y900000D02*
D03*
X292000D02*
D03*
X179000Y894000D02*
D03*
X195000D02*
D03*
X370000Y736000D02*
D03*
X354000D02*
D03*
X554500Y879500D02*
D03*
X570500D02*
D03*
X510500D02*
D03*
X494500D02*
D03*
X409000Y864700D02*
D03*
X393000D02*
D03*
X408000Y839300D02*
D03*
X392000D02*
D03*
D20*
X90000Y908000D02*
D03*
Y892000D02*
D03*
X120000Y908000D02*
D03*
Y892000D02*
D03*
X389500Y683000D02*
D03*
Y699000D02*
D03*
X289500D02*
D03*
Y683000D02*
D03*
X324500D02*
D03*
Y699000D02*
D03*
X407000Y683000D02*
D03*
Y699000D02*
D03*
X455000Y839300D02*
D03*
Y855300D02*
D03*
X424380Y822000D02*
D03*
Y806000D02*
D03*
X447500Y409500D02*
D03*
Y393500D02*
D03*
X132500Y872000D02*
D03*
Y856000D02*
D03*
X215000Y872000D02*
D03*
Y856000D02*
D03*
X307000Y699000D02*
D03*
Y683000D02*
D03*
X328000Y900000D02*
D03*
Y884000D02*
D03*
X272000Y900000D02*
D03*
Y884000D02*
D03*
D21*
X308700Y620000D02*
D03*
Y400000D02*
D03*
Y180000D02*
D03*
D22*
X286300Y620000D02*
D03*
Y400000D02*
D03*
Y180000D02*
D03*
D23*
X437500Y760000D02*
D03*
X422500D02*
D03*
X177500Y760000D02*
D03*
X162500D02*
D03*
D24*
X292500Y933750D02*
D03*
X317500D02*
D03*
X312500D02*
D03*
X307500D02*
D03*
X302500D02*
D03*
X297500D02*
D03*
X287500D02*
D03*
X282500D02*
D03*
D25*
X332000Y932000D02*
D03*
X324000Y933750D02*
D03*
X276000D02*
D03*
X268000Y932000D02*
D03*
D26*
X389500Y719000D02*
D03*
Y734000D02*
D03*
M02*
