M48
;Layer_Color=9474304
;FILE_FORMAT=4:4
METRIC,LZ
;TYPE=PLATED
T1F00S00C0.3000
T2F00S00C0.6096
T4F00S00C0.8000
T5F00S00C1.0500
T6F00S00C1.1000
T7F00S00C1.3500
T8F00S00C1.8000
T9F00S00C3.5000
%
T01
X0015Y00075
X003
X00325Y00275
X00175
X00075Y0035
Y002
X00525
X00475Y00275
X00525Y0035
X00412Y00372
X0045Y00075
X00478658Y00446342
X00475Y00525
X00528658Y00496342
X00325Y00525
Y0045
X00175
Y00525
X00075Y005
Y00625
X00196Y0076
X003245Y0066025
X0039Y0067
X0038Y00839
X003125Y009475
X002825
X00191Y00804
X00179
X001325Y008225
X001175Y008375
X00445Y00816
X005475Y00825
Y0084
X005625
Y00825
T02
X0040968Y0073968
X0045032Y0078032
X0019032Y0078032
X0014968Y0073968
T04
X003Y007746
X002746Y008
X003254
T05
X0055827Y0037173
X005575Y004275
X0047Y00655
X001225Y007625
T06
X0009Y00955
X0012
X0015
X0045
X0048
X0051
T07
X0005Y0093
Y0098
X0019
Y0093
X0041
Y0098
X0055
Y0093
T08
X0022Y00135
X001945Y0021
X002455
Y0059
X001945
X0022Y00665
T09
X0006Y0006
X0054Y0006
Y0076
X0006
M30
