G04*
G04 #@! TF.GenerationSoftware,Altium Limited,Altium Designer,22.2.1 (43)*
G04*
G04 Layer_Color=32896*
%FSLAX44Y44*%
%MOMM*%
G71*
G04*
G04 #@! TF.SameCoordinates,759879DA-5FB0-46B3-BA1E-0A648CFA67EC*
G04*
G04*
G04 #@! TF.FilePolarity,Positive*
G04*
G01*
G75*
%ADD10C,0.2540*%
%ADD12C,0.1000*%
%ADD67C,0.1270*%
%ADD68C,0.0500*%
%ADD69C,0.1500*%
%ADD70C,0.0508*%
%ADD71C,0.0800*%
%ADD72C,0.0200*%
%ADD73C,0.1692*%
D10*
X405870Y735870D02*
X454130D01*
Y784130D01*
X405870D02*
X454130D01*
X405870Y735870D02*
Y784130D01*
X145870Y735870D02*
X194130D01*
Y784130D01*
X145870D02*
X194130D01*
X145870Y735870D02*
Y784130D01*
X176796Y1003630D02*
X178962Y1001464D01*
X183294D01*
X185460Y1003630D01*
Y1005796D01*
X183294Y1007962D01*
X178962D01*
X176796Y1010128D01*
Y1012294D01*
X178962Y1014460D01*
X183294D01*
X185460Y1012294D01*
X172464Y1001464D02*
Y1014460D01*
X168132Y1010128D01*
X163800Y1014460D01*
Y1001464D01*
X150804Y1014460D02*
X159468D01*
X150804Y1005796D01*
Y1003630D01*
X152970Y1001464D01*
X157302D01*
X159468Y1003630D01*
X536796D02*
X538962Y1001464D01*
X543294D01*
X545460Y1003630D01*
Y1005796D01*
X543294Y1007962D01*
X538962D01*
X536796Y1010128D01*
Y1012294D01*
X538962Y1014460D01*
X543294D01*
X545460Y1012294D01*
X532464Y1001464D02*
Y1014460D01*
X528132Y1010128D01*
X523800Y1014460D01*
Y1001464D01*
X519468Y1014460D02*
X515136D01*
X517302D01*
Y1001464D01*
X519468Y1003630D01*
D12*
X457000Y668000D02*
X483000D01*
Y642000D02*
Y668000D01*
X457000Y642000D02*
X483000D01*
X457000D02*
Y668000D01*
X392500Y385000D02*
Y415000D01*
X362500D02*
X392500D01*
X362500Y385000D02*
Y415000D01*
Y385000D02*
X392500D01*
X147500Y815000D02*
X197500D01*
Y875000D01*
X147500D02*
X197500D01*
X147500Y815000D02*
Y875000D01*
X372000Y676000D02*
Y706000D01*
X342000D02*
X372000D01*
X342000Y676000D02*
Y706000D01*
Y676000D02*
X372000D01*
X543500Y877000D02*
Y901000D01*
X521500D02*
X543500D01*
X521500Y877000D02*
Y901000D01*
Y877000D02*
X543500D01*
X421840Y836760D02*
X442160D01*
X421840D02*
Y867240D01*
X442160Y836760D02*
Y867240D01*
X421840D02*
X442160D01*
X196000Y927000D02*
Y1037000D01*
X44000Y927000D02*
X196000D01*
X44000D02*
Y1037000D01*
X196000D01*
X556000Y927000D02*
Y1037000D01*
X404000Y927000D02*
X556000D01*
X404000D02*
Y1037000D01*
X556000D01*
X412000Y386250D02*
X428000D01*
X412000Y394750D02*
X428000D01*
X412000Y386250D02*
Y394750D01*
X428000Y386250D02*
Y394750D01*
X412000Y405250D02*
X428000D01*
X412000Y413750D02*
X428000D01*
X412000Y405250D02*
Y413750D01*
X428000Y405250D02*
Y413750D01*
X85750Y892000D02*
Y908000D01*
X94250Y892000D02*
Y908000D01*
X85750D02*
X94250D01*
X85750Y892000D02*
X94250D01*
X115750D02*
Y908000D01*
X124250Y892000D02*
Y908000D01*
X115750D02*
X124250D01*
X115750Y892000D02*
X124250D01*
X150000Y791750D02*
X166000D01*
X150000Y800250D02*
X166000D01*
X150000Y791750D02*
Y800250D01*
X166000Y791750D02*
Y800250D01*
X393750Y683000D02*
Y699000D01*
X385250Y683000D02*
Y699000D01*
Y683000D02*
X393750D01*
X385250Y699000D02*
X393750D01*
X285250Y683000D02*
Y699000D01*
X293750Y683000D02*
Y699000D01*
X285250D02*
X293750D01*
X285250Y683000D02*
X293750D01*
X354000Y722750D02*
X370000D01*
X354000Y714250D02*
X370000D01*
Y722750D01*
X354000Y714250D02*
Y722750D01*
X328750Y683000D02*
Y699000D01*
X320250Y683000D02*
Y699000D01*
Y683000D02*
X328750D01*
X320250Y699000D02*
X328750D01*
X411250Y683000D02*
Y699000D01*
X402750Y683000D02*
Y699000D01*
Y683000D02*
X411250D01*
X402750Y699000D02*
X411250D01*
X459250Y839300D02*
Y855300D01*
X450750Y839300D02*
Y855300D01*
Y839300D02*
X459250D01*
X450750Y855300D02*
X459250D01*
X429460Y876750D02*
X445460D01*
X429460Y885250D02*
X445460D01*
X429460Y876750D02*
Y885250D01*
X445460Y876750D02*
Y885250D01*
X420130Y806000D02*
Y822000D01*
X428630Y806000D02*
Y822000D01*
X420130D02*
X428630D01*
X420130Y806000D02*
X428630D01*
X392000Y826250D02*
X408000D01*
X392000Y817750D02*
X408000D01*
Y826250D01*
X392000Y817750D02*
Y826250D01*
X232500Y867500D02*
X367500D01*
Y732500D02*
Y867500D01*
X232500Y732500D02*
X367500D01*
X232500D02*
Y867500D01*
X109500Y775500D02*
X135500D01*
Y749500D02*
Y775500D01*
X109500Y749500D02*
X135500D01*
X109500D02*
Y775500D01*
X282750Y606000D02*
Y634000D01*
X317750Y606000D02*
Y634000D01*
X282750D02*
X317750D01*
X282750Y606000D02*
X317750D01*
X282750Y386000D02*
Y414000D01*
X317750Y386000D02*
Y414000D01*
X282750D02*
X317750D01*
X282750Y386000D02*
X317750D01*
X282750Y166000D02*
Y194000D01*
X317750Y166000D02*
Y194000D01*
X282750D02*
X317750D01*
X282750Y166000D02*
X317750D01*
X422000Y756000D02*
X438000D01*
X422000D02*
Y764000D01*
X438000D01*
Y756000D02*
Y764000D01*
X162000Y756000D02*
X178000D01*
X162000D02*
Y764000D01*
X178000D01*
Y756000D02*
Y764000D01*
X292000Y904250D02*
X308000D01*
X292000Y895750D02*
X308000D01*
Y904250D01*
X292000Y895750D02*
Y904250D01*
X385500Y718500D02*
Y734500D01*
X393500D01*
Y718500D02*
Y734500D01*
X385500Y718500D02*
X393500D01*
X384750Y717500D02*
Y735250D01*
Y717500D02*
X394500D01*
Y735250D01*
X384750D02*
X394500D01*
X443250Y393500D02*
Y409500D01*
X451750Y393500D02*
Y409500D01*
X443250D02*
X451750D01*
X443250Y393500D02*
X451750D01*
X128250Y856000D02*
Y872000D01*
X136750Y856000D02*
Y872000D01*
X128250D02*
X136750D01*
X128250Y856000D02*
X136750D01*
X179000Y889750D02*
X195000D01*
X179000Y898250D02*
X195000D01*
X179000Y889750D02*
Y898250D01*
X195000Y889750D02*
Y898250D01*
X210750Y856000D02*
Y872000D01*
X219250Y856000D02*
Y872000D01*
X210750D02*
X219250D01*
X210750Y856000D02*
X219250D01*
X354000Y740250D02*
X370000D01*
X354000Y731750D02*
X370000D01*
Y740250D01*
X354000Y731750D02*
Y740250D01*
X302750Y683000D02*
Y699000D01*
X311250Y683000D02*
Y699000D01*
X302750D02*
X311250D01*
X302750Y683000D02*
X311250D01*
X554500Y875250D02*
X570500D01*
X554500Y883750D02*
X570500D01*
X554500Y875250D02*
Y883750D01*
X570500Y875250D02*
Y883750D01*
X494500D02*
X510500D01*
X494500Y875250D02*
X510500D01*
Y883750D01*
X494500Y875250D02*
Y883750D01*
X323750Y884000D02*
Y900000D01*
X332250Y884000D02*
Y900000D01*
X323750D02*
X332250D01*
X323750Y884000D02*
X332250D01*
X267750D02*
Y900000D01*
X276250Y884000D02*
Y900000D01*
X267750D02*
X276250D01*
X267750Y884000D02*
X276250D01*
X393000Y868950D02*
X409000D01*
X393000Y860450D02*
X409000D01*
Y868950D01*
X393000Y860450D02*
Y868950D01*
X392000Y843550D02*
X408000D01*
X392000Y835050D02*
X408000D01*
Y843550D01*
X392000Y835050D02*
Y843550D01*
X545270Y384730D02*
X571270D01*
Y358730D02*
Y384730D01*
X545270Y358730D02*
X571270D01*
X545270D02*
Y384730D01*
X544500Y440500D02*
X570500D01*
Y414500D02*
Y440500D01*
X544500Y414500D02*
X570500D01*
X544500D02*
Y440500D01*
X171262Y816000D02*
X175627D01*
X176500Y816873D01*
Y818619D01*
X175627Y819492D01*
X171262D01*
X176500Y823857D02*
X171262D01*
X173881Y821238D01*
Y824731D01*
D67*
X252650Y930000D02*
Y1015000D01*
X347350Y930000D02*
Y994000D01*
X252500D02*
X347350D01*
X252650Y930000D02*
X347350D01*
Y994000D02*
Y1015000D01*
X252650D02*
X347350D01*
D68*
X459500Y666499D02*
Y665166D01*
X460166Y664500D01*
X460833Y665166D01*
Y666499D01*
X461499D02*
Y664500D01*
X462499D01*
X462832Y664833D01*
Y665166D01*
X462499Y665500D01*
X461499D01*
X462499D01*
X462832Y665833D01*
Y666166D01*
X462499Y666499D01*
X461499D01*
X463499Y664500D02*
Y665833D01*
X464165Y666499D01*
X464832Y665833D01*
Y664500D01*
Y665500D01*
X463499D01*
X465498Y666499D02*
X466831D01*
X466165D01*
Y664500D01*
X387000Y395001D02*
Y396667D01*
X386667Y397000D01*
X386000D01*
X385667Y396667D01*
Y395001D01*
X383668D02*
X385001D01*
Y396001D01*
X384334Y395667D01*
X384001D01*
X383668Y396001D01*
Y396667D01*
X384001Y397000D01*
X384668D01*
X385001Y396667D01*
X366500Y696001D02*
Y697667D01*
X366167Y698000D01*
X365500D01*
X365167Y697667D01*
Y696001D01*
X364501Y696334D02*
X364168Y696001D01*
X363501D01*
X363168Y696334D01*
Y696667D01*
X363501Y697000D01*
X363834D01*
X363501D01*
X363168Y697333D01*
Y697667D01*
X363501Y698000D01*
X364168D01*
X364501Y697667D01*
X542500Y889251D02*
Y890917D01*
X542167Y891250D01*
X541500D01*
X541167Y890917D01*
Y889251D01*
X539168Y891250D02*
X540501D01*
X539168Y889917D01*
Y889584D01*
X539501Y889251D01*
X540168D01*
X540501Y889584D01*
X430000Y391750D02*
Y389751D01*
X429000D01*
X428667Y390084D01*
Y390750D01*
X429000Y391083D01*
X430000D01*
X429333D02*
X428667Y391750D01*
X428001D02*
X427334D01*
X427667D01*
Y389751D01*
X428001Y390084D01*
X425002Y389751D02*
X425668Y390084D01*
X426334Y390750D01*
Y391417D01*
X426001Y391750D01*
X425335D01*
X425002Y391417D01*
Y391083D01*
X425335Y390750D01*
X426334D01*
X430000Y410750D02*
Y408751D01*
X429000D01*
X428667Y409084D01*
Y409750D01*
X429000Y410084D01*
X430000D01*
X429333D02*
X428667Y410750D01*
X428001D02*
X427334D01*
X427667D01*
Y408751D01*
X428001Y409084D01*
X425002Y408751D02*
X426334D01*
Y409750D01*
X425668Y409417D01*
X425335D01*
X425002Y409750D01*
Y410417D01*
X425335Y410750D01*
X426001D01*
X426334Y410417D01*
X91250Y890000D02*
X89251D01*
Y891000D01*
X89584Y891333D01*
X90250D01*
X90584Y891000D01*
Y890000D01*
Y890667D02*
X91250Y891333D01*
Y891999D02*
Y892666D01*
Y892333D01*
X89251D01*
X89584Y891999D01*
X91250Y894665D02*
X89251D01*
X90250Y893665D01*
Y894998D01*
X121250Y890000D02*
X119251D01*
Y891000D01*
X119584Y891333D01*
X120250D01*
X120584Y891000D01*
Y890000D01*
Y890667D02*
X121250Y891333D01*
Y891999D02*
Y892666D01*
Y892333D01*
X119251D01*
X119584Y891999D01*
Y893665D02*
X119251Y893999D01*
Y894665D01*
X119584Y894998D01*
X119917D01*
X120250Y894665D01*
Y894332D01*
Y894665D01*
X120584Y894998D01*
X120917D01*
X121250Y894665D01*
Y893999D01*
X120917Y893665D01*
X168000Y797250D02*
Y795251D01*
X167000D01*
X166667Y795584D01*
Y796250D01*
X167000Y796583D01*
X168000D01*
X167334D02*
X166667Y797250D01*
X166001D02*
X165334D01*
X165667D01*
Y795251D01*
X166001Y795584D01*
X163002Y797250D02*
X164335D01*
X163002Y795917D01*
Y795584D01*
X163335Y795251D01*
X164001D01*
X164335Y795584D01*
X388250Y701000D02*
X390249D01*
Y700000D01*
X389916Y699667D01*
X389250D01*
X388917Y700000D01*
Y701000D01*
Y700333D02*
X388250Y699667D01*
Y699001D02*
Y698334D01*
Y698667D01*
X390249D01*
X389916Y699001D01*
X388250Y697335D02*
Y696668D01*
Y697001D01*
X390249D01*
X389916Y697335D01*
X290750Y681000D02*
X288751D01*
Y682000D01*
X289084Y682333D01*
X289750D01*
X290084Y682000D01*
Y681000D01*
Y681666D02*
X290750Y682333D01*
Y682999D02*
Y683666D01*
Y683333D01*
X288751D01*
X289084Y682999D01*
Y684666D02*
X288751Y684999D01*
Y685665D01*
X289084Y685999D01*
X290417D01*
X290750Y685665D01*
Y684999D01*
X290417Y684666D01*
X289084D01*
X352000Y717250D02*
Y719249D01*
X353000D01*
X353333Y718916D01*
Y718250D01*
X353000Y717916D01*
X352000D01*
X352667D02*
X353333Y717250D01*
X353999Y717583D02*
X354333Y717250D01*
X354999D01*
X355332Y717583D01*
Y718916D01*
X354999Y719249D01*
X354333D01*
X353999Y718916D01*
Y718583D01*
X354333Y718250D01*
X355332D01*
X323250Y701000D02*
X325249D01*
Y700000D01*
X324916Y699667D01*
X324250D01*
X323917Y700000D01*
Y701000D01*
Y700333D02*
X323250Y699667D01*
X324916Y699001D02*
X325249Y698667D01*
Y698001D01*
X324916Y697668D01*
X324583D01*
X324250Y698001D01*
X323917Y697668D01*
X323583D01*
X323250Y698001D01*
Y698667D01*
X323583Y699001D01*
X323917D01*
X324250Y698667D01*
X324583Y699001D01*
X324916D01*
X324250Y698667D02*
Y698001D01*
X405750Y701000D02*
X407749D01*
Y700000D01*
X407416Y699667D01*
X406750D01*
X406417Y700000D01*
Y701000D01*
Y700333D02*
X405750Y699667D01*
X407749Y699001D02*
Y697668D01*
X407416D01*
X406083Y699001D01*
X405750D01*
X453750Y857300D02*
X455749D01*
Y856300D01*
X455416Y855967D01*
X454750D01*
X454417Y856300D01*
Y857300D01*
Y856634D02*
X453750Y855967D01*
Y854301D02*
X455749D01*
X454750Y855301D01*
Y853968D01*
X447460Y882250D02*
Y880251D01*
X446460D01*
X446127Y880584D01*
Y881250D01*
X446460Y881583D01*
X447460D01*
X446794D02*
X446127Y882250D01*
X445461Y880584D02*
X445127Y880251D01*
X444461D01*
X444128Y880584D01*
Y880917D01*
X444461Y881250D01*
X444794D01*
X444461D01*
X444128Y881583D01*
Y881917D01*
X444461Y882250D01*
X445127D01*
X445461Y881917D01*
X425630Y804000D02*
X423631D01*
Y805000D01*
X423964Y805333D01*
X424630D01*
X424964Y805000D01*
Y804000D01*
Y804667D02*
X425630Y805333D01*
Y807332D02*
Y805999D01*
X424297Y807332D01*
X423964D01*
X423631Y806999D01*
Y806333D01*
X423964Y805999D01*
X390000Y820750D02*
Y822749D01*
X391000D01*
X391333Y822416D01*
Y821750D01*
X391000Y821416D01*
X390000D01*
X390666D02*
X391333Y820750D01*
X391999D02*
X392666D01*
X392332D01*
Y822749D01*
X391999Y822416D01*
X112000Y772000D02*
Y773999D01*
X113000D01*
X113333Y773666D01*
Y773000D01*
X113000Y772666D01*
X112000D01*
X113999Y773999D02*
X114666D01*
X114333D01*
Y772000D01*
X113999D01*
X114666D01*
X115666D02*
Y773999D01*
X116665D01*
X116998Y773666D01*
Y773000D01*
X116665Y772666D01*
X115666D01*
X116332D02*
X116998Y772000D01*
X290000Y900749D02*
Y898750D01*
X291333D01*
X291999D02*
X292666D01*
X292333D01*
Y900749D01*
X291999Y900416D01*
X447084Y392833D02*
X446751Y392500D01*
Y391833D01*
X447084Y391500D01*
X448417D01*
X448750Y391833D01*
Y392500D01*
X448417Y392833D01*
X448750Y393499D02*
Y394166D01*
Y393833D01*
X446751D01*
X447084Y393499D01*
Y395165D02*
X446751Y395499D01*
Y396165D01*
X447084Y396498D01*
X447417D01*
X447750Y396165D01*
Y395832D01*
Y396165D01*
X448084Y396498D01*
X448417D01*
X448750Y396165D01*
Y395499D01*
X448417Y395165D01*
X132084Y855333D02*
X131751Y855000D01*
Y854333D01*
X132084Y854000D01*
X133417D01*
X133750Y854333D01*
Y855000D01*
X133417Y855333D01*
X133750Y855999D02*
Y856666D01*
Y856333D01*
X131751D01*
X132084Y855999D01*
X133750Y858998D02*
Y857665D01*
X132417Y858998D01*
X132084D01*
X131751Y858665D01*
Y857999D01*
X132084Y857665D01*
X195667Y893584D02*
X196000Y893251D01*
X196667D01*
X197000Y893584D01*
Y894917D01*
X196667Y895250D01*
X196000D01*
X195667Y894917D01*
X195001Y895250D02*
X194334D01*
X194667D01*
Y893251D01*
X195001Y893584D01*
X193335Y895250D02*
X192668D01*
X193001D01*
Y893251D01*
X193335Y893584D01*
X214584Y855333D02*
X214251Y855000D01*
Y854333D01*
X214584Y854000D01*
X215917D01*
X216250Y854333D01*
Y855000D01*
X215917Y855333D01*
X216250Y855999D02*
Y856666D01*
Y856333D01*
X214251D01*
X214584Y855999D01*
Y857665D02*
X214251Y857999D01*
Y858665D01*
X214584Y858998D01*
X215917D01*
X216250Y858665D01*
Y857999D01*
X215917Y857665D01*
X214584D01*
X353333Y736416D02*
X353000Y736749D01*
X352333D01*
X352000Y736416D01*
Y735083D01*
X352333Y734750D01*
X353000D01*
X353333Y735083D01*
X353999Y736416D02*
X354333Y736749D01*
X354999D01*
X355332Y736416D01*
Y736083D01*
X354999Y735750D01*
X355332Y735416D01*
Y735083D01*
X354999Y734750D01*
X354333D01*
X353999Y735083D01*
Y735416D01*
X354333Y735750D01*
X353999Y736083D01*
Y736416D01*
X354333Y735750D02*
X354999D01*
X306584Y682333D02*
X306251Y682000D01*
Y681333D01*
X306584Y681000D01*
X307917D01*
X308250Y681333D01*
Y682000D01*
X307917Y682333D01*
X306251Y682999D02*
Y684332D01*
X306584D01*
X307917Y682999D01*
X308250D01*
X571167Y879084D02*
X571500Y878751D01*
X572167D01*
X572500Y879084D01*
Y880417D01*
X572167Y880750D01*
X571500D01*
X571167Y880417D01*
X569168Y878751D02*
X569834Y879084D01*
X570501Y879750D01*
Y880417D01*
X570167Y880750D01*
X569501D01*
X569168Y880417D01*
Y880083D01*
X569501Y879750D01*
X570501D01*
X493833Y879916D02*
X493500Y880249D01*
X492833D01*
X492500Y879916D01*
Y878583D01*
X492833Y878250D01*
X493500D01*
X493833Y878583D01*
X495832Y880249D02*
X494499D01*
Y879250D01*
X495166Y879583D01*
X495499D01*
X495832Y879250D01*
Y878583D01*
X495499Y878250D01*
X494833D01*
X494499Y878583D01*
X327584Y883333D02*
X327251Y883000D01*
Y882333D01*
X327584Y882000D01*
X328917D01*
X329250Y882333D01*
Y883000D01*
X328917Y883333D01*
X329250Y884999D02*
X327251D01*
X328250Y883999D01*
Y885332D01*
X271584Y883333D02*
X271251Y883000D01*
Y882333D01*
X271584Y882000D01*
X272917D01*
X273250Y882333D01*
Y883000D01*
X272917Y883333D01*
X271584Y883999D02*
X271251Y884333D01*
Y884999D01*
X271584Y885332D01*
X271917D01*
X272250Y884999D01*
Y884666D01*
Y884999D01*
X272584Y885332D01*
X272917D01*
X273250Y884999D01*
Y884333D01*
X272917Y883999D01*
X392333Y865116D02*
X392000Y865449D01*
X391333D01*
X391000Y865116D01*
Y863783D01*
X391333Y863450D01*
X392000D01*
X392333Y863783D01*
X394332Y863450D02*
X392999D01*
X394332Y864783D01*
Y865116D01*
X393999Y865449D01*
X393332D01*
X392999Y865116D01*
X391333Y839716D02*
X391000Y840049D01*
X390333D01*
X390000Y839716D01*
Y838383D01*
X390333Y838050D01*
X391000D01*
X391333Y838383D01*
X391999Y838050D02*
X392666D01*
X392332D01*
Y840049D01*
X391999Y839716D01*
X549103Y383229D02*
X547770D01*
Y382230D01*
X548436Y382563D01*
X548770D01*
X549103Y382230D01*
Y381563D01*
X548770Y381230D01*
X548103D01*
X547770Y381563D01*
X551102Y383229D02*
X549769D01*
Y382230D01*
X550436Y382563D01*
X550769D01*
X551102Y382230D01*
Y381563D01*
X550769Y381230D01*
X550103D01*
X549769Y381563D01*
X553102Y383229D02*
X551769D01*
Y382230D01*
X552435Y382563D01*
X552768D01*
X553102Y382230D01*
Y381563D01*
X552768Y381230D01*
X552102D01*
X551769Y381563D01*
X556767Y383229D02*
X556101D01*
X555767Y382896D01*
Y381563D01*
X556101Y381230D01*
X556767D01*
X557100Y381563D01*
Y382896D01*
X556767Y383229D01*
X557767D02*
Y381563D01*
X558100Y381230D01*
X558766D01*
X559100Y381563D01*
Y383229D01*
X559766D02*
X561099D01*
X560433D01*
Y381230D01*
X547000Y438666D02*
X547333Y438999D01*
X548000D01*
X548333Y438666D01*
Y438333D01*
X548000Y438000D01*
X547666D01*
X548000D01*
X548333Y437666D01*
Y437333D01*
X548000Y437000D01*
X547333D01*
X547000Y437333D01*
X548999Y438999D02*
Y437666D01*
X549666Y437000D01*
X550332Y437666D01*
Y438999D01*
X550999Y438666D02*
X551332Y438999D01*
X551998D01*
X552332Y438666D01*
Y438333D01*
X551998Y438000D01*
X551665D01*
X551998D01*
X552332Y437666D01*
Y437333D01*
X551998Y437000D01*
X551332D01*
X550999Y437333D01*
D69*
X251500Y809000D02*
Y818997D01*
X256498D01*
X258165Y817331D01*
Y813998D01*
X256498Y812332D01*
X251500D01*
X261497Y818997D02*
X264829D01*
X263163D01*
Y809000D01*
X261497D01*
X264829D01*
X269827D02*
Y818997D01*
X274826D01*
X276492Y817331D01*
Y813998D01*
X274826Y812332D01*
X269827D01*
X273160D02*
X276492Y809000D01*
X279824D02*
X283156D01*
X281490D01*
Y818997D01*
X279824Y817331D01*
D70*
X416538Y756697D02*
Y754158D01*
X418231D01*
X419077D02*
Y756697D01*
X420347D01*
X420770Y756274D01*
Y755428D01*
X420347Y755004D01*
X419077D01*
X423309Y754158D02*
X421616D01*
X423309Y755851D01*
Y756274D01*
X422886Y756697D01*
X422040D01*
X421616Y756274D01*
X156538Y756697D02*
Y754158D01*
X158231D01*
X159077D02*
Y756697D01*
X160347D01*
X160770Y756274D01*
Y755428D01*
X160347Y755004D01*
X159077D01*
X161616Y754158D02*
X162463D01*
X162040D01*
Y756697D01*
X161616Y756274D01*
D71*
X313950Y618701D02*
Y621700D01*
X311951D01*
X308952Y618701D02*
X310951D01*
Y621700D01*
X308952D01*
X310951Y620200D02*
X309951D01*
X307952Y618701D02*
Y621700D01*
X306452D01*
X305953Y621200D01*
Y619201D01*
X306452Y618701D01*
X307952D01*
X302953D02*
X304953D01*
Y620200D01*
X303953Y619701D01*
X303453D01*
X302953Y620200D01*
Y621200D01*
X303453Y621700D01*
X304453D01*
X304953Y621200D01*
X313950Y398701D02*
Y401700D01*
X311951D01*
X308952Y398701D02*
X310951D01*
Y401700D01*
X308952D01*
X310951Y400200D02*
X309951D01*
X307952Y398701D02*
Y401700D01*
X306452D01*
X305953Y401200D01*
Y399201D01*
X306452Y398701D01*
X307952D01*
X303453Y401700D02*
Y398701D01*
X304953Y400200D01*
X302953D01*
X313950Y178701D02*
Y181700D01*
X311951D01*
X308952Y178701D02*
X310951D01*
Y181700D01*
X308952D01*
X310951Y180200D02*
X309951D01*
X307952Y178701D02*
Y181700D01*
X306452D01*
X305953Y181200D01*
Y179201D01*
X306452Y178701D01*
X307952D01*
X304953Y179201D02*
X304453Y178701D01*
X303453D01*
X302953Y179201D01*
Y179701D01*
X303453Y180200D01*
X303953D01*
X303453D01*
X302953Y180700D01*
Y181200D01*
X303453Y181700D01*
X304453D01*
X304953Y181200D01*
D72*
X434800Y759800D02*
Y760800D01*
X434133D01*
X433134Y759800D02*
X433800D01*
Y760800D01*
X433134D01*
X433800Y760300D02*
X433467D01*
X432801Y759800D02*
Y760800D01*
X432301D01*
X432134Y760633D01*
Y759967D01*
X432301Y759800D01*
X432801D01*
X431134Y760800D02*
X431801D01*
X431134Y760134D01*
Y759967D01*
X431301Y759800D01*
X431634D01*
X431801Y759967D01*
X174800Y759800D02*
Y760800D01*
X174133D01*
X173134Y759800D02*
X173800D01*
Y760800D01*
X173134D01*
X173800Y760300D02*
X173467D01*
X172801Y759800D02*
Y760800D01*
X172301D01*
X172134Y760633D01*
Y759967D01*
X172301Y759800D01*
X172801D01*
X171801Y760800D02*
X171468D01*
X171634D01*
Y759800D01*
X171801Y759967D01*
X389300Y721700D02*
X390300D01*
Y722200D01*
X390133Y722367D01*
X389467D01*
X389300Y722200D01*
Y721700D01*
X390300Y722700D02*
Y723033D01*
Y722866D01*
X389300D01*
X389467Y722700D01*
D73*
X330000Y990000D02*
Y981875D01*
X325937D01*
X324583Y983229D01*
Y985937D01*
X325937Y987291D01*
X330000D01*
X316458Y983229D02*
X317812Y981875D01*
X320520D01*
X321875Y983229D01*
Y988646D01*
X320520Y990000D01*
X317812D01*
X316458Y988646D01*
X313749Y981875D02*
Y990000D01*
X309687D01*
X308332Y988646D01*
Y987291D01*
X309687Y985937D01*
X313749D01*
X309687D01*
X308332Y984583D01*
Y983229D01*
X309687Y981875D01*
X313749D01*
X292082D02*
X297498D01*
Y990000D01*
X292082D01*
X297498Y985937D02*
X294790D01*
X283956Y981875D02*
Y990000D01*
X288019D01*
X289373Y988646D01*
Y985937D01*
X288019Y984583D01*
X283956D01*
X278539Y992708D02*
X277185D01*
X275831Y991354D01*
Y984583D01*
X279893D01*
X281248Y985937D01*
Y988646D01*
X279893Y990000D01*
X275831D01*
X269060D02*
X271768D01*
X273122Y988646D01*
Y985937D01*
X271768Y984583D01*
X269060D01*
X267705Y985937D01*
Y987291D01*
X273122D01*
M02*
