G04*
G04 #@! TF.GenerationSoftware,Altium Limited,Altium Designer,22.2.1 (43)*
G04*
G04 Layer_Physical_Order=2*
G04 Layer_Color=16711680*
%FSLAX44Y44*%
%MOMM*%
G71*
G04*
G04 #@! TF.SameCoordinates,759879DA-5FB0-46B3-BA1E-0A648CFA67EC*
G04*
G04*
G04 #@! TF.FilePolarity,Positive*
G04*
G01*
G75*
%ADD10C,0.2540*%
%ADD11C,0.3000*%
%ADD20R,1.0000X1.0000*%
%ADD51C,0.5000*%
%ADD52C,1.0000*%
%ADD53C,0.8000*%
%ADD55C,0.4000*%
%ADD56C,1.6000*%
%ADD57C,2.2000*%
%ADD58R,1.8000X1.8000*%
%ADD59C,1.8000*%
%ADD60C,1.5000*%
%ADD61C,6.0000*%
%ADD62C,0.6096*%
%ADD63C,3.0000*%
%ADD64O,1.0500X2.0500*%
%ADD65C,0.8500*%
%ADD66C,0.7000*%
G36*
X580000Y997961D02*
X581769D01*
X585239Y997271D01*
X588508Y995917D01*
X591449Y993951D01*
X593951Y991449D01*
X595917Y988508D01*
X597271Y985239D01*
X597961Y981769D01*
X597961Y980000D01*
X597961Y20000D01*
X597961Y18231D01*
X597271Y14761D01*
X595917Y11492D01*
X593951Y8551D01*
X591449Y6049D01*
X588508Y4083D01*
X585239Y2729D01*
X581769Y2039D01*
X18231D01*
X14761Y2729D01*
X11492Y4083D01*
X8551Y6049D01*
X6049Y8551D01*
X4083Y11492D01*
X2729Y14761D01*
X2039Y18231D01*
Y20000D01*
Y980000D01*
Y981769D01*
X2729Y985239D01*
X4083Y988508D01*
X6049Y991449D01*
X8551Y993951D01*
X11492Y995917D01*
X14761Y997271D01*
X18231Y997961D01*
X20000Y997961D01*
X580000Y997961D01*
D02*
G37*
%LPC*%
G36*
X346735Y996493D02*
Y985635D01*
X352676D01*
Y990000D01*
X352452Y991702D01*
X351795Y993288D01*
X350750Y994650D01*
X349388Y995695D01*
X347802Y996352D01*
X346735Y996493D01*
D02*
G37*
G36*
X254535D02*
Y985635D01*
X260476D01*
Y990000D01*
X260252Y991702D01*
X259595Y993288D01*
X258550Y994650D01*
X257188Y995695D01*
X255602Y996352D01*
X254535Y996493D01*
D02*
G37*
G36*
X345465D02*
X344398Y996352D01*
X342812Y995695D01*
X341450Y994650D01*
X340405Y993288D01*
X339748Y991702D01*
X339524Y990000D01*
Y985635D01*
X345465D01*
Y996493D01*
D02*
G37*
G36*
X253265D02*
X252198Y996352D01*
X250612Y995695D01*
X249250Y994650D01*
X248205Y993288D01*
X247548Y991702D01*
X247324Y990000D01*
Y985635D01*
X253265D01*
Y996493D01*
D02*
G37*
G36*
X551615Y992270D02*
X550635D01*
Y980635D01*
X562270D01*
Y981615D01*
X561434Y984736D01*
X559818Y987534D01*
X557534Y989818D01*
X554736Y991434D01*
X551615Y992270D01*
D02*
G37*
G36*
X549365D02*
X548385D01*
X545264Y991434D01*
X542466Y989818D01*
X540182Y987534D01*
X538566Y984736D01*
X537730Y981615D01*
Y980635D01*
X549365D01*
Y992270D01*
D02*
G37*
G36*
X191615D02*
X190635D01*
Y980635D01*
X202270D01*
Y981615D01*
X201434Y984736D01*
X199818Y987534D01*
X197534Y989818D01*
X194736Y991434D01*
X191615Y992270D01*
D02*
G37*
G36*
X189365D02*
X188385D01*
X185264Y991434D01*
X182466Y989818D01*
X180182Y987534D01*
X178566Y984736D01*
X177730Y981615D01*
Y980635D01*
X189365D01*
Y992270D01*
D02*
G37*
G36*
X411615D02*
X410635D01*
Y980635D01*
X422270D01*
Y981615D01*
X421434Y984736D01*
X419818Y987534D01*
X417534Y989818D01*
X414736Y991434D01*
X411615Y992270D01*
D02*
G37*
G36*
X51615D02*
X50635D01*
Y980635D01*
X62270D01*
Y981615D01*
X61434Y984736D01*
X59818Y987534D01*
X57534Y989818D01*
X54736Y991434D01*
X51615Y992270D01*
D02*
G37*
G36*
X409365D02*
X408385D01*
X405264Y991434D01*
X402466Y989818D01*
X400182Y987534D01*
X398566Y984736D01*
X397730Y981615D01*
Y980635D01*
X409365D01*
Y992270D01*
D02*
G37*
G36*
X49365D02*
X48385D01*
X45264Y991434D01*
X42466Y989818D01*
X40181Y987534D01*
X38566Y984736D01*
X37730Y981615D01*
Y980635D01*
X49365D01*
Y992270D01*
D02*
G37*
G36*
X318782Y984270D02*
X313147D01*
Y978635D01*
X318782D01*
Y984270D01*
D02*
G37*
G36*
X288779D02*
X283144D01*
Y978635D01*
X288779D01*
Y984270D01*
D02*
G37*
G36*
X311877D02*
X306242D01*
Y978635D01*
X311877D01*
Y984270D01*
D02*
G37*
G36*
X281874D02*
X276239D01*
Y978635D01*
X281874D01*
Y984270D01*
D02*
G37*
G36*
X345465Y984365D02*
X339524D01*
Y980000D01*
X339748Y978298D01*
X340405Y976712D01*
X341450Y975350D01*
X342812Y974305D01*
X344398Y973648D01*
X345465Y973507D01*
Y984365D01*
D02*
G37*
G36*
X253265D02*
X247324D01*
Y980000D01*
X247548Y978298D01*
X248205Y976712D01*
X249250Y975350D01*
X250612Y974305D01*
X252198Y973648D01*
X253265Y973507D01*
Y984365D01*
D02*
G37*
G36*
X352676D02*
X346735D01*
Y973507D01*
X347802Y973648D01*
X349388Y974305D01*
X350750Y975350D01*
X351795Y976712D01*
X352452Y978298D01*
X352676Y980000D01*
Y984365D01*
D02*
G37*
G36*
X260476D02*
X254535D01*
Y973507D01*
X255602Y973648D01*
X257188Y974305D01*
X258550Y975350D01*
X259595Y976712D01*
X260252Y978298D01*
X260476Y980000D01*
Y984365D01*
D02*
G37*
G36*
X318782Y977365D02*
X313147D01*
Y971730D01*
X318782D01*
Y977365D01*
D02*
G37*
G36*
X311877D02*
X306242D01*
Y971730D01*
X311877D01*
Y977365D01*
D02*
G37*
G36*
X288779D02*
X283144D01*
Y971730D01*
X288779D01*
Y977365D01*
D02*
G37*
G36*
X281874D02*
X276239D01*
Y971730D01*
X281874D01*
Y977365D01*
D02*
G37*
G36*
X562270Y979365D02*
X550635D01*
Y967730D01*
X551615D01*
X554736Y968566D01*
X557534Y970182D01*
X559818Y972466D01*
X561434Y975264D01*
X562270Y978385D01*
Y979365D01*
D02*
G37*
G36*
X549365D02*
X537730D01*
Y978385D01*
X538566Y975264D01*
X540182Y972466D01*
X542466Y970182D01*
X545264Y968566D01*
X548385Y967730D01*
X549365D01*
Y979365D01*
D02*
G37*
G36*
X422270Y979365D02*
X410635D01*
Y967730D01*
X411615D01*
X414736Y968566D01*
X417534Y970182D01*
X419818Y972466D01*
X421434Y975264D01*
X422270Y978385D01*
Y979365D01*
D02*
G37*
G36*
X409365D02*
X397730D01*
Y978385D01*
X398566Y975264D01*
X400182Y972466D01*
X402466Y970182D01*
X405264Y968566D01*
X408385Y967730D01*
X409365D01*
Y979365D01*
D02*
G37*
G36*
X202270Y979365D02*
X190635D01*
Y967730D01*
X191615D01*
X194736Y968566D01*
X197534Y970182D01*
X199818Y972466D01*
X201434Y975264D01*
X202270Y978385D01*
Y979365D01*
D02*
G37*
G36*
X189365D02*
X177730D01*
Y978385D01*
X178566Y975264D01*
X180182Y972466D01*
X182466Y970182D01*
X185264Y968566D01*
X188385Y967730D01*
X189365D01*
Y979365D01*
D02*
G37*
G36*
X62270Y979365D02*
X50635D01*
Y967730D01*
X51615D01*
X54736Y968566D01*
X57534Y970182D01*
X59818Y972466D01*
X61434Y975264D01*
X62270Y978385D01*
Y979365D01*
D02*
G37*
G36*
X49365D02*
X37730D01*
Y978385D01*
X38566Y975264D01*
X40181Y972466D01*
X42466Y970182D01*
X45264Y968566D01*
X48385Y967730D01*
X49365D01*
Y979365D01*
D02*
G37*
G36*
X451352Y965270D02*
X448648D01*
X446036Y964570D01*
X443694Y963218D01*
X441782Y961306D01*
X440707Y959444D01*
X440666Y959382D01*
X440540Y959218D01*
X439398Y958881D01*
X439174Y958863D01*
X439082Y958838D01*
X438994Y958875D01*
X435000D01*
X434028Y958472D01*
X433625Y957500D01*
Y902000D01*
X434028Y901028D01*
X435000Y900625D01*
X452625D01*
Y875000D01*
X453028Y874028D01*
X454000Y873625D01*
X464625D01*
Y669569D01*
X416431Y621375D01*
X251375D01*
Y670000D01*
X251375Y670000D01*
X250972Y670972D01*
X250972Y670972D01*
X234972Y686972D01*
X234000Y687375D01*
X234000Y687375D01*
X173000Y687375D01*
X172028Y686972D01*
X171625Y686000D01*
Y568000D01*
X172028Y567028D01*
X173000Y566625D01*
X488000D01*
X488972Y567028D01*
X489375Y568000D01*
Y919000D01*
X488972Y919972D01*
X488000Y920375D01*
X467375D01*
Y957500D01*
X466972Y958472D01*
X466000Y958875D01*
X461006D01*
X460918Y958838D01*
X460826Y958863D01*
X459661Y958957D01*
X459313Y959410D01*
X458218Y961306D01*
X456306Y963218D01*
X453964Y964570D01*
X451352Y965270D01*
D02*
G37*
G36*
X267894Y952390D02*
X266106D01*
X264379Y951927D01*
X262831Y951033D01*
X261567Y949769D01*
X260862Y948549D01*
X260141Y948400D01*
X259883Y948399D01*
X259433Y948500D01*
X258550Y949650D01*
X257188Y950695D01*
X255602Y951352D01*
X254535Y951493D01*
Y940635D01*
X260476D01*
Y940788D01*
X261012Y941104D01*
X261746Y941251D01*
X262831Y940167D01*
X264379Y939273D01*
X266106Y938810D01*
X267894D01*
X269621Y939273D01*
X271169Y940167D01*
X272433Y941431D01*
X273327Y942979D01*
X273790Y944706D01*
Y946494D01*
X273327Y948221D01*
X272433Y949769D01*
X271169Y951033D01*
X269621Y951927D01*
X267894Y952390D01*
D02*
G37*
G36*
X520270Y965270D02*
X499730D01*
Y944730D01*
X520270D01*
Y965270D01*
D02*
G37*
G36*
X481352D02*
X478648D01*
X476036Y964570D01*
X473694Y963218D01*
X471782Y961306D01*
X470430Y958964D01*
X469730Y956352D01*
Y953648D01*
X470430Y951036D01*
X471782Y948694D01*
X473694Y946782D01*
X476036Y945430D01*
X478648Y944730D01*
X481352D01*
X483964Y945430D01*
X486306Y946782D01*
X488218Y948694D01*
X489570Y951036D01*
X490270Y953648D01*
Y956352D01*
X489570Y958964D01*
X488218Y961306D01*
X486306Y963218D01*
X483964Y964570D01*
X481352Y965270D01*
D02*
G37*
G36*
X121352D02*
X118648D01*
X116036Y964570D01*
X113694Y963218D01*
X111782Y961306D01*
X110430Y958964D01*
X109730Y956352D01*
Y953648D01*
X110430Y951036D01*
X111782Y948694D01*
X113694Y946782D01*
X116036Y945430D01*
X118648Y944730D01*
X121352D01*
X123964Y945430D01*
X126306Y946782D01*
X128218Y948694D01*
X129570Y951036D01*
X130270Y953648D01*
Y956352D01*
X129570Y958964D01*
X128218Y961306D01*
X126306Y963218D01*
X123964Y964570D01*
X121352Y965270D01*
D02*
G37*
G36*
X91352D02*
X88648D01*
X86036Y964570D01*
X83694Y963218D01*
X81782Y961306D01*
X80430Y958964D01*
X79730Y956352D01*
Y953648D01*
X80430Y951036D01*
X81782Y948694D01*
X83694Y946782D01*
X86036Y945430D01*
X88648Y944730D01*
X91352D01*
X93964Y945430D01*
X96306Y946782D01*
X98218Y948694D01*
X99570Y951036D01*
X100270Y953648D01*
Y956352D01*
X99570Y958964D01*
X98218Y961306D01*
X96306Y963218D01*
X93964Y964570D01*
X91352Y965270D01*
D02*
G37*
G36*
X318782Y968270D02*
X306242D01*
Y955730D01*
X309166D01*
Y950912D01*
X308456Y950202D01*
X307730Y948449D01*
Y946551D01*
X308456Y944798D01*
X309798Y943456D01*
X311551Y942730D01*
X313449D01*
X315202Y943456D01*
X316544Y944798D01*
X317270Y946551D01*
Y948449D01*
X316544Y950202D01*
X315834Y950912D01*
Y955730D01*
X318782D01*
Y968270D01*
D02*
G37*
G36*
X288779D02*
X276239D01*
Y955730D01*
X279166D01*
Y950912D01*
X278456Y950202D01*
X277730Y948449D01*
Y946551D01*
X278456Y944798D01*
X279798Y943456D01*
X281551Y942730D01*
X283449D01*
X285202Y943456D01*
X286544Y944798D01*
X287270Y946551D01*
Y948449D01*
X286544Y950202D01*
X285834Y950912D01*
Y955730D01*
X288779D01*
Y968270D01*
D02*
G37*
G36*
X346735Y951493D02*
Y940635D01*
X352676D01*
Y945000D01*
X352452Y946702D01*
X351795Y948288D01*
X350750Y949650D01*
X349388Y950695D01*
X347802Y951352D01*
X346735Y951493D01*
D02*
G37*
G36*
X333894Y952390D02*
X332106D01*
X330379Y951927D01*
X328831Y951033D01*
X327567Y949769D01*
X326673Y948221D01*
X326210Y946494D01*
Y944706D01*
X326673Y942979D01*
X327567Y941431D01*
X328831Y940167D01*
X330379Y939273D01*
X332106Y938810D01*
X333894D01*
X335621Y939273D01*
X337169Y940167D01*
X338254Y941251D01*
X338988Y941104D01*
X339524Y940788D01*
Y940635D01*
X345465D01*
Y951493D01*
X344398Y951352D01*
X342812Y950695D01*
X341450Y949650D01*
X340567Y948500D01*
X340117Y948399D01*
X339859Y948400D01*
X339138Y948549D01*
X338433Y949769D01*
X337169Y951033D01*
X335621Y951927D01*
X333894Y952390D01*
D02*
G37*
G36*
X253265Y951493D02*
X252198Y951352D01*
X250612Y950695D01*
X249250Y949650D01*
X248205Y948288D01*
X247548Y946702D01*
X247324Y945000D01*
Y940635D01*
X253265D01*
Y951493D01*
D02*
G37*
G36*
X551615Y942270D02*
X550635D01*
Y930635D01*
X562270D01*
Y931615D01*
X561434Y934736D01*
X559818Y937534D01*
X557534Y939818D01*
X554736Y941434D01*
X551615Y942270D01*
D02*
G37*
G36*
X549365D02*
X548385D01*
X545264Y941434D01*
X542466Y939818D01*
X540182Y937534D01*
X538566Y934736D01*
X537730Y931615D01*
Y930635D01*
X549365D01*
Y942270D01*
D02*
G37*
G36*
X191615D02*
X190635D01*
Y930635D01*
X202270D01*
Y931615D01*
X201434Y934736D01*
X199818Y937534D01*
X197534Y939818D01*
X194736Y941434D01*
X191615Y942270D01*
D02*
G37*
G36*
X189365D02*
X188385D01*
X185264Y941434D01*
X182466Y939818D01*
X180182Y937534D01*
X178566Y934736D01*
X177730Y931615D01*
Y930635D01*
X189365D01*
Y942270D01*
D02*
G37*
G36*
X411615D02*
X410635D01*
Y930635D01*
X422270D01*
Y931615D01*
X421434Y934736D01*
X419818Y937534D01*
X417534Y939818D01*
X414736Y941434D01*
X411615Y942270D01*
D02*
G37*
G36*
X51615D02*
X50635D01*
Y930635D01*
X62270D01*
Y931615D01*
X61434Y934736D01*
X59818Y937534D01*
X57534Y939818D01*
X54736Y941434D01*
X51615Y942270D01*
D02*
G37*
G36*
X409365D02*
X408385D01*
X405264Y941434D01*
X402466Y939818D01*
X400182Y937534D01*
X398566Y934736D01*
X397730Y931615D01*
Y930635D01*
X409365D01*
Y942270D01*
D02*
G37*
G36*
X49365D02*
X48385D01*
X45264Y941434D01*
X42466Y939818D01*
X40181Y937534D01*
X38566Y934736D01*
X37730Y931615D01*
Y930635D01*
X49365D01*
Y942270D01*
D02*
G37*
G36*
X352676Y939365D02*
X346735D01*
Y928507D01*
X347802Y928648D01*
X349388Y929305D01*
X350750Y930350D01*
X351795Y931712D01*
X352452Y933298D01*
X352676Y935000D01*
Y939365D01*
D02*
G37*
G36*
X260476D02*
X254535D01*
Y928507D01*
X255602Y928648D01*
X257188Y929305D01*
X258550Y930350D01*
X259595Y931712D01*
X260252Y933298D01*
X260476Y935000D01*
Y939365D01*
D02*
G37*
G36*
X345465D02*
X339524D01*
Y935000D01*
X339748Y933298D01*
X340405Y931712D01*
X341450Y930350D01*
X342812Y929305D01*
X344398Y928648D01*
X345465Y928507D01*
Y939365D01*
D02*
G37*
G36*
X253265D02*
X247324D01*
Y935000D01*
X247548Y933298D01*
X248205Y931712D01*
X249250Y930350D01*
X250612Y929305D01*
X252198Y928648D01*
X253265Y928507D01*
Y939365D01*
D02*
G37*
G36*
X562270Y929365D02*
X550635D01*
Y917730D01*
X551615D01*
X554736Y918566D01*
X557534Y920182D01*
X559818Y922466D01*
X561434Y925264D01*
X562270Y928385D01*
Y929365D01*
D02*
G37*
G36*
X549365D02*
X537730D01*
Y928385D01*
X538566Y925264D01*
X540182Y922466D01*
X542466Y920182D01*
X545264Y918566D01*
X548385Y917730D01*
X549365D01*
Y929365D01*
D02*
G37*
G36*
X422270Y929365D02*
X410635D01*
Y917730D01*
X411615D01*
X414736Y918566D01*
X417534Y920182D01*
X419818Y922466D01*
X421434Y925264D01*
X422270Y928385D01*
Y929365D01*
D02*
G37*
G36*
X409365D02*
X397730D01*
Y928385D01*
X398566Y925264D01*
X400182Y922466D01*
X402466Y920182D01*
X405264Y918566D01*
X408385Y917730D01*
X409365D01*
Y929365D01*
D02*
G37*
G36*
X202270Y929365D02*
X190635D01*
Y917730D01*
X191615D01*
X194736Y918566D01*
X197534Y920182D01*
X199818Y922466D01*
X201434Y925264D01*
X202270Y928385D01*
Y929365D01*
D02*
G37*
G36*
X189365D02*
X177730D01*
Y928385D01*
X178566Y925264D01*
X180182Y922466D01*
X182466Y920182D01*
X185264Y918566D01*
X188385Y917730D01*
X189365D01*
Y929365D01*
D02*
G37*
G36*
X62270Y929365D02*
X50635D01*
Y917730D01*
X51615D01*
X54736Y918566D01*
X57534Y920182D01*
X59818Y922466D01*
X61434Y925264D01*
X62270Y928385D01*
Y929365D01*
D02*
G37*
G36*
X49365D02*
X37730D01*
Y928385D01*
X38566Y925264D01*
X40181Y922466D01*
X42466Y920182D01*
X45264Y918566D01*
X48385Y917730D01*
X49365D01*
Y929365D01*
D02*
G37*
G36*
X522500Y983893D02*
X440000D01*
X437554Y983406D01*
X435480Y982020D01*
X418346Y964887D01*
X399352D01*
X396906Y964401D01*
X394832Y963015D01*
X380480Y948662D01*
X379094Y946589D01*
X378607Y944142D01*
Y896848D01*
X325400Y843641D01*
X311730Y857311D01*
X309656Y858697D01*
X307210Y859183D01*
X221189D01*
X156393Y923979D01*
Y944730D01*
X160270D01*
Y965270D01*
X139730D01*
Y944730D01*
X143607D01*
Y921331D01*
X144094Y918885D01*
X145480Y916811D01*
X209500Y852790D01*
X198103Y841393D01*
X138875D01*
Y842500D01*
X138472Y843472D01*
X137500Y843875D01*
X112500D01*
X111528Y843472D01*
X111125Y842500D01*
Y817500D01*
X111528Y816528D01*
X112500Y816125D01*
X137500D01*
X138472Y816528D01*
X138875Y817500D01*
Y828607D01*
X200751D01*
X203197Y829094D01*
X205271Y830480D01*
X221189Y846397D01*
X304562D01*
X319007Y831952D01*
Y806010D01*
X318382Y805385D01*
X317228Y803385D01*
X316630Y801155D01*
Y798845D01*
X317228Y796615D01*
X318382Y794615D01*
X320015Y792982D01*
X320027Y792976D01*
Y786770D01*
X318730D01*
Y774230D01*
X331270D01*
Y786770D01*
X330773D01*
Y792976D01*
X330785Y792982D01*
X332418Y794615D01*
X332425Y794627D01*
X362397D01*
X364453Y795036D01*
X366197Y796200D01*
X407123Y837127D01*
X440274D01*
X449627Y827774D01*
Y819915D01*
X448357Y819389D01*
X447702Y820044D01*
X445949Y820770D01*
X444051D01*
X442298Y820044D01*
X441078Y818824D01*
X416000D01*
X416000Y818824D01*
X414919Y818609D01*
X414003Y817997D01*
X414003Y817997D01*
X352830Y756824D01*
X203170D01*
X200770Y759224D01*
Y760949D01*
X200044Y762702D01*
X198702Y764044D01*
X196949Y764770D01*
X195051D01*
X193298Y764044D01*
X191956Y762702D01*
X191230Y760949D01*
Y759051D01*
X191956Y757298D01*
X193298Y755956D01*
X195051Y755230D01*
X196776D01*
X200003Y752003D01*
X200919Y751391D01*
X202000Y751176D01*
X202000Y751176D01*
X354000D01*
X354000Y751176D01*
X355081Y751391D01*
X355997Y752003D01*
X417170Y813176D01*
X441078D01*
X442298Y811956D01*
X444051Y811230D01*
X445949D01*
X447702Y811956D01*
X448357Y812611D01*
X449627Y812085D01*
Y800785D01*
X424311Y775469D01*
X423146Y773726D01*
X422737Y771670D01*
Y677836D01*
X410774Y665873D01*
X394415D01*
X393889Y667143D01*
X394044Y667298D01*
X394770Y669051D01*
Y670949D01*
X394044Y672702D01*
X392702Y674044D01*
X390949Y674770D01*
X389051D01*
X387298Y674044D01*
X387098Y673844D01*
X272592D01*
X180844Y765592D01*
Y788408D01*
X191666Y799230D01*
X191949D01*
X193702Y799956D01*
X195044Y801298D01*
X195770Y803051D01*
Y804949D01*
X195044Y806702D01*
X193702Y808044D01*
X191949Y808770D01*
X190051D01*
X188298Y808044D01*
X186956Y806702D01*
X186230Y804949D01*
Y804666D01*
X185040Y803476D01*
X183770Y804002D01*
Y804949D01*
X183044Y806702D01*
X181702Y808044D01*
X179949Y808770D01*
X178051D01*
X176298Y808044D01*
X174956Y806702D01*
X174230Y804949D01*
Y804666D01*
X158282Y788718D01*
X157449Y787471D01*
X157156Y786000D01*
X157156Y786000D01*
Y434000D01*
X157156Y434000D01*
X157449Y432529D01*
X158282Y431282D01*
X220282Y369282D01*
X220282Y369282D01*
X221529Y368449D01*
X223000Y368156D01*
X223000Y368156D01*
X409098D01*
X409298Y367956D01*
X411051Y367230D01*
X412949D01*
X414533Y367886D01*
X549785D01*
X550852Y366038D01*
X552578Y364312D01*
X554692Y363092D01*
X557050Y362460D01*
X559490D01*
X561848Y363092D01*
X563962Y364312D01*
X565688Y366038D01*
X566908Y368152D01*
X567540Y370510D01*
Y372950D01*
X566908Y375308D01*
X565688Y377422D01*
X563962Y379148D01*
X561848Y380368D01*
X559490Y381000D01*
X557050D01*
X554692Y380368D01*
X552578Y379148D01*
X550852Y377422D01*
X549785Y375574D01*
X415172D01*
X414702Y376044D01*
X412949Y376770D01*
X411051D01*
X409298Y376044D01*
X409098Y375844D01*
X224592D01*
X164844Y435592D01*
Y784408D01*
X172197Y791761D01*
X173317Y791252D01*
X173386Y791153D01*
X173156Y790000D01*
X173156Y790000D01*
Y764000D01*
X173156Y764000D01*
X173449Y762529D01*
X174282Y761282D01*
X268282Y667282D01*
X268282Y667282D01*
X269529Y666449D01*
X271000Y666156D01*
X321194D01*
X321579Y664886D01*
X320701Y664299D01*
X319536Y662556D01*
X319127Y660500D01*
X319536Y658444D01*
X320701Y656701D01*
X322444Y655536D01*
X324500Y655127D01*
X413000D01*
X415056Y655536D01*
X416799Y656701D01*
X431910Y671811D01*
X433074Y673554D01*
X433483Y675610D01*
Y769444D01*
X443559Y779519D01*
X444823Y778988D01*
X445583Y777155D01*
X447155Y775583D01*
X449208Y774732D01*
X451432D01*
X453485Y775583D01*
X455057Y777155D01*
X455908Y779208D01*
Y781432D01*
X455057Y783485D01*
X453485Y785057D01*
X451652Y785817D01*
X451121Y787081D01*
X458800Y794760D01*
X459964Y796503D01*
X460373Y798559D01*
Y830000D01*
X459964Y832056D01*
X458800Y833799D01*
X446300Y846300D01*
X444556Y847464D01*
X442500Y847873D01*
X404897D01*
X402841Y847464D01*
X401098Y846300D01*
X360171Y805373D01*
X332425D01*
X332418Y805385D01*
X331793Y806010D01*
Y831952D01*
X389520Y889680D01*
X390906Y891754D01*
X391393Y894200D01*
Y941494D01*
X402000Y952102D01*
X420994D01*
X423441Y952588D01*
X425515Y953974D01*
X442648Y971107D01*
X519852D01*
X526107Y964852D01*
Y958358D01*
X526594Y955911D01*
X527980Y953838D01*
X533838Y947980D01*
X535911Y946594D01*
X538358Y946107D01*
X557352D01*
X566107Y937352D01*
Y877648D01*
X550480Y862020D01*
X549094Y859946D01*
X548607Y857500D01*
Y848875D01*
X540000D01*
X539028Y848472D01*
X538625Y847500D01*
Y815000D01*
X539028Y814028D01*
X540000Y813625D01*
X570000D01*
X570972Y814028D01*
X571375Y815000D01*
Y847500D01*
X570972Y848472D01*
X570000Y848875D01*
X561393D01*
Y854852D01*
X577020Y870480D01*
X578406Y872554D01*
X578893Y875000D01*
Y940000D01*
X578406Y942447D01*
X577020Y944520D01*
X564520Y957020D01*
X562446Y958406D01*
X560000Y958893D01*
X541006D01*
X538893Y961006D01*
Y967500D01*
X538406Y969946D01*
X537020Y972020D01*
X527020Y982020D01*
X524946Y983406D01*
X522500Y983893D01*
D02*
G37*
G36*
X306270Y816870D02*
X300635D01*
Y811235D01*
X306270D01*
Y816870D01*
D02*
G37*
G36*
X299365D02*
X293730D01*
Y811235D01*
X299365D01*
Y816870D01*
D02*
G37*
G36*
X306270Y809965D02*
X300635D01*
Y804330D01*
X306270D01*
Y809965D01*
D02*
G37*
G36*
X299365D02*
X293730D01*
Y804330D01*
X299365D01*
Y809965D01*
D02*
G37*
G36*
X275755Y808770D02*
X275235D01*
Y800635D01*
X283370D01*
Y801155D01*
X282772Y803385D01*
X281618Y805385D01*
X279985Y807018D01*
X277985Y808172D01*
X275755Y808770D01*
D02*
G37*
G36*
X273965D02*
X273445D01*
X271215Y808172D01*
X269215Y807018D01*
X267582Y805385D01*
X266428Y803385D01*
X265830Y801155D01*
Y800635D01*
X273965D01*
Y808770D01*
D02*
G37*
G36*
X283370Y799365D02*
X275235D01*
Y791230D01*
X275755D01*
X277985Y791828D01*
X279985Y792982D01*
X281618Y794615D01*
X282772Y796615D01*
X283370Y798845D01*
Y799365D01*
D02*
G37*
G36*
X273965D02*
X265830D01*
Y798845D01*
X266428Y796615D01*
X267582Y794615D01*
X269215Y792982D01*
X271215Y791828D01*
X273445Y791230D01*
X273965D01*
Y799365D01*
D02*
G37*
G36*
X191432Y785908D02*
X189208D01*
X187155Y785057D01*
X185583Y783485D01*
X184732Y781432D01*
Y779209D01*
X185583Y777155D01*
X187155Y775583D01*
X189208Y774732D01*
X191432D01*
X193485Y775583D01*
X195057Y777155D01*
X195908Y779209D01*
Y781432D01*
X195057Y783485D01*
X193485Y785057D01*
X191432Y785908D01*
D02*
G37*
G36*
X306270Y800870D02*
X293730D01*
Y788330D01*
X294627D01*
Y781624D01*
X294615Y781618D01*
X292982Y779985D01*
X291828Y777985D01*
X291230Y775755D01*
Y773445D01*
X291828Y771215D01*
X292982Y769215D01*
X294615Y767582D01*
X296615Y766428D01*
X298845Y765830D01*
X301155D01*
X303385Y766428D01*
X305385Y767582D01*
X307018Y769215D01*
X308172Y771215D01*
X308770Y773445D01*
Y775755D01*
X308172Y777985D01*
X307018Y779985D01*
X305385Y781618D01*
X305373Y781624D01*
Y788330D01*
X306270D01*
Y800870D01*
D02*
G37*
G36*
X331270Y770770D02*
X325635D01*
Y765135D01*
X331270D01*
Y770770D01*
D02*
G37*
G36*
X324365D02*
X318730D01*
Y765135D01*
X324365D01*
Y770770D01*
D02*
G37*
G36*
X542461Y791270D02*
X540635D01*
Y760635D01*
X571270D01*
Y762461D01*
X570500Y767322D01*
X568979Y772003D01*
X566744Y776389D01*
X563851Y780371D01*
X560371Y783851D01*
X556389Y786745D01*
X552004Y788979D01*
X547322Y790500D01*
X542461Y791270D01*
D02*
G37*
G36*
X539365D02*
X537539D01*
X532678Y790500D01*
X527996Y788979D01*
X523611Y786745D01*
X519629Y783851D01*
X516149Y780371D01*
X513256Y776389D01*
X511021Y772003D01*
X509500Y767322D01*
X508730Y762461D01*
Y760635D01*
X539365D01*
Y791270D01*
D02*
G37*
G36*
X62461D02*
X60635D01*
Y760635D01*
X91270D01*
Y762461D01*
X90500Y767322D01*
X88979Y772003D01*
X86744Y776389D01*
X83851Y780371D01*
X80371Y783851D01*
X76389Y786745D01*
X72003Y788979D01*
X67322Y790500D01*
X62461Y791270D01*
D02*
G37*
G36*
X59365D02*
X57539D01*
X52678Y790500D01*
X47997Y788979D01*
X43611Y786745D01*
X39629Y783851D01*
X36149Y780371D01*
X33256Y776389D01*
X31021Y772003D01*
X29500Y767322D01*
X28730Y762461D01*
Y760635D01*
X59365D01*
Y791270D01*
D02*
G37*
G36*
X331270Y763865D02*
X325635D01*
Y758230D01*
X331270D01*
Y763865D01*
D02*
G37*
G36*
X324365D02*
X318730D01*
Y758230D01*
X324365D01*
Y763865D01*
D02*
G37*
G36*
X123720Y771770D02*
X121280D01*
X118922Y771138D01*
X116808Y769918D01*
X115082Y768192D01*
X113862Y766078D01*
X113230Y763720D01*
Y761280D01*
X113862Y758922D01*
X115082Y756808D01*
X116808Y755082D01*
X118922Y753862D01*
X121280Y753230D01*
X123720D01*
X126078Y753862D01*
X128192Y755082D01*
X129918Y756808D01*
X131138Y758922D01*
X131770Y761280D01*
Y763720D01*
X131138Y766078D01*
X129918Y768192D01*
X128192Y769918D01*
X126078Y771138D01*
X123720Y771770D01*
D02*
G37*
G36*
X150792Y745268D02*
X148568D01*
X146515Y744417D01*
X144943Y742845D01*
X144092Y740791D01*
Y738568D01*
X144943Y736515D01*
X146515Y734943D01*
X148568Y734092D01*
X150792D01*
X152845Y734943D01*
X154417Y736515D01*
X155268Y738568D01*
Y740791D01*
X154417Y742845D01*
X152845Y744417D01*
X150792Y745268D01*
D02*
G37*
G36*
X410792Y745268D02*
X408568D01*
X406515Y744417D01*
X404943Y742845D01*
X404092Y740791D01*
Y738568D01*
X404943Y736515D01*
X406515Y734943D01*
X408568Y734092D01*
X410792D01*
X412845Y734943D01*
X414417Y736515D01*
X415268Y738568D01*
Y740791D01*
X414417Y742845D01*
X412845Y744417D01*
X410792Y745268D01*
D02*
G37*
G36*
X571270Y759365D02*
X540635D01*
Y728730D01*
X542461D01*
X547322Y729500D01*
X552004Y731021D01*
X556389Y733255D01*
X560371Y736149D01*
X563851Y739629D01*
X566744Y743611D01*
X568979Y747997D01*
X570500Y752678D01*
X571270Y757539D01*
Y759365D01*
D02*
G37*
G36*
X539365D02*
X508730D01*
Y757539D01*
X509500Y752678D01*
X511021Y747997D01*
X513256Y743611D01*
X516149Y739629D01*
X519629Y736149D01*
X523611Y733255D01*
X527996Y731021D01*
X532678Y729500D01*
X537539Y728730D01*
X539365D01*
Y759365D01*
D02*
G37*
G36*
X91270D02*
X60635D01*
Y728730D01*
X62461D01*
X67322Y729500D01*
X72003Y731021D01*
X76389Y733255D01*
X80371Y736149D01*
X83851Y739629D01*
X86744Y743611D01*
X88979Y747997D01*
X90500Y752678D01*
X91270Y757539D01*
Y759365D01*
D02*
G37*
G36*
X59365D02*
X28730D01*
Y757539D01*
X29500Y752678D01*
X31021Y747997D01*
X33256Y743611D01*
X36149Y739629D01*
X39629Y736149D01*
X43611Y733255D01*
X47997Y731021D01*
X52678Y729500D01*
X57539Y728730D01*
X59365D01*
Y759365D01*
D02*
G37*
G36*
X558720Y436770D02*
X556280D01*
X553922Y436138D01*
X551808Y434918D01*
X550082Y433192D01*
X548862Y431078D01*
X548230Y428720D01*
Y426280D01*
X548862Y423922D01*
X550082Y421808D01*
X551808Y420082D01*
X553922Y418862D01*
X556280Y418230D01*
X558720D01*
X561078Y418862D01*
X563192Y420082D01*
X564918Y421808D01*
X566138Y423922D01*
X566770Y426280D01*
Y428720D01*
X566138Y431078D01*
X564918Y433192D01*
X563192Y434918D01*
X561078Y436138D01*
X558720Y436770D01*
D02*
G37*
G36*
X196227Y227540D02*
X195770D01*
Y211270D01*
X212040D01*
Y211728D01*
X211366Y215116D01*
X210044Y218308D01*
X208124Y221181D01*
X205681Y223624D01*
X202808Y225544D01*
X199616Y226866D01*
X196227Y227540D01*
D02*
G37*
G36*
X247227D02*
X246770D01*
Y211270D01*
X263040D01*
Y211728D01*
X262366Y215116D01*
X261044Y218308D01*
X259124Y221181D01*
X256681Y223624D01*
X253808Y225544D01*
X250616Y226866D01*
X247227Y227540D01*
D02*
G37*
G36*
X193230D02*
X192773D01*
X189384Y226866D01*
X186192Y225544D01*
X183319Y223624D01*
X180876Y221181D01*
X178956Y218308D01*
X177634Y215116D01*
X176960Y211728D01*
Y211270D01*
X193230D01*
Y227540D01*
D02*
G37*
G36*
X244230D02*
X243773D01*
X240384Y226866D01*
X237192Y225544D01*
X234319Y223624D01*
X231876Y221181D01*
X229956Y218308D01*
X228634Y215116D01*
X227960Y211728D01*
Y211270D01*
X244230D01*
Y227540D01*
D02*
G37*
G36*
X263040Y208730D02*
X246770D01*
Y192460D01*
X247227D01*
X250616Y193134D01*
X253808Y194456D01*
X256681Y196376D01*
X259124Y198819D01*
X261044Y201692D01*
X262366Y204884D01*
X263040Y208272D01*
Y208730D01*
D02*
G37*
G36*
X244230D02*
X227960D01*
Y208272D01*
X228634Y204884D01*
X229956Y201692D01*
X231876Y198819D01*
X234319Y196376D01*
X237192Y194456D01*
X240384Y193134D01*
X243773Y192460D01*
X244230D01*
Y208730D01*
D02*
G37*
G36*
X212040D02*
X195770D01*
Y192460D01*
X196227D01*
X199616Y193134D01*
X202808Y194456D01*
X205681Y196376D01*
X208124Y198819D01*
X210044Y201692D01*
X211366Y204884D01*
X212040Y208272D01*
Y208730D01*
D02*
G37*
G36*
X193230D02*
X176960D01*
Y208272D01*
X177634Y204884D01*
X178956Y201692D01*
X180876Y198819D01*
X183319Y196376D01*
X186192Y194456D01*
X189384Y193134D01*
X192773Y192460D01*
X193230D01*
Y208730D01*
D02*
G37*
G36*
X221728Y152540D02*
X221270D01*
Y136270D01*
X237540D01*
Y136728D01*
X236866Y140116D01*
X235544Y143308D01*
X233624Y146181D01*
X231181Y148624D01*
X228308Y150544D01*
X225116Y151866D01*
X221728Y152540D01*
D02*
G37*
G36*
X218730D02*
X218272D01*
X214884Y151866D01*
X211692Y150544D01*
X208819Y148624D01*
X206376Y146181D01*
X204456Y143308D01*
X203134Y140116D01*
X202460Y136728D01*
Y136270D01*
X218730D01*
Y152540D01*
D02*
G37*
G36*
X237540Y133730D02*
X221270D01*
Y117460D01*
X221728D01*
X225116Y118134D01*
X228308Y119456D01*
X231181Y121376D01*
X233624Y123819D01*
X235544Y126692D01*
X236866Y129884D01*
X237540Y133272D01*
Y133730D01*
D02*
G37*
G36*
X218730D02*
X202460D01*
Y133272D01*
X203134Y129884D01*
X204456Y126692D01*
X206376Y123819D01*
X208819Y121376D01*
X211692Y119456D01*
X214884Y118134D01*
X218272Y117460D01*
X218730D01*
Y133730D01*
D02*
G37*
G36*
X542461Y91270D02*
X540635D01*
Y60635D01*
X571270D01*
Y62461D01*
X570500Y67322D01*
X568979Y72003D01*
X566744Y76389D01*
X563851Y80371D01*
X560371Y83851D01*
X556389Y86744D01*
X552004Y88979D01*
X547322Y90500D01*
X542461Y91270D01*
D02*
G37*
G36*
X539365D02*
X537539D01*
X532678Y90500D01*
X527996Y88979D01*
X523611Y86744D01*
X519629Y83851D01*
X516149Y80371D01*
X513256Y76389D01*
X511021Y72003D01*
X509500Y67322D01*
X508730Y62461D01*
Y60635D01*
X539365D01*
Y91270D01*
D02*
G37*
G36*
X62461Y91270D02*
X60635D01*
Y60635D01*
X91270D01*
Y62461D01*
X90500Y67322D01*
X88979Y72003D01*
X86744Y76389D01*
X83851Y80371D01*
X80371Y83851D01*
X76389Y86744D01*
X72003Y88979D01*
X67322Y90500D01*
X62461Y91270D01*
D02*
G37*
G36*
X59365D02*
X57539D01*
X52678Y90500D01*
X47997Y88979D01*
X43611Y86744D01*
X39629Y83851D01*
X36149Y80371D01*
X33256Y76389D01*
X31021Y72003D01*
X29500Y67322D01*
X28730Y62461D01*
Y60635D01*
X59365D01*
Y91270D01*
D02*
G37*
G36*
X571270Y59365D02*
X540635D01*
Y28730D01*
X542461D01*
X547322Y29500D01*
X552004Y31021D01*
X556389Y33256D01*
X560371Y36149D01*
X563851Y39629D01*
X566744Y43611D01*
X568979Y47997D01*
X570500Y52678D01*
X571270Y57539D01*
Y59365D01*
D02*
G37*
G36*
X539365D02*
X508730D01*
Y57539D01*
X509500Y52678D01*
X511021Y47997D01*
X513256Y43611D01*
X516149Y39629D01*
X519629Y36149D01*
X523611Y33256D01*
X527996Y31021D01*
X532678Y29500D01*
X537539Y28730D01*
X539365D01*
Y59365D01*
D02*
G37*
G36*
X91270Y59365D02*
X60635D01*
Y28730D01*
X62461D01*
X67322Y29500D01*
X72003Y31021D01*
X76389Y33256D01*
X80371Y36149D01*
X83851Y39629D01*
X86744Y43611D01*
X88979Y47997D01*
X90500Y52678D01*
X91270Y57539D01*
Y59365D01*
D02*
G37*
G36*
X59365D02*
X28730D01*
Y57539D01*
X29500Y52678D01*
X31021Y47997D01*
X33256Y43611D01*
X36149Y39629D01*
X39629Y36149D01*
X43611Y33256D01*
X47997Y31021D01*
X52678Y29500D01*
X57539Y28730D01*
X59365D01*
Y59365D01*
D02*
G37*
%LPD*%
G36*
X466000Y919000D02*
X488000D01*
Y568000D01*
X173000D01*
Y686000D01*
X234000Y686000D01*
X250000Y670000D01*
Y620000D01*
X417000D01*
X466000Y669000D01*
Y875000D01*
X454000D01*
Y902000D01*
X435000D01*
Y957500D01*
X438994D01*
X439768Y956492D01*
X439730Y956352D01*
Y955635D01*
X450000D01*
X460270D01*
Y956352D01*
X460232Y956492D01*
X461006Y957500D01*
X466000D01*
Y919000D01*
D02*
G37*
%LPC*%
G36*
X460270Y954365D02*
X450635D01*
Y944730D01*
X451352D01*
X453964Y945430D01*
X456306Y946782D01*
X458218Y948694D01*
X459570Y951036D01*
X460270Y953648D01*
Y954365D01*
D02*
G37*
G36*
X449365D02*
X439730D01*
Y953648D01*
X440430Y951036D01*
X441782Y948694D01*
X443694Y946782D01*
X446036Y945430D01*
X448648Y944730D01*
X449365D01*
Y954365D01*
D02*
G37*
G36*
X221728Y682540D02*
X221270D01*
Y666270D01*
X237540D01*
Y666728D01*
X236866Y670116D01*
X235544Y673308D01*
X233624Y676181D01*
X231181Y678624D01*
X228308Y680544D01*
X225116Y681866D01*
X221728Y682540D01*
D02*
G37*
G36*
X218730D02*
X218272D01*
X214884Y681866D01*
X211692Y680544D01*
X208819Y678624D01*
X206376Y676181D01*
X204456Y673308D01*
X203134Y670116D01*
X202460Y666728D01*
Y666270D01*
X218730D01*
Y682540D01*
D02*
G37*
G36*
X237540Y663730D02*
X221270D01*
Y647460D01*
X221728D01*
X225116Y648134D01*
X228308Y649456D01*
X231181Y651376D01*
X233624Y653819D01*
X235544Y656692D01*
X236866Y659884D01*
X237540Y663272D01*
Y663730D01*
D02*
G37*
G36*
X218730D02*
X202460D01*
Y663272D01*
X203134Y659884D01*
X204456Y656692D01*
X206376Y653819D01*
X208819Y651376D01*
X211692Y649456D01*
X214884Y648134D01*
X218272Y647460D01*
X218730D01*
Y663730D01*
D02*
G37*
G36*
X471220Y664270D02*
X468780D01*
X466422Y663638D01*
X464308Y662418D01*
X462582Y660692D01*
X461362Y658578D01*
X460730Y656220D01*
Y653780D01*
X461362Y651422D01*
X462582Y649308D01*
X464308Y647582D01*
X466422Y646362D01*
X468780Y645730D01*
X471220D01*
X473578Y646362D01*
X475692Y647582D01*
X477418Y649308D01*
X478638Y651422D01*
X479270Y653780D01*
Y656220D01*
X478638Y658578D01*
X477418Y660692D01*
X475692Y662418D01*
X473578Y663638D01*
X471220Y664270D01*
D02*
G37*
G36*
X247227Y607540D02*
X246770D01*
Y591270D01*
X263040D01*
Y591727D01*
X262366Y595116D01*
X261044Y598308D01*
X259124Y601181D01*
X256681Y603624D01*
X253808Y605544D01*
X250616Y606866D01*
X247227Y607540D01*
D02*
G37*
G36*
X196227D02*
X195770D01*
Y591270D01*
X212040D01*
Y591727D01*
X211366Y595116D01*
X210044Y598308D01*
X208124Y601181D01*
X205681Y603624D01*
X202808Y605544D01*
X199616Y606866D01*
X196227Y607540D01*
D02*
G37*
G36*
X244230D02*
X243773D01*
X240384Y606866D01*
X237192Y605544D01*
X234319Y603624D01*
X231876Y601181D01*
X229956Y598308D01*
X228634Y595116D01*
X227960Y591727D01*
Y591270D01*
X244230D01*
Y607540D01*
D02*
G37*
G36*
X193230D02*
X192773D01*
X189384Y606866D01*
X186192Y605544D01*
X183319Y603624D01*
X180876Y601181D01*
X178956Y598308D01*
X177634Y595116D01*
X176960Y591727D01*
Y591270D01*
X193230D01*
Y607540D01*
D02*
G37*
G36*
X263040Y588730D02*
X246770D01*
Y572460D01*
X247227D01*
X250616Y573134D01*
X253808Y574456D01*
X256681Y576376D01*
X259124Y578819D01*
X261044Y581692D01*
X262366Y584884D01*
X263040Y588273D01*
Y588730D01*
D02*
G37*
G36*
X244230D02*
X227960D01*
Y588273D01*
X228634Y584884D01*
X229956Y581692D01*
X231876Y578819D01*
X234319Y576376D01*
X237192Y574456D01*
X240384Y573134D01*
X243773Y572460D01*
X244230D01*
Y588730D01*
D02*
G37*
G36*
X212040D02*
X195770D01*
Y572460D01*
X196227D01*
X199616Y573134D01*
X202808Y574456D01*
X205681Y576376D01*
X208124Y578819D01*
X210044Y581692D01*
X211366Y584884D01*
X212040Y588273D01*
Y588730D01*
D02*
G37*
G36*
X193230D02*
X176960D01*
Y588273D01*
X177634Y584884D01*
X178956Y581692D01*
X180876Y578819D01*
X183319Y576376D01*
X186192Y574456D01*
X189384Y573134D01*
X192773Y572460D01*
X193230D01*
Y588730D01*
D02*
G37*
%LPD*%
G36*
X137500Y817500D02*
X112500D01*
Y842500D01*
X137500D01*
Y817500D01*
D02*
G37*
G36*
X570000Y815000D02*
X540000D01*
Y847500D01*
X570000D01*
Y815000D01*
D02*
G37*
D10*
X282500Y961991D02*
X282509Y962000D01*
D11*
X416000Y816000D02*
X445000D01*
X354000Y754000D02*
X416000Y816000D01*
X202000Y754000D02*
X354000D01*
X196000Y760000D02*
X202000Y754000D01*
D20*
X312512Y962000D02*
D03*
Y978000D02*
D03*
X282509Y962000D02*
D03*
Y978000D02*
D03*
X300000Y794600D02*
D03*
Y810600D02*
D03*
X325000Y780500D02*
D03*
Y764500D02*
D03*
D51*
X161000Y434000D02*
X223000Y372000D01*
X412000D01*
X412270Y371730D02*
X558270D01*
X412000Y372000D02*
X412270Y371730D01*
X161000Y786000D02*
X179000Y804000D01*
X161000Y434000D02*
Y786000D01*
X177000Y790000D02*
X191000Y804000D01*
X177000Y764000D02*
Y790000D01*
Y764000D02*
X271000Y670000D01*
X390000D01*
D52*
X555000Y830000D02*
Y857500D01*
X532500Y958358D02*
Y967500D01*
Y958358D02*
X538358Y952500D01*
X560000D02*
X572500Y940000D01*
X538358Y952500D02*
X560000D01*
X572500Y875000D02*
Y940000D01*
X555000Y857500D02*
X572500Y875000D01*
X440000Y977500D02*
X522500D01*
X532500Y967500D01*
X399352Y958494D02*
X420994D01*
X440000Y977500D01*
X385000Y894200D02*
Y944142D01*
X399352Y958494D01*
X135000Y835000D02*
X200751D01*
X325400Y834600D02*
X385000Y894200D01*
X200751Y835000D02*
X218541Y852790D01*
X325400Y800000D02*
Y834600D01*
X218541Y852790D02*
X307210D01*
X325400Y834600D01*
X150000Y921331D02*
X218541Y852790D01*
X150000Y921331D02*
Y955000D01*
D53*
X325400Y780900D02*
Y800000D01*
X362397D01*
X404897Y842500D01*
X442500D01*
X455000Y830000D01*
X428110Y771670D02*
X455000Y798559D01*
Y830000D01*
X413000Y660500D02*
X428110Y675610D01*
Y771670D01*
X324500Y660500D02*
X413000D01*
X300000Y774600D02*
Y794600D01*
D55*
X312500Y947500D02*
Y964491D01*
X282500Y947500D02*
Y961991D01*
D56*
X470000Y655000D02*
D03*
X122500Y762500D02*
D03*
X558270Y371730D02*
D03*
X557500Y427500D02*
D03*
D57*
X50000Y930000D02*
D03*
X190000D02*
D03*
Y980000D02*
D03*
X50000D02*
D03*
X410000Y930000D02*
D03*
X550000D02*
D03*
Y980000D02*
D03*
X410000D02*
D03*
D58*
X150000Y955000D02*
D03*
X510000D02*
D03*
D59*
X90000D02*
D03*
X120000D02*
D03*
X450000D02*
D03*
X480000D02*
D03*
D60*
X274600Y800000D02*
D03*
X300000Y774600D02*
D03*
X325400Y800000D02*
D03*
D61*
X540000Y760000D02*
D03*
X60000D02*
D03*
X540000Y60000D02*
D03*
X60000Y60000D02*
D03*
D62*
X450320Y780320D02*
D03*
X409680Y739680D02*
D03*
X190320Y780320D02*
D03*
X149680Y739680D02*
D03*
D63*
X220000Y135000D02*
D03*
X194500Y210000D02*
D03*
X245500D02*
D03*
X220000Y665000D02*
D03*
X245500Y590000D02*
D03*
X194500D02*
D03*
D64*
X346100Y940000D02*
D03*
X253900D02*
D03*
Y985000D02*
D03*
X346100D02*
D03*
D65*
X333000Y945600D02*
D03*
X267000D02*
D03*
D66*
X179000Y804000D02*
D03*
X380000Y839000D02*
D03*
X445000Y816000D02*
D03*
X358000Y691000D02*
D03*
X342000Y736000D02*
D03*
X324500Y660500D02*
D03*
X562500Y840000D02*
D03*
X547500D02*
D03*
X412000Y372000D02*
D03*
X117500Y837500D02*
D03*
X562500Y825000D02*
D03*
X547500D02*
D03*
X584000Y880000D02*
D03*
X494000Y866000D02*
D03*
X528658Y496342D02*
D03*
X478658Y446342D02*
D03*
X132500Y822500D02*
D03*
X208000Y894000D02*
D03*
X75000Y625000D02*
D03*
X475000Y525000D02*
D03*
X325000D02*
D03*
X175000D02*
D03*
X450000Y75000D02*
D03*
X300000D02*
D03*
X150000D02*
D03*
X325000Y450000D02*
D03*
X175000D02*
D03*
X475000Y275000D02*
D03*
X325000D02*
D03*
X175000D02*
D03*
X525000Y200000D02*
D03*
Y350000D02*
D03*
X75000Y500000D02*
D03*
Y350000D02*
D03*
Y200000D02*
D03*
X445730Y893730D02*
D03*
X455000Y867000D02*
D03*
X393000Y877000D02*
D03*
X278000Y683000D02*
D03*
X459000Y393500D02*
D03*
X428000Y379000D02*
D03*
X191000Y804000D02*
D03*
X390000Y670000D02*
D03*
X196000Y760000D02*
D03*
X312500Y947500D02*
D03*
X282500D02*
D03*
M02*
