G04*
G04 #@! TF.GenerationSoftware,Altium Limited,Altium Designer,22.2.1 (43)*
G04*
G04 Layer_Color=255*
%FSLAX44Y44*%
%MOMM*%
G71*
G04*
G04 #@! TF.SameCoordinates,51408D7C-6C8F-4155-A7B7-9BEF84A0B881*
G04*
G04*
G04 #@! TF.FilePolarity,Positive*
G04*
G01*
G75*
%ADD20R,1.0000X1.0000*%
%ADD56C,1.6000*%
%ADD57C,2.2000*%
%ADD58R,1.8000X1.8000*%
%ADD59C,1.8000*%
%ADD60C,1.5000*%
%ADD61C,6.0000*%
%ADD62C,0.6096*%
%ADD63C,3.0000*%
%ADD64O,1.0500X2.0500*%
%ADD65C,0.8500*%
D20*
X312512Y962000D02*
D03*
Y978000D02*
D03*
X282509Y962000D02*
D03*
Y978000D02*
D03*
X300000Y794600D02*
D03*
Y810600D02*
D03*
X325000Y780500D02*
D03*
Y764500D02*
D03*
D56*
X470000Y655000D02*
D03*
X122500Y762500D02*
D03*
X558270Y371730D02*
D03*
X557500Y427500D02*
D03*
D57*
X50000Y930000D02*
D03*
X190000D02*
D03*
Y980000D02*
D03*
X50000D02*
D03*
X410000Y930000D02*
D03*
X550000D02*
D03*
Y980000D02*
D03*
X410000D02*
D03*
D58*
X150000Y955000D02*
D03*
X510000D02*
D03*
D59*
X90000D02*
D03*
X120000D02*
D03*
X450000D02*
D03*
X480000D02*
D03*
D60*
X274600Y800000D02*
D03*
X300000Y774600D02*
D03*
X325400Y800000D02*
D03*
D61*
X540000Y760000D02*
D03*
X60000D02*
D03*
X540000Y60000D02*
D03*
X60000Y60000D02*
D03*
D62*
X450320Y780320D02*
D03*
X409680Y739680D02*
D03*
X190320Y780320D02*
D03*
X149680Y739680D02*
D03*
D63*
X220000Y135000D02*
D03*
X194500Y210000D02*
D03*
X245500D02*
D03*
X220000Y665000D02*
D03*
X245500Y590000D02*
D03*
X194500D02*
D03*
D64*
X346100Y940000D02*
D03*
X253900D02*
D03*
Y985000D02*
D03*
X346100D02*
D03*
D65*
X333000Y945600D02*
D03*
X267000D02*
D03*
M02*
