G04*
G04 #@! TF.GenerationSoftware,Altium Limited,Altium Designer,22.2.1 (43)*
G04*
G04 Layer_Color=8388736*
%FSLAX44Y44*%
%MOMM*%
G71*
G04*
G04 #@! TF.SameCoordinates,7C5D536F-F001-484F-B139-385EAFE792E0*
G04*
G04*
G04 #@! TF.FilePolarity,Positive*
G04*
G01*
G75*
%ADD10C,0.2540*%
%ADD12C,0.1000*%
D10*
X397500Y917500D02*
Y1040000D01*
X562500Y917500D02*
Y1040000D01*
Y917500D02*
X397500D01*
X562500Y1040000D02*
X397500D01*
X37500Y917500D02*
Y1040000D01*
X202500Y917500D02*
Y1040000D01*
Y917500D02*
X37500D01*
X202500Y1040000D02*
X37500D01*
X196670Y733330D02*
X143330D01*
X196670Y786670D02*
X143330D01*
Y733330D02*
Y786670D01*
X196670Y733330D02*
Y786670D01*
X456670Y733330D02*
X403330D01*
X456670Y786670D02*
X403330D01*
Y733330D02*
Y786670D01*
X456670Y733330D02*
Y786670D01*
X360000Y915000D02*
Y1025000D01*
X240000Y915000D02*
Y1025000D01*
X360000D02*
X240000D01*
X330000Y915000D02*
X270000D01*
X240000D01*
X360000D02*
X330000D01*
D12*
X115000Y640000D02*
Y670000D01*
X145000Y640000D02*
Y670000D01*
Y640000D02*
X115000D01*
X145000Y670000D02*
X115000D01*
X245000Y417500D02*
X200000D01*
X245000Y382500D02*
X200000D01*
Y417500D01*
X245000Y382500D02*
Y417500D01*
X397500Y805000D02*
Y885000D01*
X457500D02*
X397500D01*
X457500Y805000D02*
X397500D01*
X457500D02*
Y885000D01*
X220500Y673500D02*
Y708500D01*
X265500Y673500D02*
X220500D01*
X265500D02*
Y708500D01*
X220500D01*
X80500Y874000D02*
Y906000D01*
Y874000D02*
X54500D01*
Y906000D01*
X80500D02*
X54500D01*
X180700Y832950D02*
X155300D01*
Y871050D01*
X180700D02*
X155300D01*
X180700Y832950D02*
Y871050D01*
X165000Y383000D02*
Y398000D01*
X195000Y383000D02*
Y398000D01*
Y383000D02*
X165000D01*
X195000Y398000D02*
X165000D01*
Y402000D02*
Y417000D01*
X195000Y402000D02*
Y417000D01*
Y402000D02*
X165000D01*
X195000Y417000D02*
X165000D01*
X517500Y885000D02*
X502500D01*
X517500Y915000D02*
X502500D01*
X517500Y885000D02*
Y915000D01*
X502500Y885000D02*
Y915000D01*
X487500Y885000D02*
X472500D01*
X487500Y915000D02*
X472500D01*
X487500Y885000D02*
Y915000D01*
X472500Y885000D02*
Y915000D01*
X427000Y788500D02*
Y803500D01*
X457000Y788500D02*
Y803500D01*
Y788500D02*
X427000D01*
X457000Y803500D02*
X427000D01*
X218000Y706000D02*
X203000D01*
X218000Y676000D02*
X203000D01*
Y706000D01*
X218000Y676000D02*
Y706000D01*
X318000Y676000D02*
X303000D01*
X318000Y706000D02*
X303000D01*
X318000Y676000D02*
Y706000D01*
X303000Y676000D02*
Y706000D01*
X253000Y711000D02*
Y726000D01*
X223000Y711000D02*
Y726000D01*
X253000D02*
X223000D01*
X253000Y711000D02*
X223000D01*
X283000Y706000D02*
X268000D01*
X283000Y676000D02*
X268000D01*
Y706000D01*
X283000Y676000D02*
Y706000D01*
X200500D02*
X185500D01*
X200500Y676000D02*
X185500D01*
Y706000D01*
X200500Y676000D02*
Y706000D01*
X152500Y862300D02*
X137500D01*
X152500Y832300D02*
X137500D01*
Y862300D01*
X152500Y832300D02*
Y862300D01*
X147540Y873500D02*
Y888500D01*
X177540Y873500D02*
Y888500D01*
Y873500D02*
X147540D01*
X177540Y888500D02*
X147540D01*
X183120Y799000D02*
X168120D01*
X183120Y829000D02*
X168120D01*
X183120Y799000D02*
Y829000D01*
X168120Y799000D02*
Y829000D01*
X215000Y814500D02*
Y829500D01*
X185000Y814500D02*
Y829500D01*
X215000D02*
X185000D01*
X215000Y814500D02*
X185000D01*
X370000Y870000D02*
X230000D01*
Y730000D02*
Y870000D01*
X370000Y730000D02*
X230000D01*
X370000D02*
Y870000D01*
X462500Y747500D02*
Y777500D01*
X492500Y747500D02*
Y777500D01*
Y747500D02*
X462500D01*
X492500Y777500D02*
X462500D01*
X275250Y605000D02*
Y635000D01*
X325250D02*
X275250D01*
X325250Y605000D02*
Y635000D01*
Y605000D02*
X275250D01*
Y385000D02*
Y415000D01*
X325250D02*
X275250D01*
X325250Y385000D02*
Y415000D01*
Y385000D02*
X275250D01*
Y165000D02*
Y195000D01*
X325250D02*
X275250D01*
X325250Y165000D02*
Y195000D01*
Y165000D02*
X275250D01*
X154000Y754000D02*
Y757000D01*
Y763000D02*
Y766000D01*
Y757000D02*
Y763000D01*
X184000Y766000D02*
X154000D01*
X184000Y754000D02*
Y766000D01*
Y754000D02*
X154000D01*
X414000Y754000D02*
Y757000D01*
Y763000D02*
Y766000D01*
Y757000D02*
Y763000D01*
X444000Y766000D02*
X414000D01*
X444000Y754000D02*
Y766000D01*
Y754000D02*
X414000D01*
X315000Y892500D02*
Y907500D01*
X285000Y892500D02*
Y907500D01*
X315000D02*
X285000D01*
X315000Y892500D02*
X285000D01*
X216500Y710500D02*
X213500D01*
X207500D02*
X204500D01*
X213500D02*
X207500D01*
X204500D02*
Y740500D01*
X216500D02*
X204500D01*
X216500Y710500D02*
Y740500D01*
X160000Y386500D02*
X145000D01*
X160000Y416500D02*
X145000D01*
X160000Y386500D02*
Y416500D01*
X145000Y386500D02*
Y416500D01*
X475000Y849000D02*
X460000D01*
X475000Y879000D02*
X460000D01*
X475000Y849000D02*
Y879000D01*
X460000Y849000D02*
Y879000D01*
X398000Y886500D02*
Y901500D01*
X428000Y886500D02*
Y901500D01*
Y886500D02*
X398000D01*
X428000Y901500D02*
X398000D01*
X392500Y849000D02*
X377500D01*
X392500Y879000D02*
X377500D01*
X392500Y849000D02*
Y879000D01*
X377500Y849000D02*
Y879000D01*
X253000Y728500D02*
Y743500D01*
X223000Y728500D02*
Y743500D01*
X253000D02*
X223000D01*
X253000Y728500D02*
X223000D01*
X300500Y676000D02*
X285500D01*
X300500Y706000D02*
X285500D01*
X300500Y676000D02*
Y706000D01*
X285500Y676000D02*
Y706000D01*
X22500Y872000D02*
Y887000D01*
X52500Y872000D02*
Y887000D01*
Y872000D02*
X22500D01*
X52500Y887000D02*
X22500D01*
X112500Y872000D02*
Y887000D01*
X82500Y872000D02*
Y887000D01*
X112500D02*
X82500D01*
X112500Y872000D02*
X82500D01*
X279500Y877000D02*
X264500D01*
X279500Y907000D02*
X264500D01*
X279500Y877000D02*
Y907000D01*
X264500Y877000D02*
Y907000D01*
X335500Y877000D02*
X320500D01*
X335500Y907000D02*
X320500D01*
X335500Y877000D02*
Y907000D01*
X320500Y877000D02*
Y907000D01*
X214000Y857200D02*
Y872200D01*
X184000Y857200D02*
Y872200D01*
X214000D02*
X184000D01*
X214000Y857200D02*
X184000D01*
X215000Y831800D02*
Y846800D01*
X185000Y831800D02*
Y846800D01*
X215000D02*
X185000D01*
X215000Y831800D02*
X185000D01*
X26730Y356730D02*
Y386730D01*
X56730Y356730D02*
Y386730D01*
Y356730D02*
X26730D01*
X56730Y386730D02*
X26730D01*
X27500Y412500D02*
Y442500D01*
X57500Y412500D02*
Y442500D01*
Y412500D02*
X27500D01*
X57500Y442500D02*
X27500D01*
M02*
