G04*
G04 #@! TF.GenerationSoftware,Altium Limited,Altium Designer,22.2.1 (43)*
G04*
G04 Layer_Physical_Order=2*
G04 Layer_Color=16711680*
%FSLAX44Y44*%
%MOMM*%
G71*
G04*
G04 #@! TF.SameCoordinates,7C5D536F-F001-484F-B139-385EAFE792E0*
G04*
G04*
G04 #@! TF.FilePolarity,Positive*
G04*
G01*
G75*
%ADD10C,0.2540*%
%ADD11C,0.3000*%
%ADD20R,1.0000X1.0000*%
%ADD51C,0.5000*%
%ADD52C,1.0000*%
%ADD53C,0.8000*%
%ADD55C,0.4000*%
%ADD56C,1.6000*%
%ADD57C,2.2000*%
%ADD58R,1.8000X1.8000*%
%ADD59C,1.8000*%
%ADD60C,1.5000*%
%ADD61C,6.0000*%
%ADD62C,0.6096*%
%ADD63C,3.0000*%
%ADD64O,1.0500X2.0500*%
%ADD65C,0.8500*%
%ADD66C,0.7000*%
G36*
X20000Y997961D02*
X18231D01*
X14761Y997271D01*
X11492Y995917D01*
X8551Y993951D01*
X6049Y991449D01*
X4083Y988508D01*
X2729Y985239D01*
X2039Y981769D01*
X2039Y980000D01*
X2039Y20000D01*
X2039Y18231D01*
X2729Y14761D01*
X4083Y11492D01*
X6049Y8551D01*
X8551Y6049D01*
X11492Y4083D01*
X14761Y2729D01*
X18231Y2039D01*
X581769D01*
X585239Y2729D01*
X588508Y4083D01*
X591449Y6049D01*
X593951Y8551D01*
X595917Y11492D01*
X597271Y14761D01*
X597961Y18231D01*
Y20000D01*
Y980000D01*
Y981769D01*
X597271Y985239D01*
X595917Y988508D01*
X593951Y991449D01*
X591450Y993951D01*
X588508Y995917D01*
X585239Y997271D01*
X581769Y997961D01*
X580000Y997961D01*
X20000Y997961D01*
D02*
G37*
%LPC*%
G36*
X253265Y996493D02*
Y985635D01*
X247324D01*
Y990000D01*
X247548Y991702D01*
X248205Y993288D01*
X249250Y994650D01*
X250612Y995695D01*
X252198Y996352D01*
X253265Y996493D01*
D02*
G37*
G36*
X345465D02*
Y985635D01*
X339524D01*
Y990000D01*
X339748Y991702D01*
X340405Y993288D01*
X341450Y994650D01*
X342812Y995695D01*
X344398Y996352D01*
X345465Y996493D01*
D02*
G37*
G36*
X254535D02*
X255602Y996352D01*
X257188Y995695D01*
X258550Y994650D01*
X259595Y993288D01*
X260252Y991702D01*
X260476Y990000D01*
Y985635D01*
X254535D01*
Y996493D01*
D02*
G37*
G36*
X346735D02*
X347802Y996352D01*
X349388Y995695D01*
X350750Y994650D01*
X351795Y993288D01*
X352452Y991702D01*
X352676Y990000D01*
Y985635D01*
X346735D01*
Y996493D01*
D02*
G37*
G36*
X48385Y992270D02*
X49365D01*
Y980635D01*
X37730D01*
Y981615D01*
X38566Y984736D01*
X40182Y987534D01*
X42466Y989818D01*
X45264Y991434D01*
X48385Y992270D01*
D02*
G37*
G36*
X50635D02*
X51615D01*
X54736Y991434D01*
X57534Y989818D01*
X59818Y987534D01*
X61434Y984736D01*
X62270Y981615D01*
Y980635D01*
X50635D01*
Y992270D01*
D02*
G37*
G36*
X408385D02*
X409365D01*
Y980635D01*
X397730D01*
Y981615D01*
X398566Y984736D01*
X400182Y987534D01*
X402466Y989818D01*
X405264Y991434D01*
X408385Y992270D01*
D02*
G37*
G36*
X410635D02*
X411615D01*
X414736Y991434D01*
X417534Y989818D01*
X419818Y987534D01*
X421434Y984736D01*
X422270Y981615D01*
Y980635D01*
X410635D01*
Y992270D01*
D02*
G37*
G36*
X188385D02*
X189365D01*
Y980635D01*
X177730D01*
Y981615D01*
X178566Y984736D01*
X180182Y987534D01*
X182466Y989818D01*
X185264Y991434D01*
X188385Y992270D01*
D02*
G37*
G36*
X548385D02*
X549365D01*
Y980635D01*
X537730D01*
Y981615D01*
X538566Y984736D01*
X540182Y987534D01*
X542466Y989818D01*
X545264Y991434D01*
X548385Y992270D01*
D02*
G37*
G36*
X190635D02*
X191615D01*
X194736Y991434D01*
X197534Y989818D01*
X199818Y987534D01*
X201434Y984736D01*
X202270Y981615D01*
Y980635D01*
X190635D01*
Y992270D01*
D02*
G37*
G36*
X550635D02*
X551615D01*
X554736Y991434D01*
X557534Y989818D01*
X559818Y987534D01*
X561434Y984736D01*
X562270Y981615D01*
Y980635D01*
X550635D01*
Y992270D01*
D02*
G37*
G36*
X281218Y984270D02*
X286853D01*
Y978635D01*
X281218D01*
Y984270D01*
D02*
G37*
G36*
X311221D02*
X316856D01*
Y978635D01*
X311221D01*
Y984270D01*
D02*
G37*
G36*
X288123D02*
X293758D01*
Y978635D01*
X288123D01*
Y984270D01*
D02*
G37*
G36*
X318126D02*
X323761D01*
Y978635D01*
X318126D01*
Y984270D01*
D02*
G37*
G36*
X254535Y984365D02*
X260476D01*
Y980000D01*
X260252Y978298D01*
X259595Y976712D01*
X258550Y975350D01*
X257188Y974305D01*
X255602Y973648D01*
X254535Y973507D01*
Y984365D01*
D02*
G37*
G36*
X346735D02*
X352676D01*
Y980000D01*
X352452Y978298D01*
X351795Y976712D01*
X350750Y975350D01*
X349388Y974305D01*
X347802Y973648D01*
X346735Y973507D01*
Y984365D01*
D02*
G37*
G36*
X247324D02*
X253265D01*
Y973507D01*
X252198Y973648D01*
X250612Y974305D01*
X249250Y975350D01*
X248205Y976712D01*
X247548Y978298D01*
X247324Y980000D01*
Y984365D01*
D02*
G37*
G36*
X339524D02*
X345465D01*
Y973507D01*
X344398Y973648D01*
X342812Y974305D01*
X341450Y975350D01*
X340405Y976712D01*
X339748Y978298D01*
X339524Y980000D01*
Y984365D01*
D02*
G37*
G36*
X281218Y977365D02*
X286853D01*
Y971730D01*
X281218D01*
Y977365D01*
D02*
G37*
G36*
X288123D02*
X293758D01*
Y971730D01*
X288123D01*
Y977365D01*
D02*
G37*
G36*
X311221D02*
X316856D01*
Y971730D01*
X311221D01*
Y977365D01*
D02*
G37*
G36*
X318126D02*
X323761D01*
Y971730D01*
X318126D01*
Y977365D01*
D02*
G37*
G36*
X37730Y979365D02*
X49365D01*
Y967730D01*
X48385D01*
X45264Y968566D01*
X42466Y970182D01*
X40182Y972466D01*
X38566Y975264D01*
X37730Y978385D01*
Y979365D01*
D02*
G37*
G36*
X50635D02*
X62270D01*
Y978385D01*
X61434Y975264D01*
X59818Y972466D01*
X57534Y970182D01*
X54736Y968566D01*
X51615Y967730D01*
X50635D01*
Y979365D01*
D02*
G37*
G36*
X177730Y979365D02*
X189365D01*
Y967730D01*
X188385D01*
X185264Y968566D01*
X182466Y970182D01*
X180182Y972466D01*
X178566Y975264D01*
X177730Y978385D01*
Y979365D01*
D02*
G37*
G36*
X190635D02*
X202270D01*
Y978385D01*
X201434Y975264D01*
X199818Y972466D01*
X197534Y970182D01*
X194736Y968566D01*
X191615Y967730D01*
X190635D01*
Y979365D01*
D02*
G37*
G36*
X397730Y979365D02*
X409365D01*
Y967730D01*
X408385D01*
X405264Y968566D01*
X402466Y970182D01*
X400182Y972466D01*
X398566Y975264D01*
X397730Y978385D01*
Y979365D01*
D02*
G37*
G36*
X410635D02*
X422270D01*
Y978385D01*
X421434Y975264D01*
X419818Y972466D01*
X417534Y970182D01*
X414736Y968566D01*
X411615Y967730D01*
X410635D01*
Y979365D01*
D02*
G37*
G36*
X537730Y979365D02*
X549365D01*
Y967730D01*
X548385D01*
X545264Y968566D01*
X542466Y970182D01*
X540182Y972466D01*
X538566Y975264D01*
X537730Y978385D01*
Y979365D01*
D02*
G37*
G36*
X550635D02*
X562270D01*
Y978385D01*
X561434Y975264D01*
X559818Y972466D01*
X557534Y970182D01*
X554736Y968566D01*
X551615Y967730D01*
X550635D01*
Y979365D01*
D02*
G37*
G36*
X148648Y965270D02*
X151352D01*
X153964Y964570D01*
X156306Y963218D01*
X158218Y961306D01*
X159293Y959444D01*
X159334Y959382D01*
X159460Y959218D01*
X160602Y958881D01*
X160826Y958863D01*
X160918Y958838D01*
X161005Y958875D01*
X165000D01*
X165972Y958472D01*
X166375Y957500D01*
Y902000D01*
X165972Y901028D01*
X165000Y900625D01*
X147375D01*
Y875000D01*
X146972Y874028D01*
X146000Y873625D01*
X135375D01*
Y669569D01*
X183569Y621375D01*
X348625D01*
Y670000D01*
X348625Y670000D01*
X349028Y670972D01*
X349028Y670972D01*
X365028Y686972D01*
X366000Y687375D01*
X366000Y687375D01*
X427000Y687375D01*
X427972Y686972D01*
X428375Y686000D01*
Y568000D01*
X427972Y567028D01*
X427000Y566625D01*
X112000D01*
X111028Y567028D01*
X110625Y568000D01*
Y919000D01*
X111028Y919972D01*
X112000Y920375D01*
X132625D01*
Y957500D01*
X133028Y958472D01*
X134000Y958875D01*
X138995D01*
X139082Y958838D01*
X139174Y958863D01*
X140339Y958957D01*
X140688Y959410D01*
X141782Y961306D01*
X143694Y963218D01*
X146036Y964570D01*
X148648Y965270D01*
D02*
G37*
G36*
X332106Y952390D02*
X333894D01*
X335621Y951927D01*
X337169Y951033D01*
X338433Y949769D01*
X339138Y948549D01*
X339859Y948400D01*
X340117Y948399D01*
X340567Y948500D01*
X341450Y949650D01*
X342812Y950695D01*
X344398Y951352D01*
X345465Y951493D01*
Y940635D01*
X339524D01*
Y940788D01*
X338988Y941104D01*
X338254Y941251D01*
X337169Y940167D01*
X335621Y939273D01*
X333894Y938810D01*
X332106D01*
X330379Y939273D01*
X328831Y940167D01*
X327567Y941431D01*
X326673Y942979D01*
X326210Y944706D01*
Y946494D01*
X326673Y948221D01*
X327567Y949769D01*
X328831Y951033D01*
X330379Y951927D01*
X332106Y952390D01*
D02*
G37*
G36*
X79730Y965270D02*
X100270D01*
Y944730D01*
X79730D01*
Y965270D01*
D02*
G37*
G36*
X118648D02*
X121352D01*
X123964Y964570D01*
X126306Y963218D01*
X128218Y961306D01*
X129570Y958964D01*
X130270Y956352D01*
Y953648D01*
X129570Y951036D01*
X128218Y948694D01*
X126306Y946782D01*
X123964Y945430D01*
X121352Y944730D01*
X118648D01*
X116036Y945430D01*
X113694Y946782D01*
X111782Y948694D01*
X110430Y951036D01*
X109730Y953648D01*
Y956352D01*
X110430Y958964D01*
X111782Y961306D01*
X113694Y963218D01*
X116036Y964570D01*
X118648Y965270D01*
D02*
G37*
G36*
X478648D02*
X481352D01*
X483964Y964570D01*
X486306Y963218D01*
X488218Y961306D01*
X489570Y958964D01*
X490270Y956352D01*
Y953648D01*
X489570Y951036D01*
X488218Y948694D01*
X486306Y946782D01*
X483964Y945430D01*
X481352Y944730D01*
X478648D01*
X476036Y945430D01*
X473694Y946782D01*
X471782Y948694D01*
X470430Y951036D01*
X469730Y953648D01*
Y956352D01*
X470430Y958964D01*
X471782Y961306D01*
X473694Y963218D01*
X476036Y964570D01*
X478648Y965270D01*
D02*
G37*
G36*
X508648D02*
X511352D01*
X513964Y964570D01*
X516306Y963218D01*
X518218Y961306D01*
X519570Y958964D01*
X520270Y956352D01*
Y953648D01*
X519570Y951036D01*
X518218Y948694D01*
X516306Y946782D01*
X513964Y945430D01*
X511352Y944730D01*
X508648D01*
X506036Y945430D01*
X503694Y946782D01*
X501782Y948694D01*
X500430Y951036D01*
X499730Y953648D01*
Y956352D01*
X500430Y958964D01*
X501782Y961306D01*
X503694Y963218D01*
X506036Y964570D01*
X508648Y965270D01*
D02*
G37*
G36*
X281218Y968270D02*
X293758D01*
Y955730D01*
X290834D01*
Y950912D01*
X291544Y950202D01*
X292270Y948449D01*
Y946551D01*
X291544Y944798D01*
X290202Y943456D01*
X288449Y942730D01*
X286551D01*
X284798Y943456D01*
X283456Y944798D01*
X282730Y946551D01*
Y948449D01*
X283456Y950202D01*
X284166Y950912D01*
Y955730D01*
X281218D01*
Y968270D01*
D02*
G37*
G36*
X311221D02*
X323761D01*
Y955730D01*
X320834D01*
Y950912D01*
X321544Y950202D01*
X322270Y948449D01*
Y946551D01*
X321544Y944798D01*
X320202Y943456D01*
X318449Y942730D01*
X316551D01*
X314798Y943456D01*
X313456Y944798D01*
X312730Y946551D01*
Y948449D01*
X313456Y950202D01*
X314166Y950912D01*
Y955730D01*
X311221D01*
Y968270D01*
D02*
G37*
G36*
X253265Y951493D02*
Y940635D01*
X247324D01*
Y945000D01*
X247548Y946702D01*
X248205Y948288D01*
X249250Y949650D01*
X250612Y950695D01*
X252198Y951352D01*
X253265Y951493D01*
D02*
G37*
G36*
X266106Y952390D02*
X267894D01*
X269621Y951927D01*
X271169Y951033D01*
X272433Y949769D01*
X273327Y948221D01*
X273790Y946494D01*
Y944706D01*
X273327Y942979D01*
X272433Y941431D01*
X271169Y940167D01*
X269621Y939273D01*
X267894Y938810D01*
X266106D01*
X264379Y939273D01*
X262831Y940167D01*
X261746Y941251D01*
X261012Y941104D01*
X260476Y940788D01*
Y940635D01*
X254535D01*
Y951493D01*
X255602Y951352D01*
X257188Y950695D01*
X258550Y949650D01*
X259433Y948500D01*
X259883Y948399D01*
X260141Y948400D01*
X260862Y948549D01*
X261567Y949769D01*
X262831Y951033D01*
X264379Y951927D01*
X266106Y952390D01*
D02*
G37*
G36*
X346735Y951493D02*
X347802Y951352D01*
X349388Y950695D01*
X350750Y949650D01*
X351795Y948288D01*
X352452Y946702D01*
X352676Y945000D01*
Y940635D01*
X346735D01*
Y951493D01*
D02*
G37*
G36*
X48385Y942270D02*
X49365D01*
Y930635D01*
X37730D01*
Y931615D01*
X38566Y934736D01*
X40182Y937534D01*
X42466Y939818D01*
X45264Y941434D01*
X48385Y942270D01*
D02*
G37*
G36*
X50635D02*
X51615D01*
X54736Y941434D01*
X57534Y939818D01*
X59818Y937534D01*
X61434Y934736D01*
X62270Y931615D01*
Y930635D01*
X50635D01*
Y942270D01*
D02*
G37*
G36*
X408385D02*
X409365D01*
Y930635D01*
X397730D01*
Y931615D01*
X398566Y934736D01*
X400182Y937534D01*
X402466Y939818D01*
X405264Y941434D01*
X408385Y942270D01*
D02*
G37*
G36*
X410635D02*
X411615D01*
X414736Y941434D01*
X417534Y939818D01*
X419818Y937534D01*
X421434Y934736D01*
X422270Y931615D01*
Y930635D01*
X410635D01*
Y942270D01*
D02*
G37*
G36*
X188385D02*
X189365D01*
Y930635D01*
X177730D01*
Y931615D01*
X178566Y934736D01*
X180182Y937534D01*
X182466Y939818D01*
X185264Y941434D01*
X188385Y942270D01*
D02*
G37*
G36*
X548385D02*
X549365D01*
Y930635D01*
X537730D01*
Y931615D01*
X538566Y934736D01*
X540182Y937534D01*
X542466Y939818D01*
X545264Y941434D01*
X548385Y942270D01*
D02*
G37*
G36*
X190635D02*
X191615D01*
X194736Y941434D01*
X197534Y939818D01*
X199818Y937534D01*
X201434Y934736D01*
X202270Y931615D01*
Y930635D01*
X190635D01*
Y942270D01*
D02*
G37*
G36*
X550635D02*
X551615D01*
X554736Y941434D01*
X557534Y939818D01*
X559818Y937534D01*
X561434Y934736D01*
X562270Y931615D01*
Y930635D01*
X550635D01*
Y942270D01*
D02*
G37*
G36*
X247324Y939365D02*
X253265D01*
Y928507D01*
X252198Y928648D01*
X250612Y929305D01*
X249250Y930350D01*
X248205Y931712D01*
X247548Y933298D01*
X247324Y935000D01*
Y939365D01*
D02*
G37*
G36*
X339524D02*
X345465D01*
Y928507D01*
X344398Y928648D01*
X342812Y929305D01*
X341450Y930350D01*
X340405Y931712D01*
X339748Y933298D01*
X339524Y935000D01*
Y939365D01*
D02*
G37*
G36*
X254535D02*
X260476D01*
Y935000D01*
X260252Y933298D01*
X259595Y931712D01*
X258550Y930350D01*
X257188Y929305D01*
X255602Y928648D01*
X254535Y928507D01*
Y939365D01*
D02*
G37*
G36*
X346735D02*
X352676D01*
Y935000D01*
X352452Y933298D01*
X351795Y931712D01*
X350750Y930350D01*
X349388Y929305D01*
X347802Y928648D01*
X346735Y928507D01*
Y939365D01*
D02*
G37*
G36*
X37730Y929365D02*
X49365D01*
Y917730D01*
X48385D01*
X45264Y918566D01*
X42466Y920182D01*
X40182Y922466D01*
X38566Y925264D01*
X37730Y928385D01*
Y929365D01*
D02*
G37*
G36*
X50635D02*
X62270D01*
Y928385D01*
X61434Y925264D01*
X59818Y922466D01*
X57534Y920182D01*
X54736Y918566D01*
X51615Y917730D01*
X50635D01*
Y929365D01*
D02*
G37*
G36*
X177730Y929365D02*
X189365D01*
Y917730D01*
X188385D01*
X185264Y918566D01*
X182466Y920182D01*
X180182Y922466D01*
X178566Y925264D01*
X177730Y928385D01*
Y929365D01*
D02*
G37*
G36*
X190635D02*
X202270D01*
Y928385D01*
X201434Y925264D01*
X199818Y922466D01*
X197534Y920182D01*
X194736Y918566D01*
X191615Y917730D01*
X190635D01*
Y929365D01*
D02*
G37*
G36*
X397730Y929365D02*
X409365D01*
Y917730D01*
X408385D01*
X405264Y918566D01*
X402466Y920182D01*
X400182Y922466D01*
X398566Y925264D01*
X397730Y928385D01*
Y929365D01*
D02*
G37*
G36*
X410635D02*
X422270D01*
Y928385D01*
X421434Y925264D01*
X419818Y922466D01*
X417534Y920182D01*
X414736Y918566D01*
X411615Y917730D01*
X410635D01*
Y929365D01*
D02*
G37*
G36*
X537730Y929365D02*
X549365D01*
Y917730D01*
X548385D01*
X545264Y918566D01*
X542466Y920182D01*
X540182Y922466D01*
X538566Y925264D01*
X537730Y928385D01*
Y929365D01*
D02*
G37*
G36*
X550635D02*
X562270D01*
Y928385D01*
X561434Y925264D01*
X559818Y922466D01*
X557534Y920182D01*
X554736Y918566D01*
X551615Y917730D01*
X550635D01*
Y929365D01*
D02*
G37*
G36*
X77500Y983893D02*
X160000D01*
X162446Y983406D01*
X164520Y982020D01*
X181654Y964887D01*
X200648D01*
X203094Y964401D01*
X205168Y963015D01*
X219520Y948662D01*
X220906Y946589D01*
X221393Y944142D01*
Y896848D01*
X274600Y843641D01*
X288270Y857311D01*
X290344Y858697D01*
X292790Y859183D01*
X378811D01*
X443607Y923979D01*
Y944730D01*
X439730D01*
Y965270D01*
X460270D01*
Y944730D01*
X456393D01*
Y921331D01*
X455906Y918885D01*
X454520Y916811D01*
X390500Y852790D01*
X401897Y841393D01*
X461125D01*
Y842500D01*
X461528Y843472D01*
X462500Y843875D01*
X487500D01*
X488472Y843472D01*
X488875Y842500D01*
Y817500D01*
X488472Y816528D01*
X487500Y816125D01*
X462500D01*
X461528Y816528D01*
X461125Y817500D01*
Y828607D01*
X399249D01*
X396803Y829094D01*
X394729Y830480D01*
X378811Y846397D01*
X295438D01*
X280993Y831952D01*
Y806010D01*
X281618Y805385D01*
X282772Y803385D01*
X283370Y801155D01*
Y798845D01*
X282772Y796615D01*
X281618Y794615D01*
X279985Y792982D01*
X279973Y792976D01*
Y786770D01*
X281270D01*
Y774230D01*
X268730D01*
Y786770D01*
X269227D01*
Y792976D01*
X269215Y792982D01*
X267582Y794615D01*
X267576Y794627D01*
X237603D01*
X235547Y795036D01*
X233803Y796200D01*
X192877Y837127D01*
X159726D01*
X150373Y827774D01*
Y819915D01*
X151643Y819389D01*
X152298Y820044D01*
X154051Y820770D01*
X155949D01*
X157702Y820044D01*
X158921Y818824D01*
X184000D01*
X184000Y818824D01*
X185081Y818609D01*
X185997Y817997D01*
X185997Y817997D01*
X247170Y756824D01*
X396830D01*
X399230Y759224D01*
Y760949D01*
X399956Y762702D01*
X401298Y764044D01*
X403051Y764770D01*
X404949D01*
X406702Y764044D01*
X408044Y762702D01*
X408770Y760949D01*
Y759051D01*
X408044Y757298D01*
X406702Y755956D01*
X404949Y755230D01*
X403224D01*
X399997Y752003D01*
X399081Y751391D01*
X398000Y751176D01*
X398000Y751176D01*
X246000D01*
X246000Y751176D01*
X244919Y751391D01*
X244003Y752003D01*
X182830Y813176D01*
X158921D01*
X157702Y811956D01*
X155949Y811230D01*
X154051D01*
X152298Y811956D01*
X151643Y812611D01*
X150373Y812085D01*
Y800785D01*
X175689Y775469D01*
X176854Y773726D01*
X177263Y771670D01*
Y677836D01*
X189226Y665873D01*
X205585D01*
X206111Y667143D01*
X205956Y667298D01*
X205230Y669051D01*
Y670949D01*
X205956Y672702D01*
X207298Y674044D01*
X209051Y674770D01*
X210949D01*
X212702Y674044D01*
X212902Y673844D01*
X327408D01*
X419156Y765592D01*
Y788408D01*
X408334Y799230D01*
X408051D01*
X406298Y799956D01*
X404956Y801298D01*
X404230Y803051D01*
Y804949D01*
X404956Y806702D01*
X406298Y808044D01*
X408051Y808770D01*
X409949D01*
X411702Y808044D01*
X413044Y806702D01*
X413770Y804949D01*
Y804666D01*
X414960Y803476D01*
X416230Y804002D01*
Y804949D01*
X416956Y806702D01*
X418298Y808044D01*
X420051Y808770D01*
X421949D01*
X423702Y808044D01*
X425044Y806702D01*
X425770Y804949D01*
Y804666D01*
X441718Y788718D01*
X442551Y787471D01*
X442844Y786000D01*
X442844Y786000D01*
Y434000D01*
X442844Y434000D01*
X442551Y432529D01*
X441718Y431282D01*
X379718Y369282D01*
X379718Y369282D01*
X378471Y368449D01*
X377000Y368156D01*
X377000Y368156D01*
X190902D01*
X190702Y367956D01*
X188949Y367230D01*
X187051D01*
X185467Y367886D01*
X50215D01*
X49148Y366038D01*
X47422Y364312D01*
X45308Y363092D01*
X42950Y362460D01*
X40510D01*
X38152Y363092D01*
X36038Y364312D01*
X34312Y366038D01*
X33092Y368152D01*
X32460Y370510D01*
Y372950D01*
X33092Y375308D01*
X34312Y377422D01*
X36038Y379148D01*
X38152Y380368D01*
X40510Y381000D01*
X42950D01*
X45308Y380368D01*
X47422Y379148D01*
X49148Y377422D01*
X50215Y375574D01*
X184828D01*
X185298Y376044D01*
X187051Y376770D01*
X188949D01*
X190702Y376044D01*
X190902Y375844D01*
X375408D01*
X435156Y435592D01*
Y784408D01*
X427803Y791761D01*
X426683Y791252D01*
X426614Y791153D01*
X426844Y790000D01*
X426844Y790000D01*
Y764000D01*
X426844Y764000D01*
X426551Y762529D01*
X425718Y761282D01*
X331718Y667282D01*
X331718Y667282D01*
X330471Y666449D01*
X329000Y666156D01*
X278806D01*
X278421Y664886D01*
X279299Y664299D01*
X280464Y662556D01*
X280873Y660500D01*
X280464Y658444D01*
X279299Y656701D01*
X277556Y655536D01*
X275500Y655127D01*
X187000D01*
X184944Y655536D01*
X183201Y656701D01*
X168090Y671811D01*
X166926Y673554D01*
X166517Y675610D01*
Y769444D01*
X156441Y779519D01*
X155177Y778988D01*
X154417Y777155D01*
X152845Y775583D01*
X150792Y774732D01*
X148568D01*
X146515Y775583D01*
X144943Y777155D01*
X144092Y779208D01*
Y781432D01*
X144943Y783485D01*
X146515Y785057D01*
X148348Y785817D01*
X148879Y787081D01*
X141201Y794760D01*
X140036Y796503D01*
X139627Y798559D01*
Y830000D01*
X140036Y832056D01*
X141201Y833799D01*
X153701Y846300D01*
X155444Y847464D01*
X157500Y847873D01*
X195103D01*
X197159Y847464D01*
X198902Y846300D01*
X239829Y805373D01*
X267576D01*
X267582Y805385D01*
X268207Y806010D01*
Y831952D01*
X210480Y889680D01*
X209094Y891754D01*
X208607Y894200D01*
Y941494D01*
X198000Y952102D01*
X179006D01*
X176559Y952588D01*
X174485Y953974D01*
X157352Y971107D01*
X80148D01*
X73893Y964852D01*
Y958358D01*
X73406Y955911D01*
X72020Y953838D01*
X66163Y947980D01*
X64089Y946594D01*
X61642Y946107D01*
X42648D01*
X33893Y937352D01*
Y877648D01*
X49520Y862020D01*
X50906Y859946D01*
X51393Y857500D01*
Y848875D01*
X60000D01*
X60972Y848472D01*
X61375Y847500D01*
Y815000D01*
X60972Y814028D01*
X60000Y813625D01*
X30000D01*
X29028Y814028D01*
X28625Y815000D01*
Y847500D01*
X29028Y848472D01*
X30000Y848875D01*
X38607D01*
Y854852D01*
X22980Y870480D01*
X21594Y872554D01*
X21107Y875000D01*
Y940000D01*
X21594Y942447D01*
X22980Y944520D01*
X35480Y957020D01*
X37554Y958406D01*
X40000Y958893D01*
X58994D01*
X61107Y961006D01*
Y967500D01*
X61594Y969946D01*
X62980Y972020D01*
X72980Y982020D01*
X75054Y983406D01*
X77500Y983893D01*
D02*
G37*
G36*
X293730Y816870D02*
X299365D01*
Y811235D01*
X293730D01*
Y816870D01*
D02*
G37*
G36*
X300635D02*
X306270D01*
Y811235D01*
X300635D01*
Y816870D01*
D02*
G37*
G36*
X293730Y809965D02*
X299365D01*
Y804330D01*
X293730D01*
Y809965D01*
D02*
G37*
G36*
X300635D02*
X306270D01*
Y804330D01*
X300635D01*
Y809965D01*
D02*
G37*
G36*
X324245Y808770D02*
X324765D01*
Y800635D01*
X316630D01*
Y801155D01*
X317228Y803385D01*
X318382Y805385D01*
X320015Y807018D01*
X322015Y808172D01*
X324245Y808770D01*
D02*
G37*
G36*
X326035D02*
X326555D01*
X328785Y808172D01*
X330785Y807018D01*
X332418Y805385D01*
X333572Y803385D01*
X334170Y801155D01*
Y800635D01*
X326035D01*
Y808770D01*
D02*
G37*
G36*
X316630Y799365D02*
X324765D01*
Y791230D01*
X324245D01*
X322015Y791828D01*
X320015Y792982D01*
X318382Y794615D01*
X317228Y796615D01*
X316630Y798845D01*
Y799365D01*
D02*
G37*
G36*
X326035D02*
X334170D01*
Y798845D01*
X333572Y796615D01*
X332418Y794615D01*
X330785Y792982D01*
X328785Y791828D01*
X326555Y791230D01*
X326035D01*
Y799365D01*
D02*
G37*
G36*
X408568Y785908D02*
X410792D01*
X412845Y785057D01*
X414417Y783485D01*
X415268Y781432D01*
Y779209D01*
X414417Y777155D01*
X412845Y775583D01*
X410792Y774732D01*
X408568D01*
X406515Y775583D01*
X404943Y777155D01*
X404092Y779209D01*
Y781432D01*
X404943Y783485D01*
X406515Y785057D01*
X408568Y785908D01*
D02*
G37*
G36*
X293730Y800870D02*
X306270D01*
Y788330D01*
X305373D01*
Y781624D01*
X305385Y781618D01*
X307018Y779985D01*
X308172Y777985D01*
X308770Y775755D01*
Y773445D01*
X308172Y771215D01*
X307018Y769215D01*
X305385Y767582D01*
X303385Y766428D01*
X301155Y765830D01*
X298845D01*
X296615Y766428D01*
X294615Y767582D01*
X292982Y769215D01*
X291828Y771215D01*
X291230Y773445D01*
Y775755D01*
X291828Y777985D01*
X292982Y779985D01*
X294615Y781618D01*
X294627Y781624D01*
Y788330D01*
X293730D01*
Y800870D01*
D02*
G37*
G36*
X268730Y770770D02*
X274365D01*
Y765135D01*
X268730D01*
Y770770D01*
D02*
G37*
G36*
X275635D02*
X281270D01*
Y765135D01*
X275635D01*
Y770770D01*
D02*
G37*
G36*
X57539Y791270D02*
X59365D01*
Y760635D01*
X28730D01*
Y762461D01*
X29500Y767322D01*
X31021Y772003D01*
X33256Y776389D01*
X36149Y780371D01*
X39629Y783851D01*
X43611Y786745D01*
X47997Y788979D01*
X52678Y790500D01*
X57539Y791270D01*
D02*
G37*
G36*
X60635D02*
X62461D01*
X67322Y790500D01*
X72003Y788979D01*
X76389Y786745D01*
X80371Y783851D01*
X83851Y780371D01*
X86744Y776389D01*
X88979Y772003D01*
X90500Y767322D01*
X91270Y762461D01*
Y760635D01*
X60635D01*
Y791270D01*
D02*
G37*
G36*
X537539D02*
X539365D01*
Y760635D01*
X508730D01*
Y762461D01*
X509500Y767322D01*
X511021Y772003D01*
X513256Y776389D01*
X516149Y780371D01*
X519629Y783851D01*
X523611Y786745D01*
X527996Y788979D01*
X532678Y790500D01*
X537539Y791270D01*
D02*
G37*
G36*
X540635D02*
X542461D01*
X547322Y790500D01*
X552004Y788979D01*
X556389Y786745D01*
X560371Y783851D01*
X563851Y780371D01*
X566744Y776389D01*
X568979Y772003D01*
X570500Y767322D01*
X571270Y762461D01*
Y760635D01*
X540635D01*
Y791270D01*
D02*
G37*
G36*
X268730Y763865D02*
X274365D01*
Y758230D01*
X268730D01*
Y763865D01*
D02*
G37*
G36*
X275635D02*
X281270D01*
Y758230D01*
X275635D01*
Y763865D01*
D02*
G37*
G36*
X476280Y771770D02*
X478720D01*
X481078Y771138D01*
X483192Y769918D01*
X484918Y768192D01*
X486138Y766078D01*
X486770Y763720D01*
Y761280D01*
X486138Y758922D01*
X484918Y756808D01*
X483192Y755082D01*
X481078Y753862D01*
X478720Y753230D01*
X476280D01*
X473922Y753862D01*
X471808Y755082D01*
X470082Y756808D01*
X468862Y758922D01*
X468230Y761280D01*
Y763720D01*
X468862Y766078D01*
X470082Y768192D01*
X471808Y769918D01*
X473922Y771138D01*
X476280Y771770D01*
D02*
G37*
G36*
X449208Y745268D02*
X451432D01*
X453485Y744417D01*
X455057Y742845D01*
X455908Y740791D01*
Y738568D01*
X455057Y736515D01*
X453485Y734943D01*
X451432Y734092D01*
X449208D01*
X447155Y734943D01*
X445583Y736515D01*
X444732Y738568D01*
Y740791D01*
X445583Y742845D01*
X447155Y744417D01*
X449208Y745268D01*
D02*
G37*
G36*
X189209Y745268D02*
X191432D01*
X193485Y744417D01*
X195057Y742845D01*
X195908Y740791D01*
Y738568D01*
X195057Y736515D01*
X193485Y734943D01*
X191432Y734092D01*
X189209D01*
X187155Y734943D01*
X185583Y736515D01*
X184732Y738568D01*
Y740791D01*
X185583Y742845D01*
X187155Y744417D01*
X189209Y745268D01*
D02*
G37*
G36*
X28730Y759365D02*
X59365D01*
Y728730D01*
X57539D01*
X52678Y729500D01*
X47997Y731021D01*
X43611Y733255D01*
X39629Y736149D01*
X36149Y739629D01*
X33256Y743611D01*
X31021Y747997D01*
X29500Y752678D01*
X28730Y757539D01*
Y759365D01*
D02*
G37*
G36*
X60635D02*
X91270D01*
Y757539D01*
X90500Y752678D01*
X88979Y747997D01*
X86744Y743611D01*
X83851Y739629D01*
X80371Y736149D01*
X76389Y733255D01*
X72003Y731021D01*
X67322Y729500D01*
X62461Y728730D01*
X60635D01*
Y759365D01*
D02*
G37*
G36*
X508730D02*
X539365D01*
Y728730D01*
X537539D01*
X532678Y729500D01*
X527996Y731021D01*
X523611Y733255D01*
X519629Y736149D01*
X516149Y739629D01*
X513256Y743611D01*
X511021Y747997D01*
X509500Y752678D01*
X508730Y757539D01*
Y759365D01*
D02*
G37*
G36*
X540635D02*
X571270D01*
Y757539D01*
X570500Y752678D01*
X568979Y747997D01*
X566744Y743611D01*
X563851Y739629D01*
X560371Y736149D01*
X556389Y733255D01*
X552004Y731021D01*
X547322Y729500D01*
X542461Y728730D01*
X540635D01*
Y759365D01*
D02*
G37*
G36*
X41280Y436770D02*
X43720D01*
X46078Y436138D01*
X48192Y434918D01*
X49918Y433192D01*
X51138Y431078D01*
X51770Y428720D01*
Y426280D01*
X51138Y423922D01*
X49918Y421808D01*
X48192Y420082D01*
X46078Y418862D01*
X43720Y418230D01*
X41280D01*
X38922Y418862D01*
X36808Y420082D01*
X35082Y421808D01*
X33862Y423922D01*
X33230Y426280D01*
Y428720D01*
X33862Y431078D01*
X35082Y433192D01*
X36808Y434918D01*
X38922Y436138D01*
X41280Y436770D01*
D02*
G37*
G36*
X403773Y227540D02*
X404230D01*
Y211270D01*
X387960D01*
Y211728D01*
X388634Y215116D01*
X389956Y218308D01*
X391876Y221181D01*
X394319Y223624D01*
X397192Y225544D01*
X400384Y226866D01*
X403773Y227540D01*
D02*
G37*
G36*
X352772D02*
X353230D01*
Y211270D01*
X336960D01*
Y211728D01*
X337634Y215116D01*
X338956Y218308D01*
X340876Y221181D01*
X343319Y223624D01*
X346192Y225544D01*
X349384Y226866D01*
X352772Y227540D01*
D02*
G37*
G36*
X406770D02*
X407228D01*
X410616Y226866D01*
X413808Y225544D01*
X416681Y223624D01*
X419124Y221181D01*
X421044Y218308D01*
X422366Y215116D01*
X423040Y211728D01*
Y211270D01*
X406770D01*
Y227540D01*
D02*
G37*
G36*
X355770D02*
X356228D01*
X359616Y226866D01*
X362808Y225544D01*
X365681Y223624D01*
X368124Y221181D01*
X370044Y218308D01*
X371366Y215116D01*
X372040Y211728D01*
Y211270D01*
X355770D01*
Y227540D01*
D02*
G37*
G36*
X336960Y208730D02*
X353230D01*
Y192460D01*
X352772D01*
X349384Y193134D01*
X346192Y194456D01*
X343319Y196376D01*
X340876Y198819D01*
X338956Y201692D01*
X337634Y204884D01*
X336960Y208272D01*
Y208730D01*
D02*
G37*
G36*
X355770D02*
X372040D01*
Y208272D01*
X371366Y204884D01*
X370044Y201692D01*
X368124Y198819D01*
X365681Y196376D01*
X362808Y194456D01*
X359616Y193134D01*
X356228Y192460D01*
X355770D01*
Y208730D01*
D02*
G37*
G36*
X387960D02*
X404230D01*
Y192460D01*
X403773D01*
X400384Y193134D01*
X397192Y194456D01*
X394319Y196376D01*
X391876Y198819D01*
X389956Y201692D01*
X388634Y204884D01*
X387960Y208272D01*
Y208730D01*
D02*
G37*
G36*
X406770D02*
X423040D01*
Y208272D01*
X422366Y204884D01*
X421044Y201692D01*
X419124Y198819D01*
X416681Y196376D01*
X413808Y194456D01*
X410616Y193134D01*
X407228Y192460D01*
X406770D01*
Y208730D01*
D02*
G37*
G36*
X378273Y152540D02*
X378730D01*
Y136270D01*
X362460D01*
Y136728D01*
X363134Y140116D01*
X364456Y143308D01*
X366376Y146181D01*
X368819Y148624D01*
X371692Y150544D01*
X374884Y151866D01*
X378273Y152540D01*
D02*
G37*
G36*
X381270D02*
X381728D01*
X385116Y151866D01*
X388308Y150544D01*
X391181Y148624D01*
X393624Y146181D01*
X395544Y143308D01*
X396866Y140116D01*
X397540Y136728D01*
Y136270D01*
X381270D01*
Y152540D01*
D02*
G37*
G36*
X362460Y133730D02*
X378730D01*
Y117460D01*
X378273D01*
X374884Y118134D01*
X371692Y119456D01*
X368819Y121376D01*
X366376Y123819D01*
X364456Y126692D01*
X363134Y129884D01*
X362460Y133272D01*
Y133730D01*
D02*
G37*
G36*
X381270D02*
X397540D01*
Y133272D01*
X396866Y129884D01*
X395544Y126692D01*
X393624Y123819D01*
X391181Y121376D01*
X388308Y119456D01*
X385116Y118134D01*
X381728Y117460D01*
X381270D01*
Y133730D01*
D02*
G37*
G36*
X57539Y91270D02*
X59365D01*
Y60635D01*
X28730D01*
Y62461D01*
X29500Y67322D01*
X31021Y72003D01*
X33256Y76389D01*
X36149Y80371D01*
X39629Y83851D01*
X43611Y86744D01*
X47997Y88979D01*
X52678Y90500D01*
X57539Y91270D01*
D02*
G37*
G36*
X60635D02*
X62461D01*
X67322Y90500D01*
X72003Y88979D01*
X76389Y86744D01*
X80371Y83851D01*
X83851Y80371D01*
X86744Y76389D01*
X88979Y72003D01*
X90500Y67322D01*
X91270Y62461D01*
Y60635D01*
X60635D01*
Y91270D01*
D02*
G37*
G36*
X537539Y91270D02*
X539365D01*
Y60635D01*
X508730D01*
Y62461D01*
X509500Y67322D01*
X511021Y72003D01*
X513256Y76389D01*
X516149Y80371D01*
X519629Y83851D01*
X523611Y86744D01*
X527996Y88979D01*
X532678Y90500D01*
X537539Y91270D01*
D02*
G37*
G36*
X540635D02*
X542461D01*
X547322Y90500D01*
X552004Y88979D01*
X556389Y86744D01*
X560371Y83851D01*
X563851Y80371D01*
X566744Y76389D01*
X568979Y72003D01*
X570500Y67322D01*
X571270Y62461D01*
Y60635D01*
X540635D01*
Y91270D01*
D02*
G37*
G36*
X28730Y59365D02*
X59365D01*
Y28730D01*
X57539D01*
X52678Y29500D01*
X47997Y31021D01*
X43611Y33256D01*
X39629Y36149D01*
X36149Y39629D01*
X33256Y43611D01*
X31021Y47997D01*
X29500Y52678D01*
X28730Y57539D01*
Y59365D01*
D02*
G37*
G36*
X60635D02*
X91270D01*
Y57539D01*
X90500Y52678D01*
X88979Y47997D01*
X86744Y43611D01*
X83851Y39629D01*
X80371Y36149D01*
X76389Y33256D01*
X72003Y31021D01*
X67322Y29500D01*
X62461Y28730D01*
X60635D01*
Y59365D01*
D02*
G37*
G36*
X508730Y59365D02*
X539365D01*
Y28730D01*
X537539D01*
X532678Y29500D01*
X527996Y31021D01*
X523611Y33256D01*
X519629Y36149D01*
X516149Y39629D01*
X513256Y43611D01*
X511021Y47997D01*
X509500Y52678D01*
X508730Y57539D01*
Y59365D01*
D02*
G37*
G36*
X540635D02*
X571270D01*
Y57539D01*
X570500Y52678D01*
X568979Y47997D01*
X566744Y43611D01*
X563851Y39629D01*
X560371Y36149D01*
X556389Y33256D01*
X552004Y31021D01*
X547322Y29500D01*
X542461Y28730D01*
X540635D01*
Y59365D01*
D02*
G37*
%LPD*%
G36*
X134000Y919000D02*
X112000D01*
Y568000D01*
X427000D01*
Y686000D01*
X366000Y686000D01*
X350000Y670000D01*
Y620000D01*
X183000D01*
X134000Y669000D01*
Y875000D01*
X146000D01*
Y902000D01*
X165000D01*
Y957500D01*
X161005D01*
X160232Y956492D01*
X160270Y956352D01*
Y955635D01*
X150000D01*
X139730D01*
Y956352D01*
X139768Y956492D01*
X138995Y957500D01*
X134000D01*
Y919000D01*
D02*
G37*
%LPC*%
G36*
X139730Y954365D02*
X149365D01*
Y944730D01*
X148648D01*
X146036Y945430D01*
X143694Y946782D01*
X141782Y948694D01*
X140430Y951036D01*
X139730Y953648D01*
Y954365D01*
D02*
G37*
G36*
X150635D02*
X160270D01*
Y953648D01*
X159570Y951036D01*
X158218Y948694D01*
X156306Y946782D01*
X153964Y945430D01*
X151352Y944730D01*
X150635D01*
Y954365D01*
D02*
G37*
G36*
X378273Y682540D02*
X378730D01*
Y666270D01*
X362460D01*
Y666728D01*
X363134Y670116D01*
X364456Y673308D01*
X366376Y676181D01*
X368819Y678624D01*
X371692Y680544D01*
X374884Y681866D01*
X378273Y682540D01*
D02*
G37*
G36*
X381270D02*
X381728D01*
X385116Y681866D01*
X388308Y680544D01*
X391181Y678624D01*
X393624Y676181D01*
X395544Y673308D01*
X396866Y670116D01*
X397540Y666728D01*
Y666270D01*
X381270D01*
Y682540D01*
D02*
G37*
G36*
X362460Y663730D02*
X378730D01*
Y647460D01*
X378273D01*
X374884Y648134D01*
X371692Y649456D01*
X368819Y651376D01*
X366376Y653819D01*
X364456Y656692D01*
X363134Y659884D01*
X362460Y663272D01*
Y663730D01*
D02*
G37*
G36*
X381270D02*
X397540D01*
Y663272D01*
X396866Y659884D01*
X395544Y656692D01*
X393624Y653819D01*
X391181Y651376D01*
X388308Y649456D01*
X385116Y648134D01*
X381728Y647460D01*
X381270D01*
Y663730D01*
D02*
G37*
G36*
X128780Y664270D02*
X131220D01*
X133578Y663638D01*
X135692Y662418D01*
X137418Y660692D01*
X138638Y658578D01*
X139270Y656220D01*
Y653780D01*
X138638Y651422D01*
X137418Y649308D01*
X135692Y647582D01*
X133578Y646362D01*
X131220Y645730D01*
X128780D01*
X126422Y646362D01*
X124308Y647582D01*
X122582Y649308D01*
X121362Y651422D01*
X120730Y653780D01*
Y656220D01*
X121362Y658578D01*
X122582Y660692D01*
X124308Y662418D01*
X126422Y663638D01*
X128780Y664270D01*
D02*
G37*
G36*
X352772Y607540D02*
X353230D01*
Y591270D01*
X336960D01*
Y591727D01*
X337634Y595116D01*
X338956Y598308D01*
X340876Y601181D01*
X343319Y603624D01*
X346192Y605544D01*
X349384Y606866D01*
X352772Y607540D01*
D02*
G37*
G36*
X403773D02*
X404230D01*
Y591270D01*
X387960D01*
Y591727D01*
X388634Y595116D01*
X389956Y598308D01*
X391876Y601181D01*
X394319Y603624D01*
X397192Y605544D01*
X400384Y606866D01*
X403773Y607540D01*
D02*
G37*
G36*
X355770D02*
X356228D01*
X359616Y606866D01*
X362808Y605544D01*
X365681Y603624D01*
X368124Y601181D01*
X370044Y598308D01*
X371366Y595116D01*
X372040Y591727D01*
Y591270D01*
X355770D01*
Y607540D01*
D02*
G37*
G36*
X406770D02*
X407228D01*
X410616Y606866D01*
X413808Y605544D01*
X416681Y603624D01*
X419124Y601181D01*
X421044Y598308D01*
X422366Y595116D01*
X423040Y591727D01*
Y591270D01*
X406770D01*
Y607540D01*
D02*
G37*
G36*
X336960Y588730D02*
X353230D01*
Y572460D01*
X352772D01*
X349384Y573134D01*
X346192Y574456D01*
X343319Y576376D01*
X340876Y578819D01*
X338956Y581692D01*
X337634Y584884D01*
X336960Y588273D01*
Y588730D01*
D02*
G37*
G36*
X355770D02*
X372040D01*
Y588273D01*
X371366Y584884D01*
X370044Y581692D01*
X368124Y578819D01*
X365681Y576376D01*
X362808Y574456D01*
X359616Y573134D01*
X356228Y572460D01*
X355770D01*
Y588730D01*
D02*
G37*
G36*
X387960D02*
X404230D01*
Y572460D01*
X403773D01*
X400384Y573134D01*
X397192Y574456D01*
X394319Y576376D01*
X391876Y578819D01*
X389956Y581692D01*
X388634Y584884D01*
X387960Y588273D01*
Y588730D01*
D02*
G37*
G36*
X406770D02*
X423040D01*
Y588273D01*
X422366Y584884D01*
X421044Y581692D01*
X419124Y578819D01*
X416681Y576376D01*
X413808Y574456D01*
X410616Y573134D01*
X407228Y572460D01*
X406770D01*
Y588730D01*
D02*
G37*
%LPD*%
G36*
X462500Y817500D02*
X487500D01*
Y842500D01*
X462500D01*
Y817500D01*
D02*
G37*
G36*
X30000Y815000D02*
X60000D01*
Y847500D01*
X30000D01*
Y815000D01*
D02*
G37*
D10*
X317500Y961991D02*
X317491Y962000D01*
D11*
X184000Y816000D02*
X155000D01*
X246000Y754000D02*
X184000Y816000D01*
X398000Y754000D02*
X246000D01*
X404000Y760000D02*
X398000Y754000D01*
D20*
X287488Y962000D02*
D03*
Y978000D02*
D03*
X317491Y962000D02*
D03*
Y978000D02*
D03*
X300000Y794600D02*
D03*
Y810600D02*
D03*
X275000Y780500D02*
D03*
Y764500D02*
D03*
D51*
X439000Y434000D02*
X377000Y372000D01*
X188000D01*
X187730Y371730D02*
X41730D01*
X188000Y372000D02*
X187730Y371730D01*
X439000Y786000D02*
X421000Y804000D01*
X439000Y434000D02*
Y786000D01*
X423000Y790000D02*
X409000Y804000D01*
X423000Y764000D02*
Y790000D01*
Y764000D02*
X329000Y670000D01*
X210000D01*
D52*
X45000Y830000D02*
Y857500D01*
X67500Y958358D02*
Y967500D01*
Y958358D02*
X61642Y952500D01*
X40000D02*
X27500Y940000D01*
X61642Y952500D02*
X40000D01*
X27500Y875000D02*
Y940000D01*
X45000Y857500D02*
X27500Y875000D01*
X160000Y977500D02*
X77500D01*
X67500Y967500D01*
X200648Y958494D02*
X179006D01*
X160000Y977500D01*
X215000Y894200D02*
Y944142D01*
X200648Y958494D01*
X465000Y835000D02*
X399249D01*
X274600Y834600D02*
X215000Y894200D01*
X399249Y835000D02*
X381459Y852790D01*
X274600Y800000D02*
Y834600D01*
X381459Y852790D02*
X292790D01*
X274600Y834600D01*
X450000Y921331D02*
X381459Y852790D01*
X450000Y921331D02*
Y955000D01*
D53*
X274600Y780900D02*
Y800000D01*
X237603D01*
X195103Y842500D01*
X157500D01*
X145000Y830000D01*
X171890Y771670D02*
X145000Y798559D01*
Y830000D01*
X187000Y660500D02*
X171890Y675610D01*
Y771670D01*
X275500Y660500D02*
X187000D01*
X300000Y774600D02*
Y794600D01*
D55*
X287500Y947500D02*
Y964491D01*
X317500Y947500D02*
Y961991D01*
D56*
X130000Y655000D02*
D03*
X477500Y762500D02*
D03*
X41730Y371730D02*
D03*
X42500Y427500D02*
D03*
D57*
X550000Y930000D02*
D03*
X410000D02*
D03*
Y980000D02*
D03*
X550000D02*
D03*
X190000Y930000D02*
D03*
X50000D02*
D03*
Y980000D02*
D03*
X190000D02*
D03*
D58*
X450000Y955000D02*
D03*
X90000D02*
D03*
D59*
X510000D02*
D03*
X480000D02*
D03*
X150000D02*
D03*
X120000D02*
D03*
D60*
X325400Y800000D02*
D03*
X300000Y774600D02*
D03*
X274600Y800000D02*
D03*
D61*
X60000Y760000D02*
D03*
X540000D02*
D03*
X60000Y60000D02*
D03*
X540000Y60000D02*
D03*
D62*
X149680Y780320D02*
D03*
X190320Y739680D02*
D03*
X409680Y780320D02*
D03*
X450320Y739680D02*
D03*
D63*
X380000Y135000D02*
D03*
X405500Y210000D02*
D03*
X354500D02*
D03*
X380000Y665000D02*
D03*
X354500Y590000D02*
D03*
X405500D02*
D03*
D64*
X253900Y940000D02*
D03*
X346100D02*
D03*
Y985000D02*
D03*
X253900D02*
D03*
D65*
X267000Y945600D02*
D03*
X333000D02*
D03*
D66*
X421000Y804000D02*
D03*
X220000Y839000D02*
D03*
X155000Y816000D02*
D03*
X242000Y691000D02*
D03*
X258000Y736000D02*
D03*
X275500Y660500D02*
D03*
X37500Y840000D02*
D03*
X52500D02*
D03*
X188000Y372000D02*
D03*
X482500Y837500D02*
D03*
X37500Y825000D02*
D03*
X52500D02*
D03*
X16000Y880000D02*
D03*
X106000Y866000D02*
D03*
X71342Y496342D02*
D03*
X121342Y446342D02*
D03*
X467500Y822500D02*
D03*
X392000Y894000D02*
D03*
X525000Y625000D02*
D03*
X125000Y525000D02*
D03*
X275000D02*
D03*
X425000D02*
D03*
X150000Y75000D02*
D03*
X300000D02*
D03*
X450000D02*
D03*
X275000Y450000D02*
D03*
X425000D02*
D03*
X125000Y275000D02*
D03*
X275000D02*
D03*
X425000D02*
D03*
X75000Y200000D02*
D03*
Y350000D02*
D03*
X525000Y500000D02*
D03*
Y350000D02*
D03*
Y200000D02*
D03*
X154270Y893730D02*
D03*
X145000Y867000D02*
D03*
X207000Y877000D02*
D03*
X322000Y683000D02*
D03*
X141000Y393500D02*
D03*
X172000Y379000D02*
D03*
X409000Y804000D02*
D03*
X210000Y670000D02*
D03*
X404000Y760000D02*
D03*
X287500Y947500D02*
D03*
X317500D02*
D03*
M02*
