G04*
G04 #@! TF.GenerationSoftware,Altium Limited,Altium Designer,22.2.1 (43)*
G04*
G04 Layer_Color=16711935*
%FSLAX44Y44*%
%MOMM*%
G71*
G04*
G04 #@! TF.SameCoordinates,7C5D536F-F001-484F-B139-385EAFE792E0*
G04*
G04*
G04 #@! TF.FilePolarity,Negative*
G04*
G01*
G75*
%ADD34R,1.1016X1.1016*%
%ADD41C,1.7016*%
%ADD42C,2.3016*%
%ADD43R,1.9016X1.9016*%
%ADD44C,1.9016*%
%ADD45C,1.6016*%
%ADD46C,6.1016*%
%ADD47C,0.7112*%
%ADD48C,3.1016*%
%ADD49O,1.1516X2.1516*%
%ADD50C,0.9516*%
D34*
X312512Y962000D02*
D03*
Y978000D02*
D03*
X282509Y962000D02*
D03*
Y978000D02*
D03*
X300000Y794600D02*
D03*
Y810600D02*
D03*
X325000Y780500D02*
D03*
Y764500D02*
D03*
D41*
X470000Y655000D02*
D03*
X122500Y762500D02*
D03*
X558270Y371730D02*
D03*
X557500Y427500D02*
D03*
D42*
X50000Y930000D02*
D03*
X190000D02*
D03*
Y980000D02*
D03*
X50000D02*
D03*
X410000Y930000D02*
D03*
X550000D02*
D03*
Y980000D02*
D03*
X410000D02*
D03*
D43*
X150000Y955000D02*
D03*
X510000D02*
D03*
D44*
X90000D02*
D03*
X120000D02*
D03*
X450000D02*
D03*
X480000D02*
D03*
D45*
X274600Y800000D02*
D03*
X300000Y774600D02*
D03*
X325400Y800000D02*
D03*
D46*
X540000Y760000D02*
D03*
X60000D02*
D03*
X540000Y60000D02*
D03*
X60000Y60000D02*
D03*
D47*
X450320Y780320D02*
D03*
X409680Y739680D02*
D03*
X190320Y780320D02*
D03*
X149680Y739680D02*
D03*
D48*
X220000Y135000D02*
D03*
X194500Y210000D02*
D03*
X245500D02*
D03*
X220000Y665000D02*
D03*
X245500Y590000D02*
D03*
X194500D02*
D03*
D49*
X346100Y940000D02*
D03*
X253900D02*
D03*
Y985000D02*
D03*
X346100D02*
D03*
D50*
X333000Y945600D02*
D03*
X267000D02*
D03*
M02*
