G04*
G04 #@! TF.GenerationSoftware,Altium Limited,Altium Designer,22.2.1 (43)*
G04*
G04 Layer_Physical_Order=1*
G04 Layer_Color=255*
%FSLAX44Y44*%
%MOMM*%
G71*
G04*
G04 #@! TF.SameCoordinates,7C5D536F-F001-484F-B139-385EAFE792E0*
G04*
G04*
G04 #@! TF.FilePolarity,Positive*
G04*
G01*
G75*
%ADD10C,0.2540*%
%ADD11C,0.3000*%
%ADD13R,1.1000X0.6000*%
%ADD14R,0.6000X1.5500*%
%ADD15R,0.4000X0.7500*%
%ADD16R,0.3500X0.7500*%
%ADD17R,1.1938X0.7874*%
%ADD18R,0.3048X0.8636*%
%ADD19R,1.0000X1.0000*%
%ADD20R,1.0000X1.0000*%
%ADD21R,2.2500X1.8000*%
%ADD22R,1.1500X1.8000*%
%ADD23R,0.8000X0.8000*%
%ADD24R,0.2000X1.2500*%
%ADD25R,0.5000X1.2500*%
%ADD26R,0.8000X0.8000*%
%ADD51C,0.5000*%
%ADD52C,1.0000*%
%ADD53C,0.8000*%
%ADD54C,0.6000*%
%ADD55C,0.4000*%
%ADD56C,1.6000*%
%ADD57C,2.2000*%
%ADD58R,1.8000X1.8000*%
%ADD59C,1.8000*%
%ADD60C,1.5000*%
%ADD61C,6.0000*%
%ADD62C,0.6096*%
%ADD63C,3.0000*%
%ADD64O,1.0500X2.0500*%
%ADD65C,0.8500*%
%ADD66C,0.7000*%
G36*
X20000Y997961D02*
X18231D01*
X14761Y997271D01*
X11492Y995917D01*
X8551Y993951D01*
X6049Y991449D01*
X4083Y988508D01*
X2729Y985239D01*
X2039Y981769D01*
X2039Y980000D01*
X2039Y20000D01*
X2039Y18231D01*
X2729Y14761D01*
X4083Y11492D01*
X6049Y8551D01*
X8551Y6049D01*
X11492Y4083D01*
X14761Y2729D01*
X18231Y2039D01*
X581769D01*
X585239Y2729D01*
X588508Y4083D01*
X591449Y6049D01*
X593951Y8551D01*
X595917Y11492D01*
X597271Y14761D01*
X597961Y18231D01*
Y20000D01*
Y980000D01*
Y981769D01*
X597271Y985239D01*
X595917Y988508D01*
X593951Y991449D01*
X591450Y993951D01*
X588508Y995917D01*
X585239Y997271D01*
X581769Y997961D01*
X580000Y997961D01*
X20000Y997961D01*
D02*
G37*
%LPC*%
G36*
X253265Y996493D02*
Y985635D01*
X247324D01*
Y990000D01*
X247548Y991702D01*
X248205Y993288D01*
X249250Y994650D01*
X250612Y995695D01*
X252198Y996352D01*
X253265Y996493D01*
D02*
G37*
G36*
X345465D02*
Y985635D01*
X339524D01*
Y990000D01*
X339748Y991702D01*
X340405Y993288D01*
X341450Y994650D01*
X342812Y995695D01*
X344398Y996352D01*
X345465Y996493D01*
D02*
G37*
G36*
X254535D02*
X255602Y996352D01*
X257188Y995695D01*
X258550Y994650D01*
X259595Y993288D01*
X260252Y991702D01*
X260476Y990000D01*
Y985635D01*
X254535D01*
Y996493D01*
D02*
G37*
G36*
X346735D02*
X347802Y996352D01*
X349388Y995695D01*
X350750Y994650D01*
X351795Y993288D01*
X352452Y991702D01*
X352676Y990000D01*
Y985635D01*
X346735D01*
Y996493D01*
D02*
G37*
G36*
X48385Y992270D02*
X49365D01*
Y980635D01*
X37730D01*
Y981615D01*
X38566Y984736D01*
X40182Y987534D01*
X42466Y989818D01*
X45264Y991434D01*
X48385Y992270D01*
D02*
G37*
G36*
X50635D02*
X51615D01*
X54736Y991434D01*
X57534Y989818D01*
X59818Y987534D01*
X61434Y984736D01*
X62270Y981615D01*
Y980635D01*
X50635D01*
Y992270D01*
D02*
G37*
G36*
X408385D02*
X409365D01*
Y980635D01*
X397730D01*
Y981615D01*
X398566Y984736D01*
X400182Y987534D01*
X402466Y989818D01*
X405264Y991434D01*
X408385Y992270D01*
D02*
G37*
G36*
X410635D02*
X411615D01*
X414736Y991434D01*
X417534Y989818D01*
X419818Y987534D01*
X421434Y984736D01*
X422270Y981615D01*
Y980635D01*
X410635D01*
Y992270D01*
D02*
G37*
G36*
X188385D02*
X189365D01*
Y980635D01*
X177730D01*
Y981615D01*
X178566Y984736D01*
X180182Y987534D01*
X182466Y989818D01*
X185264Y991434D01*
X188385Y992270D01*
D02*
G37*
G36*
X548385D02*
X549365D01*
Y980635D01*
X537730D01*
Y981615D01*
X538566Y984736D01*
X540182Y987534D01*
X542466Y989818D01*
X545264Y991434D01*
X548385Y992270D01*
D02*
G37*
G36*
X190635D02*
X191615D01*
X194736Y991434D01*
X197534Y989818D01*
X199818Y987534D01*
X201434Y984736D01*
X202270Y981615D01*
Y980635D01*
X190635D01*
Y992270D01*
D02*
G37*
G36*
X550635D02*
X551615D01*
X554736Y991434D01*
X557534Y989818D01*
X559818Y987534D01*
X561434Y984736D01*
X562270Y981615D01*
Y980635D01*
X550635D01*
Y992270D01*
D02*
G37*
G36*
X254535Y984365D02*
X260476D01*
Y980000D01*
X260252Y978298D01*
X259595Y976712D01*
X258550Y975350D01*
X257188Y974305D01*
X255602Y973648D01*
X254535Y973507D01*
Y984365D01*
D02*
G37*
G36*
X346735D02*
X352676D01*
Y980000D01*
X352452Y978298D01*
X351795Y976712D01*
X350750Y975350D01*
X349388Y974305D01*
X347802Y973648D01*
X346735Y973507D01*
Y984365D01*
D02*
G37*
G36*
X247324D02*
X253265D01*
Y973507D01*
X252198Y973648D01*
X250612Y974305D01*
X249250Y975350D01*
X248205Y976712D01*
X247548Y978298D01*
X247324Y980000D01*
Y984365D01*
D02*
G37*
G36*
X339524D02*
X345465D01*
Y973507D01*
X344398Y973648D01*
X342812Y974305D01*
X341450Y975350D01*
X340405Y976712D01*
X339748Y978298D01*
X339524Y980000D01*
Y984365D01*
D02*
G37*
G36*
X37730Y979365D02*
X49365D01*
Y967730D01*
X48385D01*
X45264Y968566D01*
X42466Y970182D01*
X40182Y972466D01*
X38566Y975264D01*
X37730Y978385D01*
Y979365D01*
D02*
G37*
G36*
X50635D02*
X62270D01*
Y978385D01*
X61434Y975264D01*
X59818Y972466D01*
X57534Y970182D01*
X54736Y968566D01*
X51615Y967730D01*
X50635D01*
Y979365D01*
D02*
G37*
G36*
X177730Y979365D02*
X189365D01*
Y967730D01*
X188385D01*
X185264Y968566D01*
X182466Y970182D01*
X180182Y972466D01*
X178566Y975264D01*
X177730Y978385D01*
Y979365D01*
D02*
G37*
G36*
X190635D02*
X202270D01*
Y978385D01*
X201434Y975264D01*
X199818Y972466D01*
X197534Y970182D01*
X194736Y968566D01*
X191615Y967730D01*
X190635D01*
Y979365D01*
D02*
G37*
G36*
X397730Y979365D02*
X409365D01*
Y967730D01*
X408385D01*
X405264Y968566D01*
X402466Y970182D01*
X400182Y972466D01*
X398566Y975264D01*
X397730Y978385D01*
Y979365D01*
D02*
G37*
G36*
X410635D02*
X422270D01*
Y978385D01*
X421434Y975264D01*
X419818Y972466D01*
X417534Y970182D01*
X414736Y968566D01*
X411615Y967730D01*
X410635D01*
Y979365D01*
D02*
G37*
G36*
X537730Y979365D02*
X549365D01*
Y967730D01*
X548385D01*
X545264Y968566D01*
X542466Y970182D01*
X540182Y972466D01*
X538566Y975264D01*
X537730Y978385D01*
Y979365D01*
D02*
G37*
G36*
X550635D02*
X562270D01*
Y978385D01*
X561434Y975264D01*
X559818Y972466D01*
X557534Y970182D01*
X554736Y968566D01*
X551615Y967730D01*
X550635D01*
Y979365D01*
D02*
G37*
G36*
X148648Y965270D02*
X151352D01*
X153964Y964570D01*
X156306Y963218D01*
X158218Y961306D01*
X159293Y959444D01*
X159334Y959382D01*
X159460Y959218D01*
X160602Y958881D01*
X160826Y958863D01*
X160918Y958838D01*
X161005Y958875D01*
X164000D01*
X164972Y958472D01*
X165375Y957500D01*
Y911375D01*
X198000D01*
X198972Y910972D01*
X199375Y910000D01*
Y871938D01*
X199207Y871533D01*
X199097Y871110D01*
X198367Y870142D01*
X198281Y870091D01*
X198242Y869998D01*
X197838Y869830D01*
X197461Y869609D01*
X197270Y868397D01*
Y858430D01*
X184730D01*
Y861876D01*
X178294D01*
Y859112D01*
X161135D01*
Y864700D01*
Y870288D01*
X167716D01*
Y874730D01*
X164270D01*
Y887270D01*
X176810D01*
Y874730D01*
X173364D01*
Y870288D01*
X178294D01*
Y867524D01*
X183888D01*
X184448Y868437D01*
X184201Y869642D01*
X184121Y869847D01*
X183758Y869998D01*
X183720Y870091D01*
X183633Y870142D01*
X182903Y871110D01*
X182793Y871533D01*
X182625Y871938D01*
Y898625D01*
X136000D01*
X135028Y899028D01*
X134625Y900000D01*
Y957500D01*
X135028Y958472D01*
X136000Y958875D01*
X138995D01*
X139082Y958838D01*
X139174Y958863D01*
X140339Y958957D01*
X140688Y959410D01*
X141782Y961306D01*
X143694Y963218D01*
X146036Y964570D01*
X148648Y965270D01*
D02*
G37*
G36*
X72500Y973875D02*
X107500D01*
X108472Y973472D01*
X108875Y972500D01*
Y958067D01*
X110145Y957899D01*
X110430Y958964D01*
X111782Y961306D01*
X113694Y963218D01*
X116036Y964570D01*
X118648Y965270D01*
X121352D01*
X123964Y964570D01*
X126306Y963218D01*
X128218Y961306D01*
X129570Y958964D01*
X130270Y956352D01*
Y953648D01*
X129570Y951036D01*
X128218Y948694D01*
X126306Y946782D01*
X123964Y945430D01*
X121352Y944730D01*
X118648D01*
X116036Y945430D01*
X113694Y946782D01*
X111782Y948694D01*
X110430Y951036D01*
X110145Y952101D01*
X108875Y951933D01*
Y932500D01*
X108472Y931528D01*
X107500Y931125D01*
X98875D01*
Y886893D01*
X99230Y885770D01*
X100145Y885770D01*
X104865D01*
Y879500D01*
Y873230D01*
X99230Y873230D01*
X98875Y872107D01*
Y855362D01*
X131196Y798325D01*
X131239Y797974D01*
X131375Y797647D01*
X131375Y742692D01*
Y730559D01*
X170579Y690375D01*
X186730D01*
X187702Y689972D01*
X187993Y689270D01*
X199270D01*
Y677993D01*
X199972Y677702D01*
X200375Y676730D01*
Y651375D01*
X322500D01*
X323472Y650972D01*
X323875Y650000D01*
Y611000D01*
X323472Y610028D01*
X322500Y609625D01*
X320720D01*
X320467Y609730D01*
X319073D01*
Y410270D01*
X320720D01*
Y389730D01*
X319073D01*
Y190270D01*
X320720D01*
Y169730D01*
X306680D01*
Y190270D01*
X308327D01*
Y389730D01*
X306680D01*
Y410270D01*
X308327D01*
Y609730D01*
X306933D01*
X306680Y609625D01*
X305047D01*
X305000Y609625D01*
X303820Y609730D01*
X303820Y609730D01*
X278780D01*
Y616156D01*
X261592D01*
X239344Y593908D01*
Y413770D01*
X242270D01*
Y405540D01*
X242270Y405230D01*
Y404270D01*
X242696Y403844D01*
X278780D01*
Y410270D01*
X303820D01*
Y389730D01*
X278780D01*
Y396156D01*
X242696D01*
X242270Y395730D01*
Y394770D01*
X242270Y394460D01*
Y386230D01*
X239344D01*
Y206092D01*
X261592Y183844D01*
X278780D01*
Y190270D01*
X303820D01*
Y169730D01*
X278780D01*
Y176156D01*
X260000D01*
X260000Y176156D01*
X258529Y176449D01*
X257282Y177282D01*
X232782Y201782D01*
X232782Y201782D01*
X231949Y203029D01*
X231656Y204500D01*
X231656Y204500D01*
Y386230D01*
X228730D01*
Y394460D01*
X228730Y394770D01*
Y395730D01*
X228730Y396040D01*
Y403960D01*
X228730Y404270D01*
Y405230D01*
X228730Y405540D01*
Y413770D01*
X231656D01*
Y595500D01*
X231656Y595500D01*
X231949Y596971D01*
X232782Y598218D01*
X232782Y598218D01*
X257282Y622718D01*
X258529Y623551D01*
X260000Y623844D01*
X260000Y623844D01*
X278780D01*
Y630270D01*
X277864Y631125D01*
X105000D01*
X104028Y631528D01*
X103625Y632500D01*
Y773606D01*
X81334Y809271D01*
X81271Y809648D01*
X81125Y810000D01*
Y863625D01*
X72167D01*
X71194Y864028D01*
X70792Y865000D01*
Y874480D01*
X70730D01*
Y884520D01*
X70792D01*
Y891364D01*
X71194Y892336D01*
X72167Y892738D01*
X81125D01*
Y931125D01*
X72500D01*
X71528Y931528D01*
X71125Y932500D01*
Y972500D01*
X71528Y973472D01*
X72500Y973875D01*
D02*
G37*
G36*
X439730Y965270D02*
X460270D01*
Y944730D01*
X439730D01*
Y965270D01*
D02*
G37*
G36*
X266106Y952390D02*
X267894D01*
X269621Y951927D01*
X271169Y951033D01*
X272433Y949769D01*
X273327Y948221D01*
X273790Y946494D01*
Y944706D01*
X273327Y942979D01*
X273074Y942540D01*
X273807Y941270D01*
X278960D01*
X279770Y941270D01*
X281040Y941270D01*
X284770Y941270D01*
X284910Y942482D01*
Y943410D01*
X284798Y943456D01*
X283456Y944798D01*
X282730Y946551D01*
Y948449D01*
X283456Y950202D01*
X284798Y951544D01*
X286551Y952270D01*
X288449D01*
X290202Y951544D01*
X291544Y950202D01*
X292270Y948449D01*
Y946551D01*
X291544Y944798D01*
X290202Y943456D01*
X290090Y943410D01*
Y942482D01*
X290230Y941270D01*
X291360Y941270D01*
X294770Y941270D01*
X296040Y941270D01*
X299770Y941270D01*
X301040Y941270D01*
X304770Y941270D01*
X306040Y941270D01*
X309770Y941270D01*
X311040Y941270D01*
X314770Y941270D01*
X314910Y942482D01*
Y943410D01*
X314798Y943456D01*
X313456Y944798D01*
X312730Y946551D01*
Y948449D01*
X313456Y950202D01*
X314798Y951544D01*
X316551Y952270D01*
X318449D01*
X320202Y951544D01*
X321544Y950202D01*
X322270Y948449D01*
Y946551D01*
X321544Y944798D01*
X320202Y943456D01*
X320090Y943410D01*
Y942482D01*
X320230Y941270D01*
X321360Y941270D01*
X326193D01*
X326926Y942540D01*
X326673Y942979D01*
X326210Y944706D01*
Y946494D01*
X326673Y948221D01*
X327567Y949769D01*
X328831Y951033D01*
X330379Y951927D01*
X332106Y952390D01*
X333894D01*
X335621Y951927D01*
X337169Y951033D01*
X338433Y949769D01*
X339138Y948549D01*
X339859Y948400D01*
X340117Y948399D01*
X340567Y948500D01*
X341450Y949650D01*
X342812Y950695D01*
X344398Y951352D01*
X345465Y951493D01*
Y940635D01*
X339524D01*
Y940788D01*
X338988Y941104D01*
X338254Y941251D01*
X337169Y940167D01*
X335770Y939359D01*
Y932635D01*
X332000D01*
Y932000D01*
X331365D01*
Y924480D01*
X328230D01*
X327844Y923370D01*
Y917592D01*
X330718Y914718D01*
X331551Y913471D01*
X331844Y912000D01*
X331844Y912000D01*
Y906270D01*
X334270D01*
Y893730D01*
X321730D01*
Y894627D01*
X314270D01*
Y893730D01*
X301730D01*
Y906270D01*
X304085D01*
Y907979D01*
X300908Y911156D01*
X280000D01*
X280000Y911156D01*
X278529Y911449D01*
X277282Y912282D01*
X273282Y916282D01*
X273282Y916282D01*
X272449Y917529D01*
X272156Y919000D01*
X272156Y919000D01*
Y923370D01*
X271770Y924480D01*
X268635D01*
Y932000D01*
X268000D01*
Y932635D01*
X264230D01*
Y939359D01*
X262831Y940167D01*
X261746Y941251D01*
X261012Y941104D01*
X260476Y940788D01*
Y940635D01*
X254535D01*
Y951493D01*
X255602Y951352D01*
X257188Y950695D01*
X258550Y949650D01*
X259433Y948500D01*
X259883Y948399D01*
X260141Y948400D01*
X260862Y948549D01*
X261567Y949769D01*
X262831Y951033D01*
X264379Y951927D01*
X266106Y952390D01*
D02*
G37*
G36*
X253265Y951493D02*
Y940635D01*
X247324D01*
Y945000D01*
X247548Y946702D01*
X248205Y948288D01*
X249250Y949650D01*
X250612Y950695D01*
X252198Y951352D01*
X253265Y951493D01*
D02*
G37*
G36*
X346735D02*
X347802Y951352D01*
X349388Y950695D01*
X350750Y949650D01*
X351795Y948288D01*
X352452Y946702D01*
X352676Y945000D01*
Y940635D01*
X346735D01*
Y951493D01*
D02*
G37*
G36*
X48385Y942270D02*
X49365D01*
Y930635D01*
X37730D01*
Y931615D01*
X38566Y934736D01*
X40182Y937534D01*
X42466Y939818D01*
X45264Y941434D01*
X48385Y942270D01*
D02*
G37*
G36*
X50635D02*
X51615D01*
X54736Y941434D01*
X57534Y939818D01*
X59818Y937534D01*
X61434Y934736D01*
X62270Y931615D01*
Y930635D01*
X50635D01*
Y942270D01*
D02*
G37*
G36*
X408385D02*
X409365D01*
Y930635D01*
X397730D01*
Y931615D01*
X398566Y934736D01*
X400182Y937534D01*
X402466Y939818D01*
X405264Y941434D01*
X408385Y942270D01*
D02*
G37*
G36*
X410635D02*
X411615D01*
X414736Y941434D01*
X417534Y939818D01*
X419818Y937534D01*
X421434Y934736D01*
X422270Y931615D01*
Y930635D01*
X410635D01*
Y942270D01*
D02*
G37*
G36*
X188385D02*
X189365D01*
Y930635D01*
X177730D01*
Y931615D01*
X178566Y934736D01*
X180182Y937534D01*
X182466Y939818D01*
X185264Y941434D01*
X188385Y942270D01*
D02*
G37*
G36*
X548385D02*
X549365D01*
Y930635D01*
X537730D01*
Y931615D01*
X538566Y934736D01*
X540182Y937534D01*
X542466Y939818D01*
X545264Y941434D01*
X548385Y942270D01*
D02*
G37*
G36*
X190635D02*
X191615D01*
X194736Y941434D01*
X197534Y939818D01*
X199818Y937534D01*
X201434Y934736D01*
X202270Y931615D01*
Y930635D01*
X190635D01*
Y942270D01*
D02*
G37*
G36*
X550635D02*
X551615D01*
X554736Y941434D01*
X557534Y939818D01*
X559818Y937534D01*
X561434Y934736D01*
X562270Y931615D01*
Y930635D01*
X550635D01*
Y942270D01*
D02*
G37*
G36*
X247324Y939365D02*
X253265D01*
Y928507D01*
X252198Y928648D01*
X250612Y929305D01*
X249250Y930350D01*
X248205Y931712D01*
X247548Y933298D01*
X247324Y935000D01*
Y939365D01*
D02*
G37*
G36*
X339524D02*
X345465D01*
Y928507D01*
X344398Y928648D01*
X342812Y929305D01*
X341450Y930350D01*
X340405Y931712D01*
X339748Y933298D01*
X339524Y935000D01*
Y939365D01*
D02*
G37*
G36*
X254535D02*
X260476D01*
Y935000D01*
X260252Y933298D01*
X259595Y931712D01*
X258550Y930350D01*
X257188Y929305D01*
X255602Y928648D01*
X254535Y928507D01*
Y939365D01*
D02*
G37*
G36*
X346735D02*
X352676D01*
Y935000D01*
X352452Y933298D01*
X351795Y931712D01*
X350750Y930350D01*
X349388Y929305D01*
X347802Y928648D01*
X346735Y928507D01*
Y939365D01*
D02*
G37*
G36*
X264230Y931365D02*
X267365D01*
Y924480D01*
X264230D01*
Y931365D01*
D02*
G37*
G36*
X332635D02*
X335770D01*
Y924480D01*
X332635D01*
Y931365D01*
D02*
G37*
G36*
X37730Y929365D02*
X49365D01*
Y917730D01*
X48385D01*
X45264Y918566D01*
X42466Y920182D01*
X40182Y922466D01*
X38566Y925264D01*
X37730Y928385D01*
Y929365D01*
D02*
G37*
G36*
X50635D02*
X62270D01*
Y928385D01*
X61434Y925264D01*
X59818Y922466D01*
X57534Y920182D01*
X54736Y918566D01*
X51615Y917730D01*
X50635D01*
Y929365D01*
D02*
G37*
G36*
X177730Y929365D02*
X189365D01*
Y917730D01*
X188385D01*
X185264Y918566D01*
X182466Y920182D01*
X180182Y922466D01*
X178566Y925264D01*
X177730Y928385D01*
Y929365D01*
D02*
G37*
G36*
X190635D02*
X202270D01*
Y928385D01*
X201434Y925264D01*
X199818Y922466D01*
X197534Y920182D01*
X194736Y918566D01*
X191615Y917730D01*
X190635D01*
Y929365D01*
D02*
G37*
G36*
X397730Y929365D02*
X409365D01*
Y917730D01*
X408385D01*
X405264Y918566D01*
X402466Y920182D01*
X400182Y922466D01*
X398566Y925264D01*
X397730Y928385D01*
Y929365D01*
D02*
G37*
G36*
X410635D02*
X422270D01*
Y928385D01*
X421434Y925264D01*
X419818Y922466D01*
X417534Y920182D01*
X414736Y918566D01*
X411615Y917730D01*
X410635D01*
Y929365D01*
D02*
G37*
G36*
X537730Y929365D02*
X549365D01*
Y917730D01*
X548385D01*
X545264Y918566D01*
X542466Y920182D01*
X540182Y922466D01*
X538566Y925264D01*
X537730Y928385D01*
Y929365D01*
D02*
G37*
G36*
X550635D02*
X562270D01*
Y928385D01*
X561434Y925264D01*
X559818Y922466D01*
X557534Y920182D01*
X554736Y918566D01*
X551615Y917730D01*
X550635D01*
Y929365D01*
D02*
G37*
G36*
X265730Y906270D02*
X278270D01*
Y905373D01*
X285730D01*
Y906270D01*
X298270D01*
Y893730D01*
X285730D01*
Y894627D01*
X278270D01*
Y893730D01*
X265730D01*
Y896156D01*
X230844D01*
Y858000D01*
X230844Y858000D01*
X230551Y856529D01*
X229718Y855282D01*
X222718Y848282D01*
X222718Y848282D01*
X221471Y847449D01*
X220000Y847156D01*
X220000Y847156D01*
X195844D01*
Y845570D01*
X198270D01*
Y833030D01*
X185730D01*
Y836476D01*
X178444D01*
Y828270D01*
X181890D01*
Y825844D01*
X185730D01*
Y828270D01*
X198270D01*
Y815730D01*
X185730D01*
Y818156D01*
X181890D01*
Y815730D01*
X169350D01*
Y823994D01*
X168177Y824480D01*
X165324Y821628D01*
Y766168D01*
X166222Y765270D01*
X167770Y765270D01*
X168625Y766186D01*
Y799730D01*
X169028Y800702D01*
X169350Y800835D01*
Y812270D01*
X181890D01*
Y802213D01*
X182342Y801028D01*
X183452Y800642D01*
X183684Y800435D01*
X183972Y800316D01*
X184062Y800099D01*
X184237Y799942D01*
X184256Y799631D01*
X184375Y799344D01*
Y766445D01*
X184322Y766317D01*
X184349Y766181D01*
X184119Y765006D01*
X183896Y764670D01*
X183742Y764298D01*
X183614Y764245D01*
X183537Y764129D01*
X183142Y764050D01*
X182770Y763895D01*
Y756105D01*
X183142Y755950D01*
X183537Y755871D01*
X183614Y755755D01*
X183742Y755702D01*
X183896Y755330D01*
X184119Y754994D01*
X184349Y753819D01*
X184322Y753683D01*
X184375Y753555D01*
Y750000D01*
X183972Y749028D01*
X183000Y748625D01*
X170000D01*
X169028Y749028D01*
X168625Y750000D01*
Y753814D01*
X167770Y754730D01*
X167355Y754730D01*
X157230D01*
Y765270D01*
X159676D01*
Y812134D01*
X158406Y812660D01*
X157702Y811956D01*
X155949Y811230D01*
X154051D01*
X152298Y811956D01*
X150956Y813298D01*
X150230Y815051D01*
Y816949D01*
X150956Y818702D01*
X152176Y819921D01*
Y822000D01*
X152176Y822000D01*
X152391Y823081D01*
X153003Y823997D01*
X153003Y823997D01*
X161448Y832442D01*
X160922Y833712D01*
X157706D01*
Y836476D01*
X151270D01*
Y833030D01*
X138730D01*
Y845570D01*
X151270D01*
Y842124D01*
X157706D01*
Y844888D01*
X178294D01*
Y842124D01*
X185730D01*
Y845570D01*
X188156D01*
Y849242D01*
X188156Y849243D01*
X188449Y850714D01*
X189282Y851961D01*
X189282Y851961D01*
X191039Y853718D01*
X192286Y854551D01*
X193757Y854844D01*
X193757Y854844D01*
X218408D01*
X223156Y859592D01*
Y898242D01*
X223156Y898243D01*
X223449Y899714D01*
X224282Y900961D01*
X224282Y900961D01*
X226039Y902718D01*
X227286Y903551D01*
X228757Y903844D01*
X228757Y903844D01*
X265730D01*
Y906270D01*
D02*
G37*
G36*
X478648Y965270D02*
X481352D01*
X483964Y964570D01*
X486306Y963218D01*
X488218Y961306D01*
X489570Y958964D01*
X490270Y956352D01*
Y953648D01*
X489570Y951036D01*
X488218Y948694D01*
X486306Y946782D01*
X483964Y945430D01*
X483844Y945398D01*
Y914270D01*
X486270D01*
Y901730D01*
X473730D01*
Y914270D01*
X476156D01*
Y945398D01*
X476036Y945430D01*
X473694Y946782D01*
X471782Y948694D01*
X470430Y951036D01*
X469730Y953648D01*
Y956352D01*
X470430Y958964D01*
X471782Y961306D01*
X473694Y963218D01*
X476036Y964570D01*
X478648Y965270D01*
D02*
G37*
G36*
X508648D02*
X511352D01*
X513964Y964570D01*
X516306Y963218D01*
X518218Y961306D01*
X519570Y958964D01*
X520270Y956352D01*
Y953648D01*
X519570Y951036D01*
X518218Y948694D01*
X516306Y946782D01*
X513964Y945430D01*
X513844Y945398D01*
Y914270D01*
X516270D01*
Y901730D01*
X503730D01*
Y914270D01*
X506156D01*
Y945398D01*
X506036Y945430D01*
X503694Y946782D01*
X501782Y948694D01*
X500430Y951036D01*
X499730Y953648D01*
Y956352D01*
X500430Y958964D01*
X501782Y961306D01*
X503694Y963218D01*
X506036Y964570D01*
X508648Y965270D01*
D02*
G37*
G36*
X427270Y900375D02*
X472032Y900375D01*
X472293Y900267D01*
X472575Y900263D01*
X474273Y899533D01*
X474458Y899343D01*
X474702Y899242D01*
X474810Y898981D01*
X475007Y898779D01*
X476176Y898270D01*
X486270D01*
Y895844D01*
X503730D01*
Y898270D01*
X516270D01*
Y885730D01*
X503730D01*
Y888156D01*
X486270D01*
Y885730D01*
X474993D01*
X474702Y885028D01*
X473730Y884625D01*
X439375D01*
Y881020D01*
X438972Y880048D01*
X438120Y879695D01*
Y862980D01*
X430946D01*
X430552Y862028D01*
X429580Y861625D01*
X425420D01*
X424448Y862028D01*
X424054Y862980D01*
X416880D01*
Y878442D01*
X416671Y879661D01*
X415022Y879915D01*
X414791Y879951D01*
X414274Y880236D01*
X414028Y880338D01*
X413930Y880425D01*
X412738Y880115D01*
X412720Y879873D01*
X412720Y879871D01*
X412720Y879793D01*
Y862980D01*
X404180D01*
Y868156D01*
X391270D01*
Y865730D01*
X378730D01*
Y878270D01*
X391270D01*
Y875844D01*
X404180D01*
Y881020D01*
X412452Y881020D01*
X412811Y881109D01*
X413285Y881570D01*
X413625Y882793D01*
Y887730D01*
X414028Y888702D01*
X414730Y888993D01*
Y900270D01*
X427017D01*
X427270Y900375D01*
D02*
G37*
G36*
X398730Y900270D02*
X404365D01*
Y894635D01*
X398730D01*
Y900270D01*
D02*
G37*
G36*
X405635D02*
X411270D01*
Y894635D01*
X405635D01*
Y900270D01*
D02*
G37*
G36*
X63210Y906790D02*
X65500D01*
Y900500D01*
Y894210D01*
X63210D01*
Y895480D01*
X57730D01*
Y905520D01*
X63210D01*
Y906790D01*
D02*
G37*
G36*
X69500D02*
X71790D01*
Y905520D01*
X77270D01*
Y895480D01*
X71790D01*
Y894210D01*
X69500D01*
Y900500D01*
Y906790D01*
D02*
G37*
G36*
X398730Y893365D02*
X404365D01*
Y887730D01*
X398730D01*
Y893365D01*
D02*
G37*
G36*
X405635D02*
X411270D01*
Y887730D01*
X405635D01*
Y893365D01*
D02*
G37*
G36*
X265730Y890270D02*
X271365D01*
Y884635D01*
X265730D01*
Y890270D01*
D02*
G37*
G36*
X321730D02*
X327365D01*
Y884635D01*
X321730D01*
Y890270D01*
D02*
G37*
G36*
X272635D02*
X278270D01*
Y884635D01*
X272635D01*
Y890270D01*
D02*
G37*
G36*
X328635D02*
X334270D01*
Y884635D01*
X328635D01*
Y890270D01*
D02*
G37*
G36*
X45500Y885893D02*
X46118Y885770D01*
X51770D01*
Y882834D01*
X57730D01*
Y884520D01*
X64270D01*
Y879822D01*
X64334Y879500D01*
X64270Y879178D01*
Y874480D01*
X57730D01*
Y876166D01*
X51893D01*
Y848875D01*
X60000D01*
X60972Y848472D01*
X61375Y847500D01*
Y815000D01*
X60972Y814028D01*
X60000Y813625D01*
X51893D01*
Y808000D01*
X51406Y805554D01*
X50020Y803480D01*
X23893Y777352D01*
Y597648D01*
X60770Y560770D01*
X176520Y445020D01*
X177906Y442946D01*
X178393Y440500D01*
Y409500D01*
X178270Y408882D01*
Y403230D01*
X172618D01*
X172000Y403107D01*
X171383Y403230D01*
X165730D01*
Y404127D01*
X158770D01*
Y403230D01*
X146230D01*
Y415770D01*
X158770D01*
Y414873D01*
X165607D01*
Y437852D01*
X55529Y547930D01*
X47873Y540274D01*
Y435102D01*
X48192Y434918D01*
X49918Y433192D01*
X51138Y431078D01*
X51770Y428720D01*
Y426280D01*
X51138Y423922D01*
X49918Y421808D01*
X48192Y420082D01*
X46078Y418862D01*
X43720Y418230D01*
X41280D01*
X38922Y418862D01*
X36808Y420082D01*
X35082Y421808D01*
X33862Y423922D01*
X33230Y426280D01*
Y428720D01*
X33862Y431078D01*
X35082Y433192D01*
X36808Y434918D01*
X37127Y435102D01*
Y542500D01*
X37536Y544556D01*
X38701Y546300D01*
X47930Y555529D01*
X12980Y590480D01*
X11594Y592554D01*
X11107Y595000D01*
Y780000D01*
X11594Y782446D01*
X12980Y784520D01*
X39107Y810648D01*
Y813625D01*
X30000D01*
X29028Y814028D01*
X28625Y815000D01*
Y847500D01*
X29028Y848472D01*
X30000Y848875D01*
X39107D01*
Y879500D01*
X39230Y880117D01*
Y885770D01*
X44882D01*
X45500Y885893D01*
D02*
G37*
G36*
X148270Y887270D02*
X153905D01*
Y881635D01*
X148270D01*
Y887270D01*
D02*
G37*
G36*
X155175D02*
X160810D01*
Y881635D01*
X155175D01*
Y887270D01*
D02*
G37*
G36*
X23230Y885770D02*
X28865D01*
Y880135D01*
X23230D01*
Y885770D01*
D02*
G37*
G36*
X106135D02*
X111770D01*
Y880135D01*
X106135D01*
Y885770D01*
D02*
G37*
G36*
X30135D02*
X35770D01*
Y880135D01*
X30135D01*
Y885770D01*
D02*
G37*
G36*
X265730Y883365D02*
X271365D01*
Y877730D01*
X265730D01*
Y883365D01*
D02*
G37*
G36*
X272635D02*
X278270D01*
Y877730D01*
X272635D01*
Y883365D01*
D02*
G37*
G36*
X321730D02*
X327365D01*
Y877730D01*
X321730D01*
Y883365D01*
D02*
G37*
G36*
X328635D02*
X334270D01*
Y877730D01*
X328635D01*
Y883365D01*
D02*
G37*
G36*
X442280Y881020D02*
X450820D01*
Y876354D01*
X461230D01*
Y878270D01*
X466883D01*
X467500Y878393D01*
X479571D01*
X482018Y877906D01*
X484091Y876520D01*
X487020Y873592D01*
X488406Y871517D01*
X488893Y869071D01*
Y837500D01*
Y817500D01*
X488406Y815054D01*
X487020Y812980D01*
X465521Y791480D01*
X463447Y790094D01*
X461000Y789607D01*
X450000D01*
X449383Y789730D01*
X443730D01*
Y795383D01*
X443607Y796000D01*
X443730Y796618D01*
Y802270D01*
X449383D01*
X450000Y802393D01*
X458352D01*
X467008Y811048D01*
X461528Y816528D01*
X461125Y817500D01*
X461125Y817500D01*
Y842500D01*
X461528Y843472D01*
X462500Y843875D01*
X476107D01*
Y865607D01*
X467500D01*
X466883Y865730D01*
X461230D01*
Y867646D01*
X450820D01*
Y862980D01*
X442280D01*
Y871580D01*
X442196Y872000D01*
X442280Y872421D01*
Y881020D01*
D02*
G37*
G36*
X148270Y880365D02*
X153905D01*
Y874730D01*
X148270D01*
Y880365D01*
D02*
G37*
G36*
X155175D02*
X160810D01*
Y874730D01*
X155175D01*
Y880365D01*
D02*
G37*
G36*
X23230Y878865D02*
X28865D01*
Y873230D01*
X23230D01*
Y878865D01*
D02*
G37*
G36*
X30135D02*
X35770D01*
Y873230D01*
X30135D01*
Y878865D01*
D02*
G37*
G36*
X106135D02*
X111770D01*
Y873230D01*
X106135D01*
Y878865D01*
D02*
G37*
G36*
X157706Y870288D02*
X159865D01*
Y865335D01*
X157706D01*
Y870288D01*
D02*
G37*
G36*
X200730Y870970D02*
X206365D01*
Y865335D01*
X200730D01*
Y870970D01*
D02*
G37*
G36*
X207635D02*
X213270D01*
Y865335D01*
X207635D01*
Y870970D01*
D02*
G37*
G36*
X157706Y864065D02*
X159865D01*
Y859112D01*
X157706D01*
Y864065D01*
D02*
G37*
G36*
X200730Y864065D02*
X206365D01*
Y858430D01*
X200730D01*
Y864065D01*
D02*
G37*
G36*
X207635D02*
X213270D01*
Y858430D01*
X207635D01*
Y864065D01*
D02*
G37*
G36*
X378730Y862270D02*
X384365D01*
Y856635D01*
X378730D01*
Y862270D01*
D02*
G37*
G36*
X461230D02*
X466865D01*
Y856635D01*
X461230D01*
Y862270D01*
D02*
G37*
G36*
X385635D02*
X391270D01*
Y856635D01*
X385635D01*
Y862270D01*
D02*
G37*
G36*
X468135D02*
X473770D01*
Y856635D01*
X468135D01*
Y862270D01*
D02*
G37*
G36*
X138730Y861570D02*
X144365D01*
Y855935D01*
X138730D01*
Y861570D01*
D02*
G37*
G36*
X145635D02*
X151270D01*
Y855935D01*
X145635D01*
Y861570D01*
D02*
G37*
G36*
X160761Y857207D02*
X167365D01*
Y852635D01*
X160761D01*
Y857207D01*
D02*
G37*
G36*
X168635D02*
X175239D01*
Y852635D01*
X168635D01*
Y857207D01*
D02*
G37*
G36*
X378730Y855365D02*
X384365D01*
Y849730D01*
X378730D01*
Y855365D01*
D02*
G37*
G36*
X385635D02*
X391270D01*
Y849730D01*
X385635D01*
Y855365D01*
D02*
G37*
G36*
X461230D02*
X466865D01*
Y849730D01*
X461230D01*
Y855365D01*
D02*
G37*
G36*
X468135D02*
X473770D01*
Y849730D01*
X468135D01*
Y855365D01*
D02*
G37*
G36*
X138730Y854665D02*
X144365D01*
Y849030D01*
X138730D01*
Y854665D01*
D02*
G37*
G36*
X145635D02*
X151270D01*
Y849030D01*
X145635D01*
Y854665D01*
D02*
G37*
G36*
X160761Y851365D02*
X167365D01*
Y846793D01*
X160761D01*
Y851365D01*
D02*
G37*
G36*
X168635D02*
X175239D01*
Y846793D01*
X168635D01*
Y851365D01*
D02*
G37*
G36*
X201730Y845570D02*
X207365D01*
Y839935D01*
X201730D01*
Y845570D01*
D02*
G37*
G36*
X208635D02*
X214270D01*
Y839935D01*
X208635D01*
Y845570D01*
D02*
G37*
G36*
X201730Y838665D02*
X207365D01*
Y833030D01*
X201730D01*
Y838665D01*
D02*
G37*
G36*
X208635D02*
X214270D01*
Y833030D01*
X208635D01*
Y838665D01*
D02*
G37*
G36*
X442280Y827020D02*
X445915D01*
Y818635D01*
X442280D01*
Y827020D01*
D02*
G37*
G36*
X447185D02*
X450820D01*
Y818635D01*
X447185D01*
Y827020D01*
D02*
G37*
G36*
X442280Y817365D02*
X445915D01*
Y808980D01*
X442280D01*
Y817365D01*
D02*
G37*
G36*
X447185D02*
X450820D01*
Y808980D01*
X447185D01*
Y817365D01*
D02*
G37*
G36*
X324245Y808770D02*
X324765D01*
Y800635D01*
X316630D01*
Y801155D01*
X317228Y803385D01*
X318382Y805385D01*
X320015Y807018D01*
X322015Y808172D01*
X324245Y808770D01*
D02*
G37*
G36*
X326035D02*
X326555D01*
X328785Y808172D01*
X330785Y807018D01*
X332418Y805385D01*
X333572Y803385D01*
X334170Y801155D01*
Y800635D01*
X326035D01*
Y808770D01*
D02*
G37*
G36*
X404180Y827020D02*
X412720D01*
Y808980D01*
X412569D01*
Y807177D01*
X413044Y806702D01*
X413770Y804949D01*
Y803051D01*
X413044Y801298D01*
X412860Y801114D01*
X413386Y799844D01*
X416614D01*
X417140Y801114D01*
X416956Y801298D01*
X416230Y803051D01*
Y804949D01*
X416956Y806702D01*
X417231Y806977D01*
Y808980D01*
X416880D01*
Y827020D01*
X425420D01*
Y808980D01*
X424919D01*
Y806827D01*
X425044Y806702D01*
X425770Y804949D01*
Y803051D01*
X425044Y801298D01*
X424860Y801114D01*
X425386Y799844D01*
X427730D01*
Y802270D01*
X430081D01*
Y808980D01*
X429580D01*
Y827020D01*
X438120D01*
Y808980D01*
X437769D01*
Y802270D01*
X440270D01*
Y789730D01*
X438643D01*
Y788021D01*
X460320Y766344D01*
X469015D01*
X470082Y768192D01*
X471808Y769918D01*
X473922Y771138D01*
X476280Y771770D01*
X478720D01*
X481078Y771138D01*
X483192Y769918D01*
X484918Y768192D01*
X486138Y766078D01*
X486770Y763720D01*
Y761280D01*
X486138Y758922D01*
X484918Y756808D01*
X483192Y755082D01*
X481078Y753862D01*
X478720Y753230D01*
X476280D01*
X473922Y753862D01*
X471808Y755082D01*
X470082Y756808D01*
X469015Y758656D01*
X458728D01*
X458728Y758656D01*
X457257Y758949D01*
X456010Y759782D01*
X432081Y783711D01*
X432081Y783711D01*
X431248Y784958D01*
X430955Y786429D01*
Y789730D01*
X427730D01*
Y792156D01*
X379395D01*
X359121Y771882D01*
X359121Y771882D01*
X357874Y771049D01*
X356403Y770756D01*
X307908D01*
X307018Y769215D01*
X305385Y767582D01*
X303385Y766428D01*
X301155Y765830D01*
X298845D01*
X296615Y766428D01*
X294615Y767582D01*
X292982Y769215D01*
X291828Y771215D01*
X291230Y773445D01*
Y775755D01*
X291828Y777985D01*
X292982Y779985D01*
X294615Y781618D01*
X296615Y782772D01*
X298845Y783370D01*
X301155D01*
X303385Y782772D01*
X305385Y781618D01*
X307018Y779985D01*
X307908Y778444D01*
X354811D01*
X375085Y798718D01*
X376332Y799551D01*
X377803Y799844D01*
X377803Y799844D01*
X404614D01*
X405140Y801114D01*
X404956Y801298D01*
X404230Y803051D01*
Y804949D01*
X404881Y806521D01*
Y808980D01*
X404180D01*
Y827020D01*
D02*
G37*
G36*
X273445Y808770D02*
X275755D01*
X277985Y808172D01*
X279985Y807018D01*
X281618Y805385D01*
X282772Y803385D01*
X283370Y801155D01*
Y798845D01*
X282772Y796615D01*
X281618Y794615D01*
X279985Y792982D01*
X277985Y791828D01*
X275755Y791230D01*
X273445D01*
X271215Y791828D01*
X269215Y792982D01*
X267582Y794615D01*
X266428Y796615D01*
X265830Y798845D01*
Y801155D01*
X266428Y803385D01*
X267582Y805385D01*
X269215Y807018D01*
X271215Y808172D01*
X273445Y808770D01*
D02*
G37*
G36*
X316630Y799365D02*
X324765D01*
Y791230D01*
X324245D01*
X322015Y791828D01*
X320015Y792982D01*
X318382Y794615D01*
X317228Y796615D01*
X316630Y798845D01*
Y799365D01*
D02*
G37*
G36*
X326035D02*
X334170D01*
Y798845D01*
X333572Y796615D01*
X332418Y794615D01*
X330785Y792982D01*
X328785Y791828D01*
X326555Y791230D01*
X326035D01*
Y799365D01*
D02*
G37*
G36*
X408568Y785908D02*
X410792D01*
X412845Y785057D01*
X414417Y783485D01*
X415268Y781432D01*
Y779209D01*
X414417Y777155D01*
X412845Y775583D01*
X410792Y774732D01*
X408568D01*
X406515Y775583D01*
X404943Y777155D01*
X404092Y779209D01*
Y781432D01*
X404943Y783485D01*
X406515Y785057D01*
X408568Y785908D01*
D02*
G37*
G36*
X148568Y785908D02*
X150792D01*
X152845Y785057D01*
X154417Y783485D01*
X155268Y781432D01*
Y779208D01*
X154417Y777155D01*
X152845Y775583D01*
X150792Y774732D01*
X148568D01*
X146515Y775583D01*
X144943Y777155D01*
X144092Y779208D01*
Y781432D01*
X144943Y783485D01*
X146515Y785057D01*
X148568Y785908D01*
D02*
G37*
G36*
X57539Y791270D02*
X59365D01*
Y760635D01*
X28730D01*
Y762461D01*
X29500Y767322D01*
X31021Y772003D01*
X33256Y776389D01*
X36149Y780371D01*
X39629Y783851D01*
X43611Y786745D01*
X47997Y788979D01*
X52678Y790500D01*
X57539Y791270D01*
D02*
G37*
G36*
X60635D02*
X62461D01*
X67322Y790500D01*
X72003Y788979D01*
X76389Y786745D01*
X80371Y783851D01*
X83851Y780371D01*
X86744Y776389D01*
X88979Y772003D01*
X90500Y767322D01*
X91270Y762461D01*
Y760635D01*
X60635D01*
Y791270D01*
D02*
G37*
G36*
X537539D02*
X539365D01*
Y760635D01*
X508730D01*
Y762461D01*
X509500Y767322D01*
X511021Y772003D01*
X513256Y776389D01*
X516149Y780371D01*
X519629Y783851D01*
X523611Y786745D01*
X527996Y788979D01*
X532678Y790500D01*
X537539Y791270D01*
D02*
G37*
G36*
X540635D02*
X542461D01*
X547322Y790500D01*
X552004Y788979D01*
X556389Y786745D01*
X560371Y783851D01*
X563851Y780371D01*
X566744Y776389D01*
X568979Y772003D01*
X570500Y767322D01*
X571270Y762461D01*
Y760635D01*
X540635D01*
Y791270D01*
D02*
G37*
G36*
X417230Y765270D02*
X427770D01*
Y754730D01*
X417230D01*
Y757176D01*
X407921D01*
X406702Y755956D01*
X404949Y755230D01*
X403051D01*
X401298Y755956D01*
X399956Y757298D01*
X399230Y759051D01*
Y760949D01*
X399956Y762702D01*
X401298Y764044D01*
X403051Y764770D01*
X404949D01*
X406702Y764044D01*
X407921Y762824D01*
X417230D01*
Y765270D01*
D02*
G37*
G36*
X201730Y828270D02*
X214270D01*
Y815730D01*
X211844D01*
Y757592D01*
X216592Y752844D01*
X433656D01*
Y754730D01*
X432230D01*
Y765270D01*
X442770D01*
Y754730D01*
X441344D01*
Y750758D01*
X441344Y750757D01*
X441051Y749286D01*
X440218Y748039D01*
X438461Y746282D01*
X438461Y746282D01*
X437214Y745449D01*
X435743Y745156D01*
X435743Y745156D01*
X215000D01*
X215000Y745156D01*
X213529Y745449D01*
X212282Y746282D01*
X205282Y753282D01*
X205282Y753282D01*
X204449Y754529D01*
X204156Y756000D01*
X204156Y756000D01*
Y815730D01*
X201730D01*
Y828270D01*
D02*
G37*
G36*
X239730Y742270D02*
X245365D01*
Y736635D01*
X239730D01*
Y742270D01*
D02*
G37*
G36*
X246635D02*
X252270D01*
Y736635D01*
X246635D01*
Y742270D01*
D02*
G37*
G36*
X205230Y739270D02*
X209865D01*
Y734635D01*
X205230D01*
Y739270D01*
D02*
G37*
G36*
X211135D02*
X215770D01*
Y734635D01*
X211135D01*
Y739270D01*
D02*
G37*
G36*
X449208Y745268D02*
X451432D01*
X453485Y744417D01*
X455057Y742845D01*
X455908Y740791D01*
Y738568D01*
X455057Y736515D01*
X453485Y734943D01*
X451432Y734092D01*
X449208D01*
X447155Y734943D01*
X445583Y736515D01*
X444732Y738568D01*
Y740791D01*
X445583Y742845D01*
X447155Y744417D01*
X449208Y745268D01*
D02*
G37*
G36*
X189209Y745268D02*
X191432D01*
X193485Y744417D01*
X195057Y742845D01*
X195908Y740791D01*
Y738568D01*
X195057Y736515D01*
X193485Y734943D01*
X191432Y734092D01*
X189209D01*
X187155Y734943D01*
X185583Y736515D01*
X184732Y738568D01*
Y740791D01*
X185583Y742845D01*
X187155Y744417D01*
X189209Y745268D01*
D02*
G37*
G36*
X239730Y735365D02*
X245365D01*
Y729730D01*
X239730D01*
Y735365D01*
D02*
G37*
G36*
X246635D02*
X252270D01*
Y729730D01*
X246635D01*
Y735365D01*
D02*
G37*
G36*
X28730Y759365D02*
X59365D01*
Y728730D01*
X57539D01*
X52678Y729500D01*
X47997Y731021D01*
X43611Y733255D01*
X39629Y736149D01*
X36149Y739629D01*
X33256Y743611D01*
X31021Y747997D01*
X29500Y752678D01*
X28730Y757539D01*
Y759365D01*
D02*
G37*
G36*
X60635D02*
X91270D01*
Y757539D01*
X90500Y752678D01*
X88979Y747997D01*
X86744Y743611D01*
X83851Y739629D01*
X80371Y736149D01*
X76389Y733255D01*
X72003Y731021D01*
X67322Y729500D01*
X62461Y728730D01*
X60635D01*
Y759365D01*
D02*
G37*
G36*
X205230Y733365D02*
X209865D01*
Y728730D01*
X205230D01*
Y733365D01*
D02*
G37*
G36*
X211135D02*
X215770D01*
Y728730D01*
X211135D01*
Y733365D01*
D02*
G37*
G36*
X508730Y759365D02*
X539365D01*
Y728730D01*
X537539D01*
X532678Y729500D01*
X527996Y731021D01*
X523611Y733255D01*
X519629Y736149D01*
X516149Y739629D01*
X513256Y743611D01*
X511021Y747997D01*
X509500Y752678D01*
X508730Y757539D01*
Y759365D01*
D02*
G37*
G36*
X540635D02*
X571270D01*
Y757539D01*
X570500Y752678D01*
X568979Y747997D01*
X566744Y743611D01*
X563851Y739629D01*
X560371Y736149D01*
X556389Y733255D01*
X552004Y731021D01*
X547322Y729500D01*
X542461Y728730D01*
X540635D01*
Y759365D01*
D02*
G37*
G36*
X239730Y724770D02*
X245365D01*
Y719135D01*
X239730D01*
Y724770D01*
D02*
G37*
G36*
X246635D02*
X252270D01*
Y719135D01*
X246635D01*
Y724770D01*
D02*
G37*
G36*
X239730Y717865D02*
X245365D01*
Y712230D01*
X239730D01*
Y717865D01*
D02*
G37*
G36*
X246635D02*
X252270D01*
Y712230D01*
X246635D01*
Y717865D01*
D02*
G37*
G36*
X269230Y705270D02*
X281770D01*
Y702844D01*
X286730D01*
Y705270D01*
X299270D01*
Y702844D01*
X304230D01*
Y705270D01*
X316770D01*
Y692730D01*
X304230D01*
Y695156D01*
X299270D01*
Y692730D01*
X286730D01*
Y695156D01*
X281770D01*
Y692730D01*
X269230D01*
Y696656D01*
X262770D01*
Y696230D01*
X249230D01*
Y704770D01*
X262770D01*
Y704344D01*
X269230D01*
Y705270D01*
D02*
G37*
G36*
X223730Y742270D02*
X236270D01*
Y729730D01*
X233844D01*
Y724770D01*
X236270D01*
Y712230D01*
X233844D01*
Y704770D01*
X236770D01*
Y696540D01*
X236770Y696230D01*
Y695270D01*
X236770Y694960D01*
Y691635D01*
X230000D01*
X223230D01*
Y694960D01*
X223230Y695270D01*
Y696230D01*
X222804Y696656D01*
X216770D01*
Y692730D01*
X204230D01*
Y696156D01*
X199270D01*
Y692730D01*
X186730D01*
Y705270D01*
X199270D01*
Y703844D01*
X204230D01*
Y705270D01*
X206656D01*
Y713730D01*
X205230D01*
Y724270D01*
X215770D01*
Y713730D01*
X214344D01*
Y705270D01*
X216770D01*
Y704344D01*
X223230D01*
Y704770D01*
X226156D01*
Y712230D01*
X223730D01*
Y724770D01*
X226156D01*
Y729730D01*
X223730D01*
Y742270D01*
D02*
G37*
G36*
X286730Y689270D02*
X292365D01*
Y683635D01*
X286730D01*
Y689270D01*
D02*
G37*
G36*
X304230D02*
X309865D01*
Y683635D01*
X304230D01*
Y689270D01*
D02*
G37*
G36*
X293635D02*
X299270D01*
Y683635D01*
X293635D01*
Y689270D01*
D02*
G37*
G36*
X311135D02*
X316770D01*
Y683635D01*
X311135D01*
Y689270D01*
D02*
G37*
G36*
X269230D02*
X281770D01*
Y676730D01*
X280873D01*
Y660500D01*
X280464Y658444D01*
X279299Y656701D01*
X277556Y655536D01*
X275500Y655127D01*
X273444Y655536D01*
X271700Y656701D01*
X270536Y658444D01*
X270127Y660500D01*
Y676730D01*
X269230D01*
Y677656D01*
X262770D01*
Y677230D01*
X249230D01*
Y685770D01*
X262770D01*
Y685344D01*
X269230D01*
Y689270D01*
D02*
G37*
G36*
X286730Y682365D02*
X292365D01*
Y676730D01*
X286730D01*
Y682365D01*
D02*
G37*
G36*
X293635D02*
X299270D01*
Y676730D01*
X293635D01*
Y682365D01*
D02*
G37*
G36*
X304230D02*
X309865D01*
Y676730D01*
X304230D01*
Y682365D01*
D02*
G37*
G36*
X311135D02*
X316770D01*
Y676730D01*
X311135D01*
Y682365D01*
D02*
G37*
G36*
X223230Y690365D02*
X230000D01*
X236770D01*
Y687040D01*
X236770Y686730D01*
Y685770D01*
X236770Y685460D01*
Y677230D01*
X223230D01*
Y677656D01*
X216770D01*
Y676730D01*
X214094D01*
Y672581D01*
X214770Y670949D01*
Y669051D01*
X214044Y667298D01*
X212702Y665956D01*
X210949Y665230D01*
X209051D01*
X207298Y665956D01*
X205956Y667298D01*
X205230Y669051D01*
Y670949D01*
X205956Y672702D01*
X206406Y673152D01*
Y676730D01*
X204230D01*
Y689270D01*
X216770D01*
Y685344D01*
X222804D01*
X223230Y685770D01*
Y686730D01*
X223230Y687040D01*
Y690365D01*
D02*
G37*
G36*
X332000Y687375D02*
X427000D01*
X427972Y686972D01*
X428375Y686000D01*
Y568000D01*
X427972Y567028D01*
X427000Y566625D01*
X332000D01*
X331028Y567028D01*
X330625Y568000D01*
Y686000D01*
X331028Y686972D01*
X332000Y687375D01*
D02*
G37*
G36*
X181730Y415770D02*
X194270D01*
Y413344D01*
X202730D01*
Y413770D01*
X216270D01*
Y405540D01*
X216270Y405230D01*
Y404270D01*
X216270Y403960D01*
Y400635D01*
X202730D01*
Y403960D01*
X202730Y404270D01*
Y405230D01*
X202304Y405656D01*
X194270D01*
Y403230D01*
X181730D01*
Y415770D01*
D02*
G37*
G36*
X146230Y399770D02*
X151865D01*
Y394135D01*
X146230D01*
Y399770D01*
D02*
G37*
G36*
X153135D02*
X158770D01*
Y394135D01*
X153135D01*
Y399770D01*
D02*
G37*
G36*
X165730Y396770D02*
X171365D01*
Y391135D01*
X165730D01*
Y396770D01*
D02*
G37*
G36*
X172635D02*
X178270D01*
Y391135D01*
X172635D01*
Y396770D01*
D02*
G37*
G36*
X146230Y392865D02*
X151865D01*
Y387230D01*
X146230D01*
Y392865D01*
D02*
G37*
G36*
X153135D02*
X158770D01*
Y387230D01*
X153135D01*
Y392865D01*
D02*
G37*
G36*
X165730Y389865D02*
X171365D01*
Y384230D01*
X165730D01*
Y389865D01*
D02*
G37*
G36*
X172635D02*
X178270D01*
Y384230D01*
X172635D01*
Y389865D01*
D02*
G37*
G36*
X202730Y399365D02*
X216270D01*
Y396040D01*
X216270Y395730D01*
Y394770D01*
X216270Y394460D01*
Y386230D01*
X202730D01*
Y386656D01*
X194270D01*
Y384230D01*
X191844D01*
Y374902D01*
X192044Y374702D01*
X192770Y372949D01*
Y371051D01*
X192044Y369298D01*
X190702Y367956D01*
X188949Y367230D01*
X187051D01*
X185298Y367956D01*
X183956Y369298D01*
X183230Y371051D01*
Y372949D01*
X183956Y374702D01*
X184156Y374902D01*
Y384230D01*
X181730D01*
Y396770D01*
X194270D01*
Y394344D01*
X202304D01*
X202730Y394770D01*
Y395730D01*
X202730Y396040D01*
Y399365D01*
D02*
G37*
G36*
X40510Y381000D02*
X42950D01*
X45308Y380368D01*
X47422Y379148D01*
X49148Y377422D01*
X50368Y375308D01*
X51000Y372950D01*
Y370510D01*
X50368Y368152D01*
X49148Y366038D01*
X47422Y364312D01*
X45308Y363092D01*
X42950Y362460D01*
X40510D01*
X38152Y363092D01*
X36038Y364312D01*
X34312Y366038D01*
X33092Y368152D01*
X32460Y370510D01*
Y372950D01*
X33092Y375308D01*
X34312Y377422D01*
X36038Y379148D01*
X38152Y380368D01*
X40510Y381000D01*
D02*
G37*
G36*
X403773Y227540D02*
X404230D01*
Y211270D01*
X387960D01*
Y211728D01*
X388634Y215116D01*
X389956Y218308D01*
X391876Y221181D01*
X394319Y223624D01*
X397192Y225544D01*
X400384Y226866D01*
X403773Y227540D01*
D02*
G37*
G36*
X352772D02*
X353230D01*
Y211270D01*
X336960D01*
Y211728D01*
X337634Y215116D01*
X338956Y218308D01*
X340876Y221181D01*
X343319Y223624D01*
X346192Y225544D01*
X349384Y226866D01*
X352772Y227540D01*
D02*
G37*
G36*
X406770D02*
X407228D01*
X410616Y226866D01*
X413808Y225544D01*
X416681Y223624D01*
X419124Y221181D01*
X421044Y218308D01*
X422366Y215116D01*
X423040Y211728D01*
Y211270D01*
X406770D01*
Y227540D01*
D02*
G37*
G36*
X355770D02*
X356228D01*
X359616Y226866D01*
X362808Y225544D01*
X365681Y223624D01*
X368124Y221181D01*
X370044Y218308D01*
X371366Y215116D01*
X372040Y211728D01*
Y211270D01*
X355770D01*
Y227540D01*
D02*
G37*
G36*
X336960Y208730D02*
X353230D01*
Y192460D01*
X352772D01*
X349384Y193134D01*
X346192Y194456D01*
X343319Y196376D01*
X340876Y198819D01*
X338956Y201692D01*
X337634Y204884D01*
X336960Y208272D01*
Y208730D01*
D02*
G37*
G36*
X355770D02*
X372040D01*
Y208272D01*
X371366Y204884D01*
X370044Y201692D01*
X368124Y198819D01*
X365681Y196376D01*
X362808Y194456D01*
X359616Y193134D01*
X356228Y192460D01*
X355770D01*
Y208730D01*
D02*
G37*
G36*
X387960D02*
X404230D01*
Y192460D01*
X403773D01*
X400384Y193134D01*
X397192Y194456D01*
X394319Y196376D01*
X391876Y198819D01*
X389956Y201692D01*
X388634Y204884D01*
X387960Y208272D01*
Y208730D01*
D02*
G37*
G36*
X406770D02*
X423040D01*
Y208272D01*
X422366Y204884D01*
X421044Y201692D01*
X419124Y198819D01*
X416681Y196376D01*
X413808Y194456D01*
X410616Y193134D01*
X407228Y192460D01*
X406770D01*
Y208730D01*
D02*
G37*
G36*
X378273Y152540D02*
X378730D01*
Y136270D01*
X362460D01*
Y136728D01*
X363134Y140116D01*
X364456Y143308D01*
X366376Y146181D01*
X368819Y148624D01*
X371692Y150544D01*
X374884Y151866D01*
X378273Y152540D01*
D02*
G37*
G36*
X381270D02*
X381728D01*
X385116Y151866D01*
X388308Y150544D01*
X391181Y148624D01*
X393624Y146181D01*
X395544Y143308D01*
X396866Y140116D01*
X397540Y136728D01*
Y136270D01*
X381270D01*
Y152540D01*
D02*
G37*
G36*
X362460Y133730D02*
X378730D01*
Y117460D01*
X378273D01*
X374884Y118134D01*
X371692Y119456D01*
X368819Y121376D01*
X366376Y123819D01*
X364456Y126692D01*
X363134Y129884D01*
X362460Y133272D01*
Y133730D01*
D02*
G37*
G36*
X381270D02*
X397540D01*
Y133272D01*
X396866Y129884D01*
X395544Y126692D01*
X393624Y123819D01*
X391181Y121376D01*
X388308Y119456D01*
X385116Y118134D01*
X381728Y117460D01*
X381270D01*
Y133730D01*
D02*
G37*
G36*
X57539Y91270D02*
X59365D01*
Y60635D01*
X28730D01*
Y62461D01*
X29500Y67322D01*
X31021Y72003D01*
X33256Y76389D01*
X36149Y80371D01*
X39629Y83851D01*
X43611Y86744D01*
X47997Y88979D01*
X52678Y90500D01*
X57539Y91270D01*
D02*
G37*
G36*
X60635D02*
X62461D01*
X67322Y90500D01*
X72003Y88979D01*
X76389Y86744D01*
X80371Y83851D01*
X83851Y80371D01*
X86744Y76389D01*
X88979Y72003D01*
X90500Y67322D01*
X91270Y62461D01*
Y60635D01*
X60635D01*
Y91270D01*
D02*
G37*
G36*
X537539Y91270D02*
X539365D01*
Y60635D01*
X508730D01*
Y62461D01*
X509500Y67322D01*
X511021Y72003D01*
X513256Y76389D01*
X516149Y80371D01*
X519629Y83851D01*
X523611Y86744D01*
X527996Y88979D01*
X532678Y90500D01*
X537539Y91270D01*
D02*
G37*
G36*
X540635D02*
X542461D01*
X547322Y90500D01*
X552004Y88979D01*
X556389Y86744D01*
X560371Y83851D01*
X563851Y80371D01*
X566744Y76389D01*
X568979Y72003D01*
X570500Y67322D01*
X571270Y62461D01*
Y60635D01*
X540635D01*
Y91270D01*
D02*
G37*
G36*
X28730Y59365D02*
X59365D01*
Y28730D01*
X57539D01*
X52678Y29500D01*
X47997Y31021D01*
X43611Y33256D01*
X39629Y36149D01*
X36149Y39629D01*
X33256Y43611D01*
X31021Y47997D01*
X29500Y52678D01*
X28730Y57539D01*
Y59365D01*
D02*
G37*
G36*
X60635D02*
X91270D01*
Y57539D01*
X90500Y52678D01*
X88979Y47997D01*
X86744Y43611D01*
X83851Y39629D01*
X80371Y36149D01*
X76389Y33256D01*
X72003Y31021D01*
X67322Y29500D01*
X62461Y28730D01*
X60635D01*
Y59365D01*
D02*
G37*
G36*
X508730Y59365D02*
X539365D01*
Y28730D01*
X537539D01*
X532678Y29500D01*
X527996Y31021D01*
X523611Y33256D01*
X519629Y36149D01*
X516149Y39629D01*
X513256Y43611D01*
X511021Y47997D01*
X509500Y52678D01*
X508730Y57539D01*
Y59365D01*
D02*
G37*
G36*
X540635D02*
X571270D01*
Y57539D01*
X570500Y52678D01*
X568979Y47997D01*
X566744Y43611D01*
X563851Y39629D01*
X560371Y36149D01*
X556389Y33256D01*
X552004Y31021D01*
X547322Y29500D01*
X542461Y28730D01*
X540635D01*
Y59365D01*
D02*
G37*
%LPD*%
G36*
X136000Y900000D02*
X184000D01*
Y871938D01*
X184730Y870970D01*
X190365D01*
Y864700D01*
X191635D01*
Y870970D01*
X197270D01*
X198000Y871938D01*
Y910000D01*
X164000D01*
Y957500D01*
X161005D01*
X160232Y956492D01*
X160270Y956352D01*
Y955635D01*
X150000D01*
X139730D01*
Y956352D01*
X139768Y956492D01*
X138995Y957500D01*
X136000D01*
Y900000D01*
D02*
G37*
%LPC*%
G36*
X139730Y954365D02*
X149365D01*
Y944730D01*
X148648D01*
X146036Y945430D01*
X143694Y946782D01*
X141782Y948694D01*
X140430Y951036D01*
X139730Y953648D01*
Y954365D01*
D02*
G37*
G36*
X150635D02*
X160270D01*
Y953648D01*
X159570Y951036D01*
X158218Y948694D01*
X156306Y946782D01*
X153964Y945430D01*
X151352Y944730D01*
X150635D01*
Y954365D01*
D02*
G37*
%LPD*%
G36*
X72500Y932500D02*
X82500D01*
Y891364D01*
X72167D01*
Y884520D01*
X73365D01*
Y879500D01*
Y874480D01*
X72167D01*
Y865000D01*
X82500D01*
Y810000D01*
X105000Y774000D01*
Y632500D01*
X305000D01*
Y611000D01*
X306680D01*
Y619365D01*
X313700D01*
X320720D01*
Y611000D01*
X322500D01*
Y650000D01*
X199000D01*
Y676730D01*
X193635D01*
Y683000D01*
X193000D01*
Y683635D01*
X186730D01*
Y689000D01*
X170000D01*
X130000Y730000D01*
Y742692D01*
X130000Y797647D01*
X97500Y855000D01*
Y932500D01*
X107500D01*
Y972500D01*
X72500D01*
Y932500D01*
D02*
G37*
%LPC*%
G36*
X79730Y965270D02*
X89365D01*
Y955635D01*
X79730D01*
Y965270D01*
D02*
G37*
G36*
X90635D02*
X100270D01*
Y955635D01*
X90635D01*
Y965270D01*
D02*
G37*
G36*
X79730Y954365D02*
X89365D01*
Y944730D01*
X79730D01*
Y954365D01*
D02*
G37*
G36*
X90635D02*
X100270D01*
Y944730D01*
X90635D01*
Y954365D01*
D02*
G37*
G36*
X83230Y885770D02*
X88865D01*
Y880135D01*
X83230D01*
Y885770D01*
D02*
G37*
G36*
X74635Y884520D02*
X77270D01*
Y880135D01*
X74635D01*
Y884520D01*
D02*
G37*
G36*
X90135Y885770D02*
X95770D01*
Y880135D01*
X90135D01*
Y885770D01*
D02*
G37*
G36*
X74635Y878865D02*
X77270D01*
Y874480D01*
X74635D01*
Y878865D01*
D02*
G37*
G36*
X83230D02*
X88865D01*
Y873230D01*
X83230D01*
Y878865D01*
D02*
G37*
G36*
X90135D02*
X95770D01*
Y873230D01*
X90135D01*
Y878865D01*
D02*
G37*
G36*
X186730Y682365D02*
X192365D01*
Y676730D01*
X186730D01*
Y682365D01*
D02*
G37*
G36*
X128780Y664270D02*
X129365D01*
Y655635D01*
X120730D01*
Y656220D01*
X121362Y658578D01*
X122582Y660692D01*
X124308Y662418D01*
X126422Y663638D01*
X128780Y664270D01*
D02*
G37*
G36*
X130635D02*
X131220D01*
X133578Y663638D01*
X135692Y662418D01*
X137418Y660692D01*
X138638Y658578D01*
X139270Y656220D01*
Y655635D01*
X130635D01*
Y664270D01*
D02*
G37*
G36*
X120730Y654365D02*
X129365D01*
Y645730D01*
X128780D01*
X126422Y646362D01*
X124308Y647582D01*
X122582Y649308D01*
X121362Y651422D01*
X120730Y653780D01*
Y654365D01*
D02*
G37*
G36*
X130635D02*
X139270D01*
Y653780D01*
X138638Y651422D01*
X137418Y649308D01*
X135692Y647582D01*
X133578Y646362D01*
X131220Y645730D01*
X130635D01*
Y654365D01*
D02*
G37*
G36*
X306680Y630270D02*
X313065D01*
Y620635D01*
X306680D01*
Y630270D01*
D02*
G37*
G36*
X314335D02*
X320720D01*
Y620635D01*
X314335D01*
Y630270D01*
D02*
G37*
%LPD*%
G36*
X174985Y799730D02*
X170000D01*
Y750000D01*
X183000D01*
Y753555D01*
X182770Y754730D01*
X181730Y754730D01*
X178135D01*
Y760000D01*
Y765270D01*
X182770Y765270D01*
X183000Y766445D01*
Y799344D01*
X181890Y799730D01*
Y799730D01*
X176255D01*
Y806000D01*
X174985D01*
Y799730D01*
D02*
G37*
%LPC*%
G36*
X176865Y765270D02*
Y760635D01*
X172230D01*
Y765270D01*
X176865D01*
D02*
G37*
G36*
X172230Y759365D02*
X176865D01*
Y754730D01*
X172230D01*
Y759365D01*
D02*
G37*
%LPD*%
G36*
X427270Y894635D02*
X421000D01*
Y894000D01*
X420365D01*
Y887730D01*
X415000D01*
Y881310D01*
X416880Y881020D01*
Y881020D01*
X420515D01*
Y872000D01*
X421150D01*
Y871365D01*
X425420D01*
Y863000D01*
X429580D01*
Y871365D01*
X433850D01*
Y872000D01*
X434485D01*
Y881020D01*
X438000D01*
Y886000D01*
X473730D01*
Y891365D01*
X480000D01*
Y892635D01*
X473730D01*
Y898270D01*
X472032Y899000D01*
X427270Y899000D01*
Y894635D01*
D02*
G37*
%LPC*%
G36*
X421635Y893365D02*
X427270D01*
Y887730D01*
X421635D01*
Y893365D01*
D02*
G37*
G36*
X429580Y881020D02*
X433215D01*
Y872635D01*
X429533D01*
X429580Y872871D01*
Y881020D01*
D02*
G37*
G36*
X421785D02*
X425420D01*
Y872635D01*
X421785D01*
Y881020D01*
D02*
G37*
%LPD*%
G36*
X30000Y815000D02*
X60000D01*
Y847500D01*
X30000D01*
Y815000D01*
D02*
G37*
G36*
X462500Y817500D02*
X470000Y810000D01*
X480000D01*
Y842500D01*
X462500D01*
Y817500D01*
D02*
G37*
G36*
X332000Y568000D02*
X427000D01*
Y686000D01*
X332000D01*
Y568000D01*
D02*
G37*
%LPC*%
G36*
X378273Y682540D02*
X378730D01*
Y666270D01*
X362460D01*
Y666728D01*
X363134Y670116D01*
X364456Y673308D01*
X366376Y676181D01*
X368819Y678624D01*
X371692Y680544D01*
X374884Y681866D01*
X378273Y682540D01*
D02*
G37*
G36*
X381270D02*
X381728D01*
X385116Y681866D01*
X388308Y680544D01*
X391181Y678624D01*
X393624Y676181D01*
X395544Y673308D01*
X396866Y670116D01*
X397540Y666728D01*
Y666270D01*
X381270D01*
Y682540D01*
D02*
G37*
G36*
X362460Y663730D02*
X378730D01*
Y647460D01*
X378273D01*
X374884Y648134D01*
X371692Y649456D01*
X368819Y651376D01*
X366376Y653819D01*
X364456Y656692D01*
X363134Y659884D01*
X362460Y663272D01*
Y663730D01*
D02*
G37*
G36*
X381270D02*
X397540D01*
Y663272D01*
X396866Y659884D01*
X395544Y656692D01*
X393624Y653819D01*
X391181Y651376D01*
X388308Y649456D01*
X385116Y648134D01*
X381728Y647460D01*
X381270D01*
Y663730D01*
D02*
G37*
G36*
X352772Y607540D02*
X353230D01*
Y591270D01*
X336960D01*
Y591727D01*
X337634Y595116D01*
X338956Y598308D01*
X340876Y601181D01*
X343319Y603624D01*
X346192Y605544D01*
X349384Y606866D01*
X352772Y607540D01*
D02*
G37*
G36*
X403773D02*
X404230D01*
Y591270D01*
X387960D01*
Y591727D01*
X388634Y595116D01*
X389956Y598308D01*
X391876Y601181D01*
X394319Y603624D01*
X397192Y605544D01*
X400384Y606866D01*
X403773Y607540D01*
D02*
G37*
G36*
X355770D02*
X356228D01*
X359616Y606866D01*
X362808Y605544D01*
X365681Y603624D01*
X368124Y601181D01*
X370044Y598308D01*
X371366Y595116D01*
X372040Y591727D01*
Y591270D01*
X355770D01*
Y607540D01*
D02*
G37*
G36*
X406770D02*
X407228D01*
X410616Y606866D01*
X413808Y605544D01*
X416681Y603624D01*
X419124Y601181D01*
X421044Y598308D01*
X422366Y595116D01*
X423040Y591727D01*
Y591270D01*
X406770D01*
Y607540D01*
D02*
G37*
G36*
X336960Y588730D02*
X353230D01*
Y572460D01*
X352772D01*
X349384Y573134D01*
X346192Y574456D01*
X343319Y576376D01*
X340876Y578819D01*
X338956Y581692D01*
X337634Y584884D01*
X336960Y588273D01*
Y588730D01*
D02*
G37*
G36*
X355770D02*
X372040D01*
Y588273D01*
X371366Y584884D01*
X370044Y581692D01*
X368124Y578819D01*
X365681Y576376D01*
X362808Y574456D01*
X359616Y573134D01*
X356228Y572460D01*
X355770D01*
Y588730D01*
D02*
G37*
G36*
X387960D02*
X404230D01*
Y572460D01*
X403773D01*
X400384Y573134D01*
X397192Y574456D01*
X394319Y576376D01*
X391876Y578819D01*
X389956Y581692D01*
X388634Y584884D01*
X387960Y588273D01*
Y588730D01*
D02*
G37*
G36*
X406770D02*
X423040D01*
Y588273D01*
X422366Y584884D01*
X421044Y581692D01*
X419124Y578819D01*
X416681Y576376D01*
X413808Y574456D01*
X410616Y573134D01*
X407228Y572460D01*
X406770D01*
Y588730D01*
D02*
G37*
%LPD*%
D10*
X275500Y683000D02*
X274000Y681500D01*
X287500Y933750D02*
Y947500D01*
X317500Y933750D02*
Y947500D01*
X317500Y947500D02*
X317500Y947500D01*
D11*
X162500Y760000D02*
Y822797D01*
X155000Y816000D02*
Y822000D01*
X170540Y830837D02*
X162500Y822797D01*
X165460Y832460D02*
X155000Y822000D01*
X67533Y911955D02*
X67516Y911939D01*
Y900516D02*
X67500Y900500D01*
X106000Y879000D02*
X105500Y879500D01*
X106000Y866000D02*
Y879000D01*
X191000Y864700D02*
X175620D01*
X165460Y832460D02*
Y839300D01*
X170540Y864700D02*
Y881000D01*
X154540Y868907D02*
Y881000D01*
X170540Y830837D02*
Y839300D01*
X160380D02*
X145000D01*
X29500Y879500D02*
X29000Y880000D01*
X422500Y760000D02*
X404000D01*
X192000Y839300D02*
X175620D01*
Y822000D02*
Y839300D01*
D13*
X209500Y390500D02*
D03*
Y409500D02*
D03*
Y400000D02*
D03*
X235500Y409500D02*
D03*
Y390500D02*
D03*
Y400000D02*
D03*
X256000Y700500D02*
D03*
Y681500D02*
D03*
X230000Y700500D02*
D03*
Y681500D02*
D03*
Y691000D02*
D03*
D14*
X446550Y818000D02*
D03*
X433850D02*
D03*
X421150D02*
D03*
X408450D02*
D03*
Y872000D02*
D03*
X421150D02*
D03*
X433850D02*
D03*
X446550D02*
D03*
D15*
X74000Y879500D02*
D03*
X74000Y900500D02*
D03*
X61000D02*
D03*
Y879500D02*
D03*
D16*
X67500Y900500D02*
D03*
D17*
X168000Y852000D02*
D03*
D18*
X170500Y839300D02*
D03*
X165500D02*
D03*
X175500D02*
D03*
X160500D02*
D03*
X165500Y864700D02*
D03*
X170500D02*
D03*
X160500D02*
D03*
X175500D02*
D03*
D19*
X188000Y390500D02*
D03*
X172000D02*
D03*
X188000Y409500D02*
D03*
X172000D02*
D03*
X450000Y796000D02*
D03*
X434000D02*
D03*
X230000Y718500D02*
D03*
X246000D02*
D03*
X170540Y881000D02*
D03*
X154540D02*
D03*
X192000Y822000D02*
D03*
X208000D02*
D03*
X292000Y900000D02*
D03*
X308000D02*
D03*
X421000Y894000D02*
D03*
X405000D02*
D03*
X230000Y736000D02*
D03*
X246000D02*
D03*
X45500Y879500D02*
D03*
X29500D02*
D03*
X89500D02*
D03*
X105500D02*
D03*
X191000Y864700D02*
D03*
X207000D02*
D03*
X192000Y839300D02*
D03*
X208000D02*
D03*
D20*
X510000Y908000D02*
D03*
Y892000D02*
D03*
X480000Y908000D02*
D03*
Y892000D02*
D03*
X210500Y683000D02*
D03*
Y699000D02*
D03*
X310500D02*
D03*
Y683000D02*
D03*
X275500D02*
D03*
Y699000D02*
D03*
X193000Y683000D02*
D03*
Y699000D02*
D03*
X145000Y839300D02*
D03*
Y855300D02*
D03*
X175620Y822000D02*
D03*
Y806000D02*
D03*
X152500Y409500D02*
D03*
Y393500D02*
D03*
X467500Y872000D02*
D03*
Y856000D02*
D03*
X385000Y872000D02*
D03*
Y856000D02*
D03*
X293000Y699000D02*
D03*
Y683000D02*
D03*
X272000Y900000D02*
D03*
Y884000D02*
D03*
X328000Y900000D02*
D03*
Y884000D02*
D03*
D21*
X291300Y620000D02*
D03*
Y400000D02*
D03*
Y180000D02*
D03*
D22*
X313700Y620000D02*
D03*
Y400000D02*
D03*
Y180000D02*
D03*
D23*
X162500Y760000D02*
D03*
X177500D02*
D03*
X422500Y760000D02*
D03*
X437500D02*
D03*
D24*
X307500Y933750D02*
D03*
X282500D02*
D03*
X287500D02*
D03*
X292500D02*
D03*
X297500D02*
D03*
X302500D02*
D03*
X312500D02*
D03*
X317500D02*
D03*
D25*
X268000Y932000D02*
D03*
X276000Y933750D02*
D03*
X324000D02*
D03*
X332000Y932000D02*
D03*
D26*
X210500Y719000D02*
D03*
Y734000D02*
D03*
D51*
X434799Y786429D02*
Y795201D01*
X458728Y762500D02*
X434799Y786429D01*
X477500Y762500D02*
X458728D01*
X434799Y795201D02*
X434000Y796000D01*
X377803D01*
X434000D02*
X433925Y796075D01*
X421150Y818000D02*
X421075Y817925D01*
Y804075D02*
Y817925D01*
Y804075D02*
X421000Y804000D01*
X208150Y839150D02*
X208000Y839300D01*
X219850Y839150D02*
X208150D01*
X220000Y839000D02*
X219850Y839150D01*
X242000Y691000D02*
X242000Y691000D01*
X230000D01*
X230000Y691000D01*
X258000Y736000D02*
X258000Y736000D01*
X246000D01*
X188000Y372000D02*
Y390500D01*
X29000Y880000D02*
X16000D01*
X405000Y894000D02*
X392000D01*
X274000Y681500D02*
X256000D01*
X210500Y734000D02*
X210464Y734036D01*
X201319D02*
X201284Y734071D01*
X210500Y700000D02*
X194000D01*
X210500D02*
Y719000D01*
Y699000D02*
Y700000D01*
X141250Y393750D02*
X141000Y394000D01*
X446550Y818000D02*
X446550Y818000D01*
X510000Y892000D02*
X480000D01*
X422186Y892814D02*
X421075Y891704D01*
X421150Y872000D02*
X421075Y872075D01*
X433850Y872000D02*
X433350Y872500D01*
X154270Y881270D02*
Y893730D01*
X154540Y881000D02*
X154270Y881270D01*
X209500Y400000D02*
X196000D01*
X328000Y912000D02*
X324000Y916000D01*
X328000Y900000D02*
Y912000D01*
X145000Y867000D02*
X145000Y867000D01*
X145000Y855300D02*
Y867000D01*
X146076Y856376D02*
X145000Y855300D01*
X207000Y864700D02*
Y877000D01*
X207000Y864700D02*
X207000Y864700D01*
Y877000D02*
X207000Y877000D01*
X193757Y851000D02*
X192000Y849243D01*
X220000Y851000D02*
X193757D01*
X192000Y839300D02*
Y849243D01*
X346100Y938291D02*
Y940000D01*
X332000Y932000D02*
Y935750D01*
X346100Y938291D02*
X343559Y935750D01*
X256441D02*
X253900Y938291D01*
X268000Y932000D02*
Y935750D01*
X253900Y938291D02*
Y940000D01*
X259000Y884000D02*
X259000Y884000D01*
X410000Y925400D02*
Y930000D01*
X246000Y736000D02*
X246000Y736000D01*
Y718500D02*
Y736000D01*
X322000Y683000D02*
X310500D01*
X310500Y683000D01*
X293000D01*
X152250Y393750D02*
X141250D01*
X172000Y379000D02*
Y390500D01*
X152500Y393500D02*
X152250Y393750D01*
X409000Y804000D02*
X408725Y804275D01*
Y817725D02*
X408450Y818000D01*
X408725Y804275D02*
Y817725D01*
X377803Y796000D02*
X356403Y774600D01*
X300000D01*
X433925Y817925D02*
X433850Y818000D01*
X433925Y796075D02*
Y817925D01*
X210250Y670250D02*
X210000Y670000D01*
X210500Y683000D02*
X210250Y682750D01*
Y670250D02*
Y682750D01*
X209500Y409500D02*
X188000D01*
X209500Y390500D02*
X188000D01*
X230000Y681500D02*
X212000D01*
X210500Y683000D01*
X230000Y700500D02*
X212000D01*
X210500Y699000D01*
X194000Y700000D02*
X193000Y699000D01*
X230000Y718500D02*
Y736000D01*
Y700500D02*
Y718500D01*
X275500Y699000D02*
X274000Y700500D01*
X256000D01*
X293000Y699000D02*
X275500D01*
X310500D02*
X293000D01*
X228757Y900000D02*
X227000Y898243D01*
Y858000D02*
Y898243D01*
X272000Y900000D02*
X228757D01*
X227000Y858000D02*
X220000Y851000D01*
X437500Y750757D02*
Y760000D01*
X435743Y749000D02*
X215000D01*
X437500Y750757D02*
X435743Y749000D01*
X215000D02*
X208000Y756000D01*
X208000Y822000D02*
X208000Y822000D01*
Y756000D02*
Y822000D01*
X176560Y805060D02*
X175620Y806000D01*
X177500Y760000D02*
X176560Y760940D01*
X192000Y822000D02*
X175620D01*
X235500Y204500D02*
Y390500D01*
X291300Y180000D02*
X260000D01*
X235500Y204500D01*
X260000Y620000D02*
X235500Y595500D01*
X291300Y620000D02*
X260000D01*
X235500Y409500D02*
Y595500D01*
X291300Y400000D02*
X235500D01*
X408450Y872000D02*
X385000D01*
X302500Y915000D02*
X280000D01*
X307929Y900071D02*
Y909571D01*
X308000Y900000D02*
X307929Y900071D01*
Y909571D02*
X302500Y915000D01*
X280000D02*
X276000Y919000D01*
Y933750D01*
X324000Y916000D02*
Y933750D01*
X510000Y908000D02*
Y955000D01*
X480000Y908000D02*
Y955000D01*
D52*
X45500Y832500D02*
Y879500D01*
X45000Y822500D02*
Y832000D01*
X482500Y837500D02*
Y869071D01*
Y817500D02*
Y837500D01*
X56250Y556250D02*
X17500Y595000D01*
X172000Y440500D02*
X56250Y556250D01*
X17500Y595000D02*
Y780000D01*
X461000Y796000D02*
X450000D01*
X479571Y872000D02*
X467500D01*
X482500Y869071D02*
X479571Y872000D01*
X482500Y817500D02*
X461000Y796000D01*
X45500Y832500D02*
X45000Y832000D01*
X45500Y808000D02*
Y822000D01*
X45000Y822500D01*
X45500Y808000D02*
X17500Y780000D01*
X172000Y409500D02*
Y440500D01*
D53*
X56250Y556250D02*
X42500Y542500D01*
Y427500D02*
Y542500D01*
X275500Y660500D02*
Y683000D01*
X172000Y409500D02*
X152500D01*
X313700Y400000D02*
Y620000D01*
X328000Y900000D02*
X308000D01*
X292000D02*
X272000D01*
X90000Y955000D02*
X89750Y954750D01*
X313700Y180000D02*
Y400000D01*
D54*
X467500Y872000D02*
X446550D01*
D55*
X61000Y879500D02*
X45500D01*
D56*
X130000Y655000D02*
D03*
X477500Y762500D02*
D03*
X41730Y371730D02*
D03*
X42500Y427500D02*
D03*
D57*
X550000Y930000D02*
D03*
X410000D02*
D03*
Y980000D02*
D03*
X550000D02*
D03*
X190000Y930000D02*
D03*
X50000D02*
D03*
Y980000D02*
D03*
X190000D02*
D03*
D58*
X450000Y955000D02*
D03*
X90000D02*
D03*
D59*
X510000D02*
D03*
X480000D02*
D03*
X150000D02*
D03*
X120000D02*
D03*
D60*
X325400Y800000D02*
D03*
X300000Y774600D02*
D03*
X274600Y800000D02*
D03*
D61*
X60000Y760000D02*
D03*
X540000D02*
D03*
X60000Y60000D02*
D03*
X540000Y60000D02*
D03*
D62*
X149680Y780320D02*
D03*
X190320Y739680D02*
D03*
X409680Y780320D02*
D03*
X450320Y739680D02*
D03*
D63*
X380000Y135000D02*
D03*
X405500Y210000D02*
D03*
X354500D02*
D03*
X380000Y665000D02*
D03*
X354500Y590000D02*
D03*
X405500D02*
D03*
D64*
X253900Y940000D02*
D03*
X346100D02*
D03*
Y985000D02*
D03*
X253900D02*
D03*
D65*
X267000Y945600D02*
D03*
X333000D02*
D03*
D66*
X421000Y804000D02*
D03*
X220000Y839000D02*
D03*
X155000Y816000D02*
D03*
X242000Y691000D02*
D03*
X258000Y736000D02*
D03*
X275500Y660500D02*
D03*
X37500Y840000D02*
D03*
X52500D02*
D03*
X188000Y372000D02*
D03*
X482500Y837500D02*
D03*
X37500Y825000D02*
D03*
X52500D02*
D03*
X16000Y880000D02*
D03*
X106000Y866000D02*
D03*
X71342Y496342D02*
D03*
X121342Y446342D02*
D03*
X467500Y822500D02*
D03*
X392000Y894000D02*
D03*
X525000Y625000D02*
D03*
X125000Y525000D02*
D03*
X275000D02*
D03*
X425000D02*
D03*
X150000Y75000D02*
D03*
X300000D02*
D03*
X450000D02*
D03*
X275000Y450000D02*
D03*
X425000D02*
D03*
X125000Y275000D02*
D03*
X275000D02*
D03*
X425000D02*
D03*
X75000Y200000D02*
D03*
Y350000D02*
D03*
X525000Y500000D02*
D03*
Y350000D02*
D03*
Y200000D02*
D03*
X154270Y893730D02*
D03*
X145000Y867000D02*
D03*
X207000Y877000D02*
D03*
X322000Y683000D02*
D03*
X141000Y393500D02*
D03*
X172000Y379000D02*
D03*
X409000Y804000D02*
D03*
X210000Y670000D02*
D03*
X404000Y760000D02*
D03*
X287500Y947500D02*
D03*
X317500D02*
D03*
M02*
