G04*
G04 #@! TF.GenerationSoftware,Altium Limited,Altium Designer,22.2.1 (43)*
G04*
G04 Layer_Color=16711935*
%FSLAX44Y44*%
%MOMM*%
G71*
G04*
G04 #@! TF.SameCoordinates,7C5D536F-F001-484F-B139-385EAFE792E0*
G04*
G04*
G04 #@! TF.FilePolarity,Positive*
G04*
G01*
G75*
%ADD10C,0.2540*%
%ADD12C,0.1000*%
%ADD68C,0.0500*%
D10*
X387775Y472303D02*
Y477381D01*
Y474842D01*
X375079D01*
X372540Y477381D01*
Y479920D01*
X375079Y482459D01*
X372540Y457068D02*
Y467224D01*
X382697Y457068D01*
X385236D01*
X387775Y459607D01*
Y464685D01*
X385236Y467224D01*
D12*
X291738Y962000D02*
Y978000D01*
X283238Y962000D02*
Y978000D01*
X291738Y962000D02*
X283238D01*
X291738Y978000D02*
X283238D01*
X321741Y962000D02*
Y978000D01*
X313241Y962000D02*
Y978000D01*
X321741Y962000D02*
X313241D01*
X321741Y978000D02*
X313241D01*
X480000Y585000D02*
X280000D01*
Y750000D01*
X480000D02*
X280000D01*
X480000Y585000D02*
Y750000D01*
Y585000D02*
X280000D01*
Y750000D01*
X480000D02*
X280000D01*
X480000Y585000D02*
Y750000D01*
Y215000D02*
X280000D01*
X480000Y50000D02*
Y215000D01*
Y50000D02*
X280000D01*
Y215000D01*
X304250Y794600D02*
Y810600D01*
X295750Y794600D02*
Y810600D01*
X304250Y794600D02*
X295750D01*
X304250Y810600D02*
X295750D01*
X270750Y764500D02*
Y780500D01*
X279250Y764500D02*
Y780500D01*
X270750D01*
X279250Y764500D02*
X270750D01*
D68*
X286238Y980000D02*
X288237D01*
Y979000D01*
X287904Y978667D01*
X287237D01*
X286904Y979000D01*
Y980000D01*
Y979333D02*
X286238Y978667D01*
X288237Y976668D02*
X287904Y977334D01*
X287237Y978001D01*
X286571D01*
X286238Y977667D01*
Y977001D01*
X286571Y976668D01*
X286904D01*
X287237Y977001D01*
Y978001D01*
X316241Y980000D02*
X318240D01*
Y979000D01*
X317907Y978667D01*
X317240D01*
X316907Y979000D01*
Y980000D01*
Y979333D02*
X316241Y978667D01*
X318240Y976668D02*
Y978001D01*
X317240D01*
X317574Y977334D01*
Y977001D01*
X317240Y976668D01*
X316574D01*
X316241Y977001D01*
Y977667D01*
X316574Y978001D01*
X300416Y811267D02*
X300749Y811600D01*
Y812267D01*
X300416Y812600D01*
X299083D01*
X298750Y812267D01*
Y811600D01*
X299083Y811267D01*
X298750Y810601D02*
Y809934D01*
Y810267D01*
X300749D01*
X300416Y810601D01*
X298750Y807935D02*
X300749D01*
X299750Y808934D01*
Y807602D01*
X274584Y763833D02*
X274251Y763500D01*
Y762833D01*
X274584Y762500D01*
X275917D01*
X276250Y762833D01*
Y763500D01*
X275917Y763833D01*
Y764499D02*
X276250Y764833D01*
Y765499D01*
X275917Y765832D01*
X274584D01*
X274251Y765499D01*
Y764833D01*
X274584Y764499D01*
X274917D01*
X275250Y764833D01*
Y765832D01*
M02*
